%TF.GenerationSoftware,KiCad,Pcbnew,9.0.4*%
%TF.CreationDate,2025-11-06T03:01:43+05:30*%
%TF.ProjectId,project005,70726f6a-6563-4743-9030-352e6b696361,rev?*%
%TF.SameCoordinates,Original*%
%TF.FileFunction,Drillmap*%
%TF.FilePolarity,Positive*%
%FSLAX45Y45*%
G04 Gerber Fmt 4.5, Leading zero omitted, Abs format (unit mm)*
G04 Created by KiCad (PCBNEW 9.0.4) date 2025-11-06 03:01:43*
%MOMM*%
%LPD*%
G01*
G04 APERTURE LIST*
%ADD10C,0.050000*%
%ADD11C,0.200000*%
%ADD12C,0.300000*%
G04 APERTURE END LIST*
D10*
X7900000Y-5200000D02*
X16630000Y-5200000D01*
X16630000Y-14390000D01*
X7900000Y-14390000D01*
X7900000Y-5200000D01*
D11*
D12*
X10482000Y-5814000D02*
X10782000Y-6114000D01*
X10782000Y-5814000D02*
X10482000Y-6114000D01*
X10482000Y-10509000D02*
X10782000Y-10809000D01*
X10782000Y-10509000D02*
X10482000Y-10809000D01*
X12933000Y-5814000D02*
X13233000Y-6114000D01*
X13233000Y-5814000D02*
X12933000Y-6114000D01*
X12933000Y-10509000D02*
X13233000Y-10809000D01*
X13233000Y-10509000D02*
X12933000Y-10809000D01*
D11*
X8158277Y-14703984D02*
X8158277Y-14503984D01*
X8158277Y-14503984D02*
X8205896Y-14503984D01*
X8205896Y-14503984D02*
X8234467Y-14513508D01*
X8234467Y-14513508D02*
X8253515Y-14532555D01*
X8253515Y-14532555D02*
X8263039Y-14551603D01*
X8263039Y-14551603D02*
X8272562Y-14589698D01*
X8272562Y-14589698D02*
X8272562Y-14618269D01*
X8272562Y-14618269D02*
X8263039Y-14656365D01*
X8263039Y-14656365D02*
X8253515Y-14675412D01*
X8253515Y-14675412D02*
X8234467Y-14694460D01*
X8234467Y-14694460D02*
X8205896Y-14703984D01*
X8205896Y-14703984D02*
X8158277Y-14703984D01*
X8358277Y-14703984D02*
X8358277Y-14570650D01*
X8358277Y-14608746D02*
X8367801Y-14589698D01*
X8367801Y-14589698D02*
X8377324Y-14580174D01*
X8377324Y-14580174D02*
X8396372Y-14570650D01*
X8396372Y-14570650D02*
X8415420Y-14570650D01*
X8482086Y-14703984D02*
X8482086Y-14570650D01*
X8482086Y-14503984D02*
X8472563Y-14513508D01*
X8472563Y-14513508D02*
X8482086Y-14523031D01*
X8482086Y-14523031D02*
X8491610Y-14513508D01*
X8491610Y-14513508D02*
X8482086Y-14503984D01*
X8482086Y-14503984D02*
X8482086Y-14523031D01*
X8605896Y-14703984D02*
X8586848Y-14694460D01*
X8586848Y-14694460D02*
X8577324Y-14675412D01*
X8577324Y-14675412D02*
X8577324Y-14503984D01*
X8710658Y-14703984D02*
X8691610Y-14694460D01*
X8691610Y-14694460D02*
X8682086Y-14675412D01*
X8682086Y-14675412D02*
X8682086Y-14503984D01*
X8939229Y-14703984D02*
X8939229Y-14503984D01*
X8939229Y-14503984D02*
X9005896Y-14646841D01*
X9005896Y-14646841D02*
X9072563Y-14503984D01*
X9072563Y-14503984D02*
X9072563Y-14703984D01*
X9253515Y-14703984D02*
X9253515Y-14599222D01*
X9253515Y-14599222D02*
X9243991Y-14580174D01*
X9243991Y-14580174D02*
X9224944Y-14570650D01*
X9224944Y-14570650D02*
X9186848Y-14570650D01*
X9186848Y-14570650D02*
X9167801Y-14580174D01*
X9253515Y-14694460D02*
X9234467Y-14703984D01*
X9234467Y-14703984D02*
X9186848Y-14703984D01*
X9186848Y-14703984D02*
X9167801Y-14694460D01*
X9167801Y-14694460D02*
X9158277Y-14675412D01*
X9158277Y-14675412D02*
X9158277Y-14656365D01*
X9158277Y-14656365D02*
X9167801Y-14637317D01*
X9167801Y-14637317D02*
X9186848Y-14627793D01*
X9186848Y-14627793D02*
X9234467Y-14627793D01*
X9234467Y-14627793D02*
X9253515Y-14618269D01*
X9348753Y-14570650D02*
X9348753Y-14770650D01*
X9348753Y-14580174D02*
X9367801Y-14570650D01*
X9367801Y-14570650D02*
X9405896Y-14570650D01*
X9405896Y-14570650D02*
X9424944Y-14580174D01*
X9424944Y-14580174D02*
X9434467Y-14589698D01*
X9434467Y-14589698D02*
X9443991Y-14608746D01*
X9443991Y-14608746D02*
X9443991Y-14665888D01*
X9443991Y-14665888D02*
X9434467Y-14684936D01*
X9434467Y-14684936D02*
X9424944Y-14694460D01*
X9424944Y-14694460D02*
X9405896Y-14703984D01*
X9405896Y-14703984D02*
X9367801Y-14703984D01*
X9367801Y-14703984D02*
X9348753Y-14694460D01*
X9529705Y-14684936D02*
X9539229Y-14694460D01*
X9539229Y-14694460D02*
X9529705Y-14703984D01*
X9529705Y-14703984D02*
X9520182Y-14694460D01*
X9520182Y-14694460D02*
X9529705Y-14684936D01*
X9529705Y-14684936D02*
X9529705Y-14703984D01*
X9529705Y-14580174D02*
X9539229Y-14589698D01*
X9539229Y-14589698D02*
X9529705Y-14599222D01*
X9529705Y-14599222D02*
X9520182Y-14589698D01*
X9520182Y-14589698D02*
X9529705Y-14580174D01*
X9529705Y-14580174D02*
X9529705Y-14599222D01*
X7697500Y-14932500D02*
X7897500Y-15132500D01*
X7897500Y-14932500D02*
X7697500Y-15132500D01*
X8139229Y-14923984D02*
X8263039Y-14923984D01*
X8263039Y-14923984D02*
X8196372Y-15000174D01*
X8196372Y-15000174D02*
X8224943Y-15000174D01*
X8224943Y-15000174D02*
X8243991Y-15009698D01*
X8243991Y-15009698D02*
X8253515Y-15019222D01*
X8253515Y-15019222D02*
X8263039Y-15038269D01*
X8263039Y-15038269D02*
X8263039Y-15085888D01*
X8263039Y-15085888D02*
X8253515Y-15104936D01*
X8253515Y-15104936D02*
X8243991Y-15114460D01*
X8243991Y-15114460D02*
X8224943Y-15123984D01*
X8224943Y-15123984D02*
X8167801Y-15123984D01*
X8167801Y-15123984D02*
X8148753Y-15114460D01*
X8148753Y-15114460D02*
X8139229Y-15104936D01*
X8348753Y-15104936D02*
X8358277Y-15114460D01*
X8358277Y-15114460D02*
X8348753Y-15123984D01*
X8348753Y-15123984D02*
X8339229Y-15114460D01*
X8339229Y-15114460D02*
X8348753Y-15104936D01*
X8348753Y-15104936D02*
X8348753Y-15123984D01*
X8482086Y-14923984D02*
X8501134Y-14923984D01*
X8501134Y-14923984D02*
X8520182Y-14933508D01*
X8520182Y-14933508D02*
X8529705Y-14943031D01*
X8529705Y-14943031D02*
X8539229Y-14962079D01*
X8539229Y-14962079D02*
X8548753Y-15000174D01*
X8548753Y-15000174D02*
X8548753Y-15047793D01*
X8548753Y-15047793D02*
X8539229Y-15085888D01*
X8539229Y-15085888D02*
X8529705Y-15104936D01*
X8529705Y-15104936D02*
X8520182Y-15114460D01*
X8520182Y-15114460D02*
X8501134Y-15123984D01*
X8501134Y-15123984D02*
X8482086Y-15123984D01*
X8482086Y-15123984D02*
X8463039Y-15114460D01*
X8463039Y-15114460D02*
X8453515Y-15104936D01*
X8453515Y-15104936D02*
X8443991Y-15085888D01*
X8443991Y-15085888D02*
X8434467Y-15047793D01*
X8434467Y-15047793D02*
X8434467Y-15000174D01*
X8434467Y-15000174D02*
X8443991Y-14962079D01*
X8443991Y-14962079D02*
X8453515Y-14943031D01*
X8453515Y-14943031D02*
X8463039Y-14933508D01*
X8463039Y-14933508D02*
X8482086Y-14923984D01*
X8672563Y-14923984D02*
X8691610Y-14923984D01*
X8691610Y-14923984D02*
X8710658Y-14933508D01*
X8710658Y-14933508D02*
X8720182Y-14943031D01*
X8720182Y-14943031D02*
X8729705Y-14962079D01*
X8729705Y-14962079D02*
X8739229Y-15000174D01*
X8739229Y-15000174D02*
X8739229Y-15047793D01*
X8739229Y-15047793D02*
X8729705Y-15085888D01*
X8729705Y-15085888D02*
X8720182Y-15104936D01*
X8720182Y-15104936D02*
X8710658Y-15114460D01*
X8710658Y-15114460D02*
X8691610Y-15123984D01*
X8691610Y-15123984D02*
X8672563Y-15123984D01*
X8672563Y-15123984D02*
X8653515Y-15114460D01*
X8653515Y-15114460D02*
X8643991Y-15104936D01*
X8643991Y-15104936D02*
X8634467Y-15085888D01*
X8634467Y-15085888D02*
X8624944Y-15047793D01*
X8624944Y-15047793D02*
X8624944Y-15000174D01*
X8624944Y-15000174D02*
X8634467Y-14962079D01*
X8634467Y-14962079D02*
X8643991Y-14943031D01*
X8643991Y-14943031D02*
X8653515Y-14933508D01*
X8653515Y-14933508D02*
X8672563Y-14923984D01*
X8863039Y-14923984D02*
X8882086Y-14923984D01*
X8882086Y-14923984D02*
X8901134Y-14933508D01*
X8901134Y-14933508D02*
X8910658Y-14943031D01*
X8910658Y-14943031D02*
X8920182Y-14962079D01*
X8920182Y-14962079D02*
X8929705Y-15000174D01*
X8929705Y-15000174D02*
X8929705Y-15047793D01*
X8929705Y-15047793D02*
X8920182Y-15085888D01*
X8920182Y-15085888D02*
X8910658Y-15104936D01*
X8910658Y-15104936D02*
X8901134Y-15114460D01*
X8901134Y-15114460D02*
X8882086Y-15123984D01*
X8882086Y-15123984D02*
X8863039Y-15123984D01*
X8863039Y-15123984D02*
X8843991Y-15114460D01*
X8843991Y-15114460D02*
X8834467Y-15104936D01*
X8834467Y-15104936D02*
X8824944Y-15085888D01*
X8824944Y-15085888D02*
X8815420Y-15047793D01*
X8815420Y-15047793D02*
X8815420Y-15000174D01*
X8815420Y-15000174D02*
X8824944Y-14962079D01*
X8824944Y-14962079D02*
X8834467Y-14943031D01*
X8834467Y-14943031D02*
X8843991Y-14933508D01*
X8843991Y-14933508D02*
X8863039Y-14923984D01*
X9015420Y-15123984D02*
X9015420Y-14990650D01*
X9015420Y-15009698D02*
X9024944Y-15000174D01*
X9024944Y-15000174D02*
X9043991Y-14990650D01*
X9043991Y-14990650D02*
X9072563Y-14990650D01*
X9072563Y-14990650D02*
X9091610Y-15000174D01*
X9091610Y-15000174D02*
X9101134Y-15019222D01*
X9101134Y-15019222D02*
X9101134Y-15123984D01*
X9101134Y-15019222D02*
X9110658Y-15000174D01*
X9110658Y-15000174D02*
X9129705Y-14990650D01*
X9129705Y-14990650D02*
X9158277Y-14990650D01*
X9158277Y-14990650D02*
X9177325Y-15000174D01*
X9177325Y-15000174D02*
X9186848Y-15019222D01*
X9186848Y-15019222D02*
X9186848Y-15123984D01*
X9282086Y-15123984D02*
X9282086Y-14990650D01*
X9282086Y-15009698D02*
X9291610Y-15000174D01*
X9291610Y-15000174D02*
X9310658Y-14990650D01*
X9310658Y-14990650D02*
X9339229Y-14990650D01*
X9339229Y-14990650D02*
X9358277Y-15000174D01*
X9358277Y-15000174D02*
X9367801Y-15019222D01*
X9367801Y-15019222D02*
X9367801Y-15123984D01*
X9367801Y-15019222D02*
X9377325Y-15000174D01*
X9377325Y-15000174D02*
X9396372Y-14990650D01*
X9396372Y-14990650D02*
X9424944Y-14990650D01*
X9424944Y-14990650D02*
X9443991Y-15000174D01*
X9443991Y-15000174D02*
X9453515Y-15019222D01*
X9453515Y-15019222D02*
X9453515Y-15123984D01*
X9843991Y-14914460D02*
X9672563Y-15171603D01*
X10101134Y-14923984D02*
X10120182Y-14923984D01*
X10120182Y-14923984D02*
X10139229Y-14933508D01*
X10139229Y-14933508D02*
X10148753Y-14943031D01*
X10148753Y-14943031D02*
X10158277Y-14962079D01*
X10158277Y-14962079D02*
X10167801Y-15000174D01*
X10167801Y-15000174D02*
X10167801Y-15047793D01*
X10167801Y-15047793D02*
X10158277Y-15085888D01*
X10158277Y-15085888D02*
X10148753Y-15104936D01*
X10148753Y-15104936D02*
X10139229Y-15114460D01*
X10139229Y-15114460D02*
X10120182Y-15123984D01*
X10120182Y-15123984D02*
X10101134Y-15123984D01*
X10101134Y-15123984D02*
X10082087Y-15114460D01*
X10082087Y-15114460D02*
X10072563Y-15104936D01*
X10072563Y-15104936D02*
X10063039Y-15085888D01*
X10063039Y-15085888D02*
X10053515Y-15047793D01*
X10053515Y-15047793D02*
X10053515Y-15000174D01*
X10053515Y-15000174D02*
X10063039Y-14962079D01*
X10063039Y-14962079D02*
X10072563Y-14943031D01*
X10072563Y-14943031D02*
X10082087Y-14933508D01*
X10082087Y-14933508D02*
X10101134Y-14923984D01*
X10253515Y-15104936D02*
X10263039Y-15114460D01*
X10263039Y-15114460D02*
X10253515Y-15123984D01*
X10253515Y-15123984D02*
X10243991Y-15114460D01*
X10243991Y-15114460D02*
X10253515Y-15104936D01*
X10253515Y-15104936D02*
X10253515Y-15123984D01*
X10453515Y-15123984D02*
X10339229Y-15123984D01*
X10396372Y-15123984D02*
X10396372Y-14923984D01*
X10396372Y-14923984D02*
X10377325Y-14952555D01*
X10377325Y-14952555D02*
X10358277Y-14971603D01*
X10358277Y-14971603D02*
X10339229Y-14981127D01*
X10643991Y-15123984D02*
X10529706Y-15123984D01*
X10586848Y-15123984D02*
X10586848Y-14923984D01*
X10586848Y-14923984D02*
X10567801Y-14952555D01*
X10567801Y-14952555D02*
X10548753Y-14971603D01*
X10548753Y-14971603D02*
X10529706Y-14981127D01*
X10758277Y-15009698D02*
X10739229Y-15000174D01*
X10739229Y-15000174D02*
X10729706Y-14990650D01*
X10729706Y-14990650D02*
X10720182Y-14971603D01*
X10720182Y-14971603D02*
X10720182Y-14962079D01*
X10720182Y-14962079D02*
X10729706Y-14943031D01*
X10729706Y-14943031D02*
X10739229Y-14933508D01*
X10739229Y-14933508D02*
X10758277Y-14923984D01*
X10758277Y-14923984D02*
X10796372Y-14923984D01*
X10796372Y-14923984D02*
X10815420Y-14933508D01*
X10815420Y-14933508D02*
X10824944Y-14943031D01*
X10824944Y-14943031D02*
X10834468Y-14962079D01*
X10834468Y-14962079D02*
X10834468Y-14971603D01*
X10834468Y-14971603D02*
X10824944Y-14990650D01*
X10824944Y-14990650D02*
X10815420Y-15000174D01*
X10815420Y-15000174D02*
X10796372Y-15009698D01*
X10796372Y-15009698D02*
X10758277Y-15009698D01*
X10758277Y-15009698D02*
X10739229Y-15019222D01*
X10739229Y-15019222D02*
X10729706Y-15028746D01*
X10729706Y-15028746D02*
X10720182Y-15047793D01*
X10720182Y-15047793D02*
X10720182Y-15085888D01*
X10720182Y-15085888D02*
X10729706Y-15104936D01*
X10729706Y-15104936D02*
X10739229Y-15114460D01*
X10739229Y-15114460D02*
X10758277Y-15123984D01*
X10758277Y-15123984D02*
X10796372Y-15123984D01*
X10796372Y-15123984D02*
X10815420Y-15114460D01*
X10815420Y-15114460D02*
X10824944Y-15104936D01*
X10824944Y-15104936D02*
X10834468Y-15085888D01*
X10834468Y-15085888D02*
X10834468Y-15047793D01*
X10834468Y-15047793D02*
X10824944Y-15028746D01*
X10824944Y-15028746D02*
X10815420Y-15019222D01*
X10815420Y-15019222D02*
X10796372Y-15009698D01*
X11024944Y-15123984D02*
X10910658Y-15123984D01*
X10967801Y-15123984D02*
X10967801Y-14923984D01*
X10967801Y-14923984D02*
X10948753Y-14952555D01*
X10948753Y-14952555D02*
X10929706Y-14971603D01*
X10929706Y-14971603D02*
X10910658Y-14981127D01*
X11101134Y-14923984D02*
X11101134Y-14962079D01*
X11177325Y-14923984D02*
X11177325Y-14962079D01*
X11472563Y-15200174D02*
X11463039Y-15190650D01*
X11463039Y-15190650D02*
X11443991Y-15162079D01*
X11443991Y-15162079D02*
X11434468Y-15143031D01*
X11434468Y-15143031D02*
X11424944Y-15114460D01*
X11424944Y-15114460D02*
X11415420Y-15066841D01*
X11415420Y-15066841D02*
X11415420Y-15028746D01*
X11415420Y-15028746D02*
X11424944Y-14981127D01*
X11424944Y-14981127D02*
X11434468Y-14952555D01*
X11434468Y-14952555D02*
X11443991Y-14933508D01*
X11443991Y-14933508D02*
X11463039Y-14904936D01*
X11463039Y-14904936D02*
X11472563Y-14895412D01*
X11634468Y-14990650D02*
X11634468Y-15123984D01*
X11586848Y-14914460D02*
X11539229Y-15057317D01*
X11539229Y-15057317D02*
X11663039Y-15057317D01*
X11891610Y-15123984D02*
X11891610Y-14923984D01*
X11977325Y-15123984D02*
X11977325Y-15019222D01*
X11977325Y-15019222D02*
X11967801Y-15000174D01*
X11967801Y-15000174D02*
X11948753Y-14990650D01*
X11948753Y-14990650D02*
X11920182Y-14990650D01*
X11920182Y-14990650D02*
X11901134Y-15000174D01*
X11901134Y-15000174D02*
X11891610Y-15009698D01*
X12101134Y-15123984D02*
X12082087Y-15114460D01*
X12082087Y-15114460D02*
X12072563Y-15104936D01*
X12072563Y-15104936D02*
X12063039Y-15085888D01*
X12063039Y-15085888D02*
X12063039Y-15028746D01*
X12063039Y-15028746D02*
X12072563Y-15009698D01*
X12072563Y-15009698D02*
X12082087Y-15000174D01*
X12082087Y-15000174D02*
X12101134Y-14990650D01*
X12101134Y-14990650D02*
X12129706Y-14990650D01*
X12129706Y-14990650D02*
X12148753Y-15000174D01*
X12148753Y-15000174D02*
X12158277Y-15009698D01*
X12158277Y-15009698D02*
X12167801Y-15028746D01*
X12167801Y-15028746D02*
X12167801Y-15085888D01*
X12167801Y-15085888D02*
X12158277Y-15104936D01*
X12158277Y-15104936D02*
X12148753Y-15114460D01*
X12148753Y-15114460D02*
X12129706Y-15123984D01*
X12129706Y-15123984D02*
X12101134Y-15123984D01*
X12282087Y-15123984D02*
X12263039Y-15114460D01*
X12263039Y-15114460D02*
X12253515Y-15095412D01*
X12253515Y-15095412D02*
X12253515Y-14923984D01*
X12434468Y-15114460D02*
X12415420Y-15123984D01*
X12415420Y-15123984D02*
X12377325Y-15123984D01*
X12377325Y-15123984D02*
X12358277Y-15114460D01*
X12358277Y-15114460D02*
X12348753Y-15095412D01*
X12348753Y-15095412D02*
X12348753Y-15019222D01*
X12348753Y-15019222D02*
X12358277Y-15000174D01*
X12358277Y-15000174D02*
X12377325Y-14990650D01*
X12377325Y-14990650D02*
X12415420Y-14990650D01*
X12415420Y-14990650D02*
X12434468Y-15000174D01*
X12434468Y-15000174D02*
X12443991Y-15019222D01*
X12443991Y-15019222D02*
X12443991Y-15038269D01*
X12443991Y-15038269D02*
X12348753Y-15057317D01*
X12520182Y-15114460D02*
X12539230Y-15123984D01*
X12539230Y-15123984D02*
X12577325Y-15123984D01*
X12577325Y-15123984D02*
X12596372Y-15114460D01*
X12596372Y-15114460D02*
X12605896Y-15095412D01*
X12605896Y-15095412D02*
X12605896Y-15085888D01*
X12605896Y-15085888D02*
X12596372Y-15066841D01*
X12596372Y-15066841D02*
X12577325Y-15057317D01*
X12577325Y-15057317D02*
X12548753Y-15057317D01*
X12548753Y-15057317D02*
X12529706Y-15047793D01*
X12529706Y-15047793D02*
X12520182Y-15028746D01*
X12520182Y-15028746D02*
X12520182Y-15019222D01*
X12520182Y-15019222D02*
X12529706Y-15000174D01*
X12529706Y-15000174D02*
X12548753Y-14990650D01*
X12548753Y-14990650D02*
X12577325Y-14990650D01*
X12577325Y-14990650D02*
X12596372Y-15000174D01*
X12672563Y-15200174D02*
X12682087Y-15190650D01*
X12682087Y-15190650D02*
X12701134Y-15162079D01*
X12701134Y-15162079D02*
X12710658Y-15143031D01*
X12710658Y-15143031D02*
X12720182Y-15114460D01*
X12720182Y-15114460D02*
X12729706Y-15066841D01*
X12729706Y-15066841D02*
X12729706Y-15028746D01*
X12729706Y-15028746D02*
X12720182Y-14981127D01*
X12720182Y-14981127D02*
X12710658Y-14952555D01*
X12710658Y-14952555D02*
X12701134Y-14933508D01*
X12701134Y-14933508D02*
X12682087Y-14904936D01*
X12682087Y-14904936D02*
X12672563Y-14895412D01*
X13034468Y-15200174D02*
X13024944Y-15190650D01*
X13024944Y-15190650D02*
X13005896Y-15162079D01*
X13005896Y-15162079D02*
X12996372Y-15143031D01*
X12996372Y-15143031D02*
X12986849Y-15114460D01*
X12986849Y-15114460D02*
X12977325Y-15066841D01*
X12977325Y-15066841D02*
X12977325Y-15028746D01*
X12977325Y-15028746D02*
X12986849Y-14981127D01*
X12986849Y-14981127D02*
X12996372Y-14952555D01*
X12996372Y-14952555D02*
X13005896Y-14933508D01*
X13005896Y-14933508D02*
X13024944Y-14904936D01*
X13024944Y-14904936D02*
X13034468Y-14895412D01*
X13110658Y-14990650D02*
X13110658Y-15123984D01*
X13110658Y-15009698D02*
X13120182Y-15000174D01*
X13120182Y-15000174D02*
X13139230Y-14990650D01*
X13139230Y-14990650D02*
X13167801Y-14990650D01*
X13167801Y-14990650D02*
X13186849Y-15000174D01*
X13186849Y-15000174D02*
X13196372Y-15019222D01*
X13196372Y-15019222D02*
X13196372Y-15123984D01*
X13320182Y-15123984D02*
X13301134Y-15114460D01*
X13301134Y-15114460D02*
X13291611Y-15104936D01*
X13291611Y-15104936D02*
X13282087Y-15085888D01*
X13282087Y-15085888D02*
X13282087Y-15028746D01*
X13282087Y-15028746D02*
X13291611Y-15009698D01*
X13291611Y-15009698D02*
X13301134Y-15000174D01*
X13301134Y-15000174D02*
X13320182Y-14990650D01*
X13320182Y-14990650D02*
X13348753Y-14990650D01*
X13348753Y-14990650D02*
X13367801Y-15000174D01*
X13367801Y-15000174D02*
X13377325Y-15009698D01*
X13377325Y-15009698D02*
X13386849Y-15028746D01*
X13386849Y-15028746D02*
X13386849Y-15085888D01*
X13386849Y-15085888D02*
X13377325Y-15104936D01*
X13377325Y-15104936D02*
X13367801Y-15114460D01*
X13367801Y-15114460D02*
X13348753Y-15123984D01*
X13348753Y-15123984D02*
X13320182Y-15123984D01*
X13443992Y-14990650D02*
X13520182Y-14990650D01*
X13472563Y-14923984D02*
X13472563Y-15095412D01*
X13472563Y-15095412D02*
X13482087Y-15114460D01*
X13482087Y-15114460D02*
X13501134Y-15123984D01*
X13501134Y-15123984D02*
X13520182Y-15123984D01*
X13739230Y-14990650D02*
X13739230Y-15190650D01*
X13739230Y-15000174D02*
X13758277Y-14990650D01*
X13758277Y-14990650D02*
X13796373Y-14990650D01*
X13796373Y-14990650D02*
X13815420Y-15000174D01*
X13815420Y-15000174D02*
X13824944Y-15009698D01*
X13824944Y-15009698D02*
X13834468Y-15028746D01*
X13834468Y-15028746D02*
X13834468Y-15085888D01*
X13834468Y-15085888D02*
X13824944Y-15104936D01*
X13824944Y-15104936D02*
X13815420Y-15114460D01*
X13815420Y-15114460D02*
X13796373Y-15123984D01*
X13796373Y-15123984D02*
X13758277Y-15123984D01*
X13758277Y-15123984D02*
X13739230Y-15114460D01*
X13948753Y-15123984D02*
X13929706Y-15114460D01*
X13929706Y-15114460D02*
X13920182Y-15095412D01*
X13920182Y-15095412D02*
X13920182Y-14923984D01*
X14110658Y-15123984D02*
X14110658Y-15019222D01*
X14110658Y-15019222D02*
X14101134Y-15000174D01*
X14101134Y-15000174D02*
X14082087Y-14990650D01*
X14082087Y-14990650D02*
X14043992Y-14990650D01*
X14043992Y-14990650D02*
X14024944Y-15000174D01*
X14110658Y-15114460D02*
X14091611Y-15123984D01*
X14091611Y-15123984D02*
X14043992Y-15123984D01*
X14043992Y-15123984D02*
X14024944Y-15114460D01*
X14024944Y-15114460D02*
X14015420Y-15095412D01*
X14015420Y-15095412D02*
X14015420Y-15076365D01*
X14015420Y-15076365D02*
X14024944Y-15057317D01*
X14024944Y-15057317D02*
X14043992Y-15047793D01*
X14043992Y-15047793D02*
X14091611Y-15047793D01*
X14091611Y-15047793D02*
X14110658Y-15038269D01*
X14177325Y-14990650D02*
X14253515Y-14990650D01*
X14205896Y-14923984D02*
X14205896Y-15095412D01*
X14205896Y-15095412D02*
X14215420Y-15114460D01*
X14215420Y-15114460D02*
X14234468Y-15123984D01*
X14234468Y-15123984D02*
X14253515Y-15123984D01*
X14396373Y-15114460D02*
X14377325Y-15123984D01*
X14377325Y-15123984D02*
X14339230Y-15123984D01*
X14339230Y-15123984D02*
X14320182Y-15114460D01*
X14320182Y-15114460D02*
X14310658Y-15095412D01*
X14310658Y-15095412D02*
X14310658Y-15019222D01*
X14310658Y-15019222D02*
X14320182Y-15000174D01*
X14320182Y-15000174D02*
X14339230Y-14990650D01*
X14339230Y-14990650D02*
X14377325Y-14990650D01*
X14377325Y-14990650D02*
X14396373Y-15000174D01*
X14396373Y-15000174D02*
X14405896Y-15019222D01*
X14405896Y-15019222D02*
X14405896Y-15038269D01*
X14405896Y-15038269D02*
X14310658Y-15057317D01*
X14577325Y-15123984D02*
X14577325Y-14923984D01*
X14577325Y-15114460D02*
X14558277Y-15123984D01*
X14558277Y-15123984D02*
X14520182Y-15123984D01*
X14520182Y-15123984D02*
X14501134Y-15114460D01*
X14501134Y-15114460D02*
X14491611Y-15104936D01*
X14491611Y-15104936D02*
X14482087Y-15085888D01*
X14482087Y-15085888D02*
X14482087Y-15028746D01*
X14482087Y-15028746D02*
X14491611Y-15009698D01*
X14491611Y-15009698D02*
X14501134Y-15000174D01*
X14501134Y-15000174D02*
X14520182Y-14990650D01*
X14520182Y-14990650D02*
X14558277Y-14990650D01*
X14558277Y-14990650D02*
X14577325Y-15000174D01*
X14653515Y-15200174D02*
X14663039Y-15190650D01*
X14663039Y-15190650D02*
X14682087Y-15162079D01*
X14682087Y-15162079D02*
X14691611Y-15143031D01*
X14691611Y-15143031D02*
X14701134Y-15114460D01*
X14701134Y-15114460D02*
X14710658Y-15066841D01*
X14710658Y-15066841D02*
X14710658Y-15028746D01*
X14710658Y-15028746D02*
X14701134Y-14981127D01*
X14701134Y-14981127D02*
X14691611Y-14952555D01*
X14691611Y-14952555D02*
X14682087Y-14933508D01*
X14682087Y-14933508D02*
X14663039Y-14904936D01*
X14663039Y-14904936D02*
X14653515Y-14895412D01*
M02*
