M48
; DRILL file {KiCad 9.0.4} date 2025-11-06T03:01:43+0530
; FORMAT={-:-/ absolute / metric / decimal}
; #@! TF.CreationDate,2025-11-06T03:01:43+05:30
; #@! TF.GenerationSoftware,Kicad,Pcbnew,9.0.4
; #@! TF.FileFunction,Plated,1,2,PTH
FMAT,2
METRIC
; #@! TA.AperFunction,Plated,PTH,ViaDrill
T1C0.500
; #@! TA.AperFunction,Plated,PTH,ComponentDrill
T2C1.000
; #@! TA.AperFunction,Plated,PTH,ComponentDrill
T3C1.020
; #@! TA.AperFunction,Plated,PTH,ComponentDrill
T4C3.200
%
G90
G05
T1
X137.9Y-66.0
X139.5Y-63.6
T2
X87.975Y-119.845
X87.975Y-122.385
X87.975Y-124.925
X91.8Y-61.0
X94.34Y-61.0
X96.88Y-61.0
X99.42Y-61.0
X114.32Y-131.6
X116.86Y-131.6
X119.4Y-131.6
X121.94Y-131.6
X139.46Y-115.0
X142.0Y-115.0
X146.375Y-58.49
X146.375Y-61.03
X146.375Y-63.57
X146.375Y-66.11
X146.375Y-68.65
X148.46Y-91.0
X151.0Y-91.0
X153.54Y-91.0
X157.1Y-68.02
X157.1Y-70.56
X157.1Y-73.1
X157.1Y-75.64
X157.1Y-78.18
X157.1Y-80.72
X159.6Y-111.92
X159.6Y-114.46
X159.6Y-117.0
X159.6Y-119.54
T3
X105.9Y-67.6
X105.9Y-70.14
X105.9Y-72.68
X105.9Y-75.22
X105.9Y-77.76
X105.9Y-80.3
X105.9Y-82.84
X105.9Y-85.38
X105.9Y-87.92
X105.9Y-90.46
X105.9Y-93.0
X105.9Y-95.54
X105.9Y-98.08
X105.9Y-100.62
X105.9Y-103.16
X131.3Y-67.6
X131.3Y-70.14
X131.3Y-72.68
X131.3Y-75.22
X131.3Y-77.76
X131.3Y-80.3
X131.3Y-82.84
X131.3Y-85.38
X131.3Y-87.92
X131.3Y-90.46
X131.3Y-93.0
X131.3Y-95.54
X131.3Y-98.08
X131.3Y-100.62
X131.3Y-103.16
T4
X84.0Y-57.0
X84.2Y-138.9
X161.2Y-57.1
X161.2Y-138.7
M30
