%TF.GenerationSoftware,KiCad,Pcbnew,9.0.4*%
%TF.CreationDate,2025-11-06T03:01:08+05:30*%
%TF.ProjectId,project005,70726f6a-6563-4743-9030-352e6b696361,rev?*%
%TF.SameCoordinates,Original*%
%TF.FileFunction,Copper,L1,Top*%
%TF.FilePolarity,Positive*%
%FSLAX46Y46*%
G04 Gerber Fmt 4.6, Leading zero omitted, Abs format (unit mm)*
G04 Created by KiCad (PCBNEW 9.0.4) date 2025-11-06 03:01:08*
%MOMM*%
%LPD*%
G01*
G04 APERTURE LIST*
%TA.AperFunction,ComponentPad*%
%ADD10C,6.400000*%
%TD*%
%TA.AperFunction,ComponentPad*%
%ADD11R,1.700000X1.700000*%
%TD*%
%TA.AperFunction,ComponentPad*%
%ADD12C,1.700000*%
%TD*%
%TA.AperFunction,ComponentPad*%
%ADD13R,2.000000X2.000000*%
%TD*%
%TA.AperFunction,ComponentPad*%
%ADD14C,2.000000*%
%TD*%
%TA.AperFunction,ViaPad*%
%ADD15C,1.000000*%
%TD*%
%TA.AperFunction,Conductor*%
%ADD16C,0.250000*%
%TD*%
%TA.AperFunction,Conductor*%
%ADD17C,0.800000*%
%TD*%
G04 APERTURE END LIST*
D10*
%TO.P,REF\u002A\u002A,1*%
%TO.N,N/C*%
X161200000Y-57100000D03*
%TD*%
D11*
%TO.P,Lightsensor1,1,Pin_1*%
%TO.N,VCC*%
X146375000Y-68650000D03*
D12*
%TO.P,Lightsensor1,2,Pin_2*%
%TO.N,Net-(Lightsensor1-Pin_2)*%
X146375000Y-66110000D03*
%TO.P,Lightsensor1,3,Pin_3*%
%TO.N,Net-(Lightsensor1-Pin_3)*%
X146375000Y-63570000D03*
%TO.P,Lightsensor1,4,Pin_4*%
%TO.N,GND*%
X146375000Y-61030000D03*
%TO.P,Lightsensor1,5,Pin_5*%
%TO.N,unconnected-(Lightsensor1-Pin_5-Pad5)*%
X146375000Y-58490000D03*
%TD*%
D10*
%TO.P,REF\u002A\u002A,1*%
%TO.N,N/C*%
X161200000Y-138700000D03*
%TD*%
%TO.P,REF\u002A\u002A,1*%
%TO.N,N/C*%
X84200000Y-138900000D03*
%TD*%
D11*
%TO.P,Waterlevel1,1,Pin_1*%
%TO.N,Net-(U1-D34)*%
X153540000Y-91000000D03*
D12*
%TO.P,Waterlevel1,2,Pin_2*%
%TO.N,VCC*%
X151000000Y-91000000D03*
%TO.P,Waterlevel1,3,Pin_3*%
%TO.N,GND*%
X148460000Y-91000000D03*
%TD*%
D10*
%TO.P,REF\u002A\u002A,1*%
%TO.N,N/C*%
X84000000Y-57000000D03*
%TD*%
D11*
%TO.P,DHT22,1,Pin_1*%
%TO.N,GND*%
X87975000Y-124925000D03*
D12*
%TO.P,DHT22,2,Pin_2*%
%TO.N,VCC*%
X87975000Y-122385000D03*
%TO.P,DHT22,3,Pin_3*%
%TO.N,Net-(DHT22-Pin_3)*%
X87975000Y-119845000D03*
%TD*%
D11*
%TO.P,OLED1,1,Pin_1*%
%TO.N,VCC*%
X91800000Y-61000000D03*
D12*
%TO.P,OLED1,2,Pin_2*%
%TO.N,GND*%
X94340000Y-61000000D03*
%TO.P,OLED1,3,Pin_3*%
%TO.N,Net-(Lightsensor1-Pin_2)*%
X96880000Y-61000000D03*
%TO.P,OLED1,4,Pin_4*%
%TO.N,Net-(Lightsensor1-Pin_3)*%
X99420000Y-61000000D03*
%TD*%
D11*
%TO.P,soilmoisture1,1,Pin_1*%
%TO.N,Net-(U1-VP)*%
X121940000Y-131600000D03*
D12*
%TO.P,soilmoisture1,2,Pin_2*%
%TO.N,unconnected-(soilmoisture1-Pin_2-Pad2)*%
X119400000Y-131600000D03*
%TO.P,soilmoisture1,3,Pin_3*%
%TO.N,GND*%
X116860000Y-131600000D03*
%TO.P,soilmoisture1,4,Pin_4*%
%TO.N,VCC*%
X114320000Y-131600000D03*
%TD*%
D11*
%TO.P,Relay1,1,Pin_1*%
%TO.N,Net-(Relay1-Pin_1)*%
X157100000Y-68020000D03*
D12*
%TO.P,Relay1,2,Pin_2*%
%TO.N,unconnected-(Relay1-Pin_2-Pad2)*%
X157100000Y-70560000D03*
%TO.P,Relay1,3,Pin_3*%
%TO.N,unconnected-(Relay1-Pin_3-Pad3)*%
X157100000Y-73100000D03*
%TO.P,Relay1,4,Pin_4*%
%TO.N,Net-(Relay1-Pin_4)*%
X157100000Y-75640000D03*
%TO.P,Relay1,5,Pin_5*%
%TO.N,Net-(Relay1-Pin_5)*%
X157100000Y-78180000D03*
%TO.P,Relay1,6,Pin_6*%
%TO.N,GND*%
X157100000Y-80720000D03*
%TD*%
D11*
%TO.P,buzzer1,1,Pin_1*%
%TO.N,GND*%
X142000000Y-115000000D03*
D12*
%TO.P,buzzer1,2,Pin_2*%
%TO.N,Net-(U1-D25)*%
X139460000Y-115000000D03*
%TD*%
D11*
%TO.P,J1,1,Pin_1*%
%TO.N,VCC*%
X159600000Y-119540000D03*
D12*
%TO.P,J1,2,Pin_2*%
%TO.N,GND*%
X159600000Y-117000000D03*
%TO.P,J1,3,Pin_3*%
%TO.N,unconnected-(J1-Pin_3-Pad3)*%
X159600000Y-114460000D03*
%TO.P,J1,4,Pin_4*%
%TO.N,Net-(J1-Pin_4)*%
X159600000Y-111920000D03*
%TD*%
D13*
%TO.P,U1,1,3V3*%
%TO.N,VCC*%
X105900000Y-67600000D03*
D14*
%TO.P,U1,2,GND*%
%TO.N,GND*%
X105900000Y-70140000D03*
%TO.P,U1,3,D15*%
%TO.N,unconnected-(U1-D15-Pad3)*%
X105900000Y-72680000D03*
%TO.P,U1,4,D2*%
%TO.N,unconnected-(U1-D2-Pad4)*%
X105900000Y-75220000D03*
%TO.P,U1,5,D4*%
%TO.N,unconnected-(U1-D4-Pad5)*%
X105900000Y-77760000D03*
%TO.P,U1,6,RX2*%
%TO.N,unconnected-(U1-RX2-Pad6)*%
X105900000Y-80300000D03*
%TO.P,U1,7,TX2*%
%TO.N,Net-(DHT22-Pin_3)*%
X105900000Y-82840000D03*
%TO.P,U1,8,D5*%
%TO.N,unconnected-(U1-D5-Pad8)*%
X105900000Y-85380000D03*
%TO.P,U1,9,D18*%
%TO.N,unconnected-(U1-D18-Pad9)*%
X105900000Y-87920000D03*
%TO.P,U1,10,D19*%
%TO.N,unconnected-(U1-D19-Pad10)*%
X105900000Y-90460000D03*
%TO.P,U1,11,D21*%
%TO.N,Net-(Lightsensor1-Pin_3)*%
X105900000Y-93000000D03*
%TO.P,U1,12,RX0*%
%TO.N,unconnected-(U1-RX0-Pad12)*%
X105900000Y-95540000D03*
%TO.P,U1,13,TX0*%
%TO.N,unconnected-(U1-TX0-Pad13)*%
X105900000Y-98080000D03*
%TO.P,U1,14,D22*%
%TO.N,Net-(Lightsensor1-Pin_2)*%
X105900000Y-100620000D03*
%TO.P,U1,15,D23*%
%TO.N,unconnected-(U1-D23-Pad15)*%
X105900000Y-103160000D03*
%TO.P,U1,16,EN*%
%TO.N,unconnected-(U1-EN-Pad16)*%
X131300000Y-103160000D03*
%TO.P,U1,17,VP*%
%TO.N,Net-(U1-VP)*%
X131300000Y-100620000D03*
%TO.P,U1,18,VN*%
%TO.N,Net-(J1-Pin_4)*%
X131300000Y-98080000D03*
%TO.P,U1,19,D34*%
%TO.N,Net-(U1-D34)*%
X131300000Y-95540000D03*
%TO.P,U1,20,D35*%
%TO.N,unconnected-(U1-D35-Pad20)*%
X131300000Y-93000000D03*
%TO.P,U1,21,D32*%
%TO.N,unconnected-(U1-D32-Pad21)*%
X131300000Y-90460000D03*
%TO.P,U1,22,D33*%
%TO.N,unconnected-(U1-D33-Pad22)*%
X131300000Y-87920000D03*
%TO.P,U1,23,D25*%
%TO.N,Net-(U1-D25)*%
X131300000Y-85380000D03*
%TO.P,U1,24,D26*%
%TO.N,Net-(Relay1-Pin_5)*%
X131300000Y-82840000D03*
%TO.P,U1,25,D27*%
%TO.N,Net-(Relay1-Pin_4)*%
X131300000Y-80300000D03*
%TO.P,U1,26,D14*%
%TO.N,unconnected-(U1-D14-Pad26)*%
X131300000Y-77760000D03*
%TO.P,U1,27,D12*%
%TO.N,unconnected-(U1-D12-Pad27)*%
X131300000Y-75220000D03*
%TO.P,U1,28,D13*%
%TO.N,unconnected-(U1-D13-Pad28)*%
X131300000Y-72680000D03*
%TO.P,U1,29,GND*%
%TO.N,GND*%
X131300000Y-70140000D03*
%TO.P,U1,30,VIN*%
%TO.N,Net-(Relay1-Pin_1)*%
X131300000Y-67600000D03*
%TD*%
D15*
%TO.N,Net-(Lightsensor1-Pin_2)*%
X137900000Y-66000000D03*
%TO.N,Net-(Lightsensor1-Pin_3)*%
X139500000Y-63600000D03*
%TD*%
D16*
%TO.N,Net-(DHT22-Pin_3)*%
X87975000Y-100765000D02*
X87975000Y-119845000D01*
X105900000Y-82840000D02*
X87975000Y-100765000D01*
%TO.N,Net-(Lightsensor1-Pin_2)*%
X137900000Y-66000000D02*
X127800000Y-66000000D01*
X122900000Y-70900000D02*
X122900000Y-83620000D01*
X122900000Y-83620000D02*
X105900000Y-100620000D01*
X127800000Y-66000000D02*
X122900000Y-70900000D01*
%TO.N,Net-(Lightsensor1-Pin_3)*%
X119000000Y-72100000D02*
X119000000Y-80300000D01*
X106300000Y-93000000D02*
X105900000Y-93000000D01*
X127500000Y-63600000D02*
X119000000Y-72100000D01*
X119000000Y-80300000D02*
X106300000Y-93000000D01*
X139500000Y-63600000D02*
X127500000Y-63600000D01*
D17*
%TO.N,Net-(Relay1-Pin_1)*%
X137600000Y-73900000D02*
X131300000Y-67600000D01*
X157100000Y-68020000D02*
X151220000Y-73900000D01*
X151220000Y-73900000D02*
X137600000Y-73900000D01*
D16*
%TO.N,Net-(Relay1-Pin_5)*%
X131300000Y-82840000D02*
X135960000Y-78180000D01*
X135960000Y-78180000D02*
X157100000Y-78180000D01*
%TO.N,Net-(Relay1-Pin_4)*%
X131300000Y-80300000D02*
X135960000Y-75640000D01*
X135960000Y-75640000D02*
X157100000Y-75640000D01*
%TO.N,Net-(U1-VP)*%
X128100000Y-125440000D02*
X128100000Y-103820000D01*
X128100000Y-103820000D02*
X131300000Y-100620000D01*
X121940000Y-131600000D02*
X128100000Y-125440000D01*
%TO.N,Net-(U1-D34)*%
X131300000Y-95540000D02*
X149000000Y-95540000D01*
X149000000Y-95540000D02*
X153540000Y-91000000D01*
%TO.N,GND*%
X87975000Y-124925000D02*
X110185000Y-124925000D01*
X157100000Y-80720000D02*
X157100000Y-82360000D01*
X101700000Y-70140000D02*
X105900000Y-70140000D01*
X157100000Y-82360000D02*
X148460000Y-91000000D01*
X105900000Y-70804752D02*
X105900000Y-70140000D01*
X94340000Y-61000000D02*
X94340000Y-62780000D01*
X94340000Y-62780000D02*
X101700000Y-70140000D01*
X110185000Y-124925000D02*
X116860000Y-131600000D01*
D17*
%TO.N,VCC*%
X139925000Y-62200000D02*
X114300000Y-62200000D01*
X146375000Y-68650000D02*
X139925000Y-62200000D01*
X114300000Y-62200000D02*
X108900000Y-67600000D01*
X108900000Y-67600000D02*
X105900000Y-67600000D01*
D16*
%TO.N,Net-(J1-Pin_4)*%
X131480000Y-98080000D02*
X145320000Y-111920000D01*
X131300000Y-98080000D02*
X131480000Y-97900000D01*
X145320000Y-111920000D02*
X159600000Y-111920000D01*
X131480000Y-97900000D02*
X131480000Y-98080000D01*
%TD*%
%TA.AperFunction,Conductor*%
%TO.N,GND*%
G36*
X165742539Y-52520185D02*
G01*
X165788294Y-52572989D01*
X165799500Y-52624500D01*
X165799500Y-143275500D01*
X165779815Y-143342539D01*
X165727011Y-143388294D01*
X165675500Y-143399500D01*
X79624500Y-143399500D01*
X79557461Y-143379815D01*
X79511706Y-143327011D01*
X79500500Y-143275500D01*
X79500500Y-138693646D01*
X79999500Y-138693646D01*
X79999500Y-139106353D01*
X80039952Y-139517084D01*
X80120464Y-139921848D01*
X80120467Y-139921859D01*
X80240274Y-140316814D01*
X80398214Y-140698113D01*
X80398216Y-140698118D01*
X80592759Y-141062081D01*
X80592770Y-141062099D01*
X80822052Y-141405244D01*
X80822062Y-141405258D01*
X81083885Y-141724291D01*
X81375708Y-142016114D01*
X81375713Y-142016118D01*
X81375714Y-142016119D01*
X81694747Y-142277942D01*
X82037907Y-142507234D01*
X82037916Y-142507239D01*
X82037918Y-142507240D01*
X82401881Y-142701783D01*
X82401883Y-142701783D01*
X82401889Y-142701787D01*
X82783187Y-142859726D01*
X83178131Y-142979530D01*
X83178137Y-142979531D01*
X83178140Y-142979532D01*
X83178151Y-142979535D01*
X83582915Y-143060047D01*
X83993643Y-143100500D01*
X83993646Y-143100500D01*
X84406354Y-143100500D01*
X84406357Y-143100500D01*
X84817085Y-143060047D01*
X84895884Y-143044372D01*
X85221848Y-142979535D01*
X85221859Y-142979532D01*
X85221859Y-142979531D01*
X85221869Y-142979530D01*
X85616813Y-142859726D01*
X85998111Y-142701787D01*
X86362093Y-142507234D01*
X86705253Y-142277942D01*
X87024286Y-142016119D01*
X87316119Y-141724286D01*
X87577942Y-141405253D01*
X87807234Y-141062093D01*
X88001787Y-140698111D01*
X88159726Y-140316813D01*
X88279530Y-139921869D01*
X88279532Y-139921859D01*
X88279535Y-139921848D01*
X88360047Y-139517084D01*
X88400500Y-139106353D01*
X88400500Y-138693646D01*
X88381699Y-138502753D01*
X88380802Y-138493646D01*
X156999500Y-138493646D01*
X156999500Y-138906353D01*
X157039952Y-139317084D01*
X157120464Y-139721848D01*
X157120467Y-139721859D01*
X157240274Y-140116814D01*
X157398214Y-140498113D01*
X157398216Y-140498118D01*
X157592759Y-140862081D01*
X157592770Y-140862099D01*
X157822052Y-141205244D01*
X157822062Y-141205258D01*
X158083885Y-141524291D01*
X158375708Y-141816114D01*
X158375713Y-141816118D01*
X158375714Y-141816119D01*
X158694747Y-142077942D01*
X159037907Y-142307234D01*
X159037916Y-142307239D01*
X159037918Y-142307240D01*
X159401881Y-142501783D01*
X159401883Y-142501783D01*
X159401889Y-142501787D01*
X159783187Y-142659726D01*
X160178131Y-142779530D01*
X160178137Y-142779531D01*
X160178140Y-142779532D01*
X160178151Y-142779535D01*
X160581296Y-142859725D01*
X160582915Y-142860047D01*
X160993643Y-142900500D01*
X160993646Y-142900500D01*
X161406354Y-142900500D01*
X161406357Y-142900500D01*
X161817085Y-142860047D01*
X161895884Y-142844372D01*
X162221848Y-142779535D01*
X162221859Y-142779532D01*
X162221859Y-142779531D01*
X162221869Y-142779530D01*
X162616813Y-142659726D01*
X162998111Y-142501787D01*
X163362093Y-142307234D01*
X163705253Y-142077942D01*
X164024286Y-141816119D01*
X164316119Y-141524286D01*
X164577942Y-141205253D01*
X164807234Y-140862093D01*
X165001787Y-140498111D01*
X165159726Y-140116813D01*
X165279530Y-139721869D01*
X165279532Y-139721859D01*
X165279535Y-139721848D01*
X165360047Y-139317084D01*
X165400500Y-138906353D01*
X165400500Y-138493646D01*
X165360047Y-138082915D01*
X165279535Y-137678151D01*
X165279532Y-137678140D01*
X165279531Y-137678137D01*
X165279530Y-137678131D01*
X165159726Y-137283187D01*
X165001787Y-136901889D01*
X164914142Y-136737918D01*
X164807240Y-136537918D01*
X164807239Y-136537916D01*
X164807234Y-136537907D01*
X164577942Y-136194747D01*
X164316119Y-135875714D01*
X164316118Y-135875713D01*
X164316114Y-135875708D01*
X164024291Y-135583885D01*
X163705258Y-135322062D01*
X163705257Y-135322061D01*
X163705253Y-135322058D01*
X163362093Y-135092766D01*
X163362088Y-135092763D01*
X163362081Y-135092759D01*
X162998118Y-134898216D01*
X162998113Y-134898214D01*
X162616814Y-134740274D01*
X162221859Y-134620467D01*
X162221848Y-134620464D01*
X161817084Y-134539952D01*
X161507741Y-134509485D01*
X161406357Y-134499500D01*
X160993643Y-134499500D01*
X160899966Y-134508726D01*
X160582915Y-134539952D01*
X160178151Y-134620464D01*
X160178140Y-134620467D01*
X159783185Y-134740274D01*
X159401886Y-134898214D01*
X159401881Y-134898216D01*
X159037918Y-135092759D01*
X159037900Y-135092770D01*
X158694755Y-135322052D01*
X158694741Y-135322062D01*
X158375708Y-135583885D01*
X158083885Y-135875708D01*
X157822062Y-136194741D01*
X157822052Y-136194755D01*
X157592770Y-136537900D01*
X157592759Y-136537918D01*
X157398216Y-136901881D01*
X157398214Y-136901886D01*
X157240274Y-137283185D01*
X157120467Y-137678140D01*
X157120464Y-137678151D01*
X157039952Y-138082915D01*
X156999500Y-138493646D01*
X88380802Y-138493646D01*
X88360047Y-138282915D01*
X88279535Y-137878151D01*
X88279532Y-137878140D01*
X88279531Y-137878137D01*
X88279530Y-137878131D01*
X88159726Y-137483187D01*
X88001787Y-137101889D01*
X87894884Y-136901889D01*
X87807240Y-136737918D01*
X87807239Y-136737916D01*
X87807234Y-136737907D01*
X87577942Y-136394747D01*
X87316119Y-136075714D01*
X87316118Y-136075713D01*
X87316114Y-136075708D01*
X87024291Y-135783885D01*
X86705258Y-135522062D01*
X86705257Y-135522061D01*
X86705253Y-135522058D01*
X86362093Y-135292766D01*
X86362088Y-135292763D01*
X86362081Y-135292759D01*
X85998118Y-135098216D01*
X85998113Y-135098214D01*
X85984960Y-135092766D01*
X85886433Y-135051954D01*
X85616814Y-134940274D01*
X85221859Y-134820467D01*
X85221848Y-134820464D01*
X84817084Y-134739952D01*
X84507741Y-134709485D01*
X84406357Y-134699500D01*
X83993643Y-134699500D01*
X83899966Y-134708726D01*
X83582915Y-134739952D01*
X83178151Y-134820464D01*
X83178140Y-134820467D01*
X82783185Y-134940274D01*
X82401886Y-135098214D01*
X82401881Y-135098216D01*
X82037918Y-135292759D01*
X82037900Y-135292770D01*
X81694755Y-135522052D01*
X81694741Y-135522062D01*
X81375708Y-135783885D01*
X81083885Y-136075708D01*
X80822062Y-136394741D01*
X80822052Y-136394755D01*
X80592770Y-136737900D01*
X80592759Y-136737918D01*
X80398216Y-137101881D01*
X80398214Y-137101886D01*
X80240274Y-137483185D01*
X80120467Y-137878140D01*
X80120464Y-137878151D01*
X80039952Y-138282915D01*
X79999500Y-138693646D01*
X79500500Y-138693646D01*
X79500500Y-119723711D01*
X86124500Y-119723711D01*
X86124500Y-119966288D01*
X86156161Y-120206785D01*
X86218947Y-120441104D01*
X86271268Y-120567418D01*
X86311776Y-120665212D01*
X86433064Y-120875289D01*
X86433066Y-120875292D01*
X86433067Y-120875293D01*
X86559077Y-121039514D01*
X86584271Y-121104683D01*
X86570232Y-121173128D01*
X86559077Y-121190486D01*
X86433067Y-121354706D01*
X86311777Y-121564785D01*
X86311773Y-121564794D01*
X86218947Y-121788895D01*
X86156161Y-122023214D01*
X86124500Y-122263711D01*
X86124500Y-122506288D01*
X86156161Y-122746785D01*
X86218947Y-122981104D01*
X86311773Y-123205205D01*
X86311776Y-123205212D01*
X86433064Y-123415289D01*
X86433066Y-123415292D01*
X86433067Y-123415293D01*
X86580733Y-123607736D01*
X86580739Y-123607743D01*
X86659896Y-123686900D01*
X86693381Y-123748223D01*
X86688397Y-123817915D01*
X86682082Y-123831741D01*
X86631403Y-123967620D01*
X86631401Y-123967627D01*
X86625000Y-124027155D01*
X86625000Y-124675000D01*
X87541988Y-124675000D01*
X87509075Y-124732007D01*
X87475000Y-124859174D01*
X87475000Y-124990826D01*
X87509075Y-125117993D01*
X87541988Y-125175000D01*
X86625000Y-125175000D01*
X86625000Y-125822844D01*
X86631401Y-125882372D01*
X86631403Y-125882379D01*
X86681645Y-126017086D01*
X86681649Y-126017093D01*
X86767809Y-126132187D01*
X86767812Y-126132190D01*
X86882906Y-126218350D01*
X86882913Y-126218354D01*
X87017620Y-126268596D01*
X87017627Y-126268598D01*
X87077155Y-126274999D01*
X87077172Y-126275000D01*
X87725000Y-126275000D01*
X87725000Y-125358012D01*
X87782007Y-125390925D01*
X87909174Y-125425000D01*
X88040826Y-125425000D01*
X88167993Y-125390925D01*
X88225000Y-125358012D01*
X88225000Y-126275000D01*
X88872828Y-126275000D01*
X88872844Y-126274999D01*
X88932372Y-126268598D01*
X88932379Y-126268596D01*
X89067086Y-126218354D01*
X89067093Y-126218350D01*
X89182187Y-126132190D01*
X89182190Y-126132187D01*
X89268350Y-126017093D01*
X89268354Y-126017086D01*
X89318596Y-125882379D01*
X89318598Y-125882372D01*
X89324999Y-125822844D01*
X89325000Y-125822827D01*
X89325000Y-125175000D01*
X88408012Y-125175000D01*
X88440925Y-125117993D01*
X88475000Y-124990826D01*
X88475000Y-124859174D01*
X88440925Y-124732007D01*
X88408012Y-124675000D01*
X89325000Y-124675000D01*
X89325000Y-124027172D01*
X89324999Y-124027155D01*
X89318598Y-123967627D01*
X89318596Y-123967620D01*
X89265254Y-123824601D01*
X89266781Y-123824031D01*
X89254100Y-123765735D01*
X89278516Y-123700270D01*
X89290090Y-123686912D01*
X89369265Y-123607738D01*
X89516936Y-123415289D01*
X89638224Y-123205212D01*
X89731054Y-122981100D01*
X89793838Y-122746789D01*
X89825500Y-122506288D01*
X89825500Y-122263712D01*
X89793838Y-122023211D01*
X89731054Y-121788900D01*
X89638224Y-121564788D01*
X89516936Y-121354711D01*
X89390922Y-121190486D01*
X89365728Y-121125317D01*
X89379766Y-121056872D01*
X89390922Y-121039514D01*
X89392099Y-121037979D01*
X89516936Y-120875289D01*
X89638224Y-120665212D01*
X89731054Y-120441100D01*
X89793838Y-120206789D01*
X89825500Y-119966288D01*
X89825500Y-119723712D01*
X89793838Y-119483211D01*
X89731054Y-119248900D01*
X89638224Y-119024788D01*
X89516936Y-118814711D01*
X89376711Y-118631966D01*
X89369266Y-118622263D01*
X89369260Y-118622256D01*
X89197745Y-118450741D01*
X89197740Y-118450737D01*
X89197738Y-118450735D01*
X89149011Y-118413345D01*
X89107810Y-118356917D01*
X89100500Y-118314971D01*
X89100500Y-101282558D01*
X89120185Y-101215519D01*
X89136814Y-101194882D01*
X103974162Y-86357533D01*
X103993016Y-86347238D01*
X104009101Y-86332991D01*
X104023073Y-86330826D01*
X104035483Y-86324050D01*
X104056914Y-86325582D01*
X104078146Y-86322293D01*
X104091069Y-86328025D01*
X104105175Y-86329034D01*
X104122377Y-86341911D01*
X104142015Y-86350622D01*
X104155353Y-86366598D01*
X104161108Y-86370906D01*
X104165418Y-86377041D01*
X104167418Y-86380080D01*
X104233076Y-86493803D01*
X104297734Y-86578066D01*
X104300208Y-86581825D01*
X104309158Y-86611118D01*
X104320201Y-86639683D01*
X104319270Y-86644217D01*
X104320624Y-86648646D01*
X104312313Y-86678135D01*
X104306162Y-86708128D01*
X104302065Y-86714501D01*
X104301673Y-86715896D01*
X104300505Y-86716930D01*
X104295007Y-86725486D01*
X104233075Y-86806197D01*
X104101958Y-87033299D01*
X104101953Y-87033309D01*
X104001605Y-87275571D01*
X104001602Y-87275581D01*
X103933730Y-87528885D01*
X103899500Y-87788872D01*
X103899500Y-88051127D01*
X103926123Y-88253339D01*
X103933730Y-88311116D01*
X104001602Y-88564418D01*
X104001605Y-88564428D01*
X104101953Y-88806690D01*
X104101958Y-88806700D01*
X104233075Y-89033802D01*
X104295007Y-89114514D01*
X104320201Y-89179683D01*
X104306162Y-89248128D01*
X104295007Y-89265486D01*
X104233075Y-89346197D01*
X104101958Y-89573299D01*
X104101953Y-89573309D01*
X104001605Y-89815571D01*
X104001602Y-89815581D01*
X103959534Y-89972584D01*
X103933730Y-90068885D01*
X103899500Y-90328872D01*
X103899500Y-90591127D01*
X103911711Y-90683872D01*
X103933730Y-90851116D01*
X104001602Y-91104418D01*
X104001605Y-91104428D01*
X104101953Y-91346690D01*
X104101958Y-91346700D01*
X104233075Y-91573802D01*
X104295007Y-91654514D01*
X104320201Y-91719683D01*
X104306162Y-91788128D01*
X104295007Y-91805486D01*
X104233075Y-91886197D01*
X104101958Y-92113299D01*
X104101953Y-92113309D01*
X104001605Y-92355571D01*
X104001602Y-92355581D01*
X103933730Y-92608885D01*
X103899500Y-92868872D01*
X103899500Y-93131127D01*
X103926123Y-93333339D01*
X103933730Y-93391116D01*
X104001602Y-93644418D01*
X104001605Y-93644428D01*
X104101953Y-93886690D01*
X104101958Y-93886700D01*
X104233075Y-94113802D01*
X104295007Y-94194514D01*
X104320201Y-94259683D01*
X104306162Y-94328128D01*
X104295007Y-94345486D01*
X104233075Y-94426197D01*
X104101958Y-94653299D01*
X104101953Y-94653309D01*
X104001605Y-94895571D01*
X104001602Y-94895581D01*
X103933730Y-95148885D01*
X103899500Y-95408872D01*
X103899500Y-95671127D01*
X103926123Y-95873339D01*
X103933730Y-95931116D01*
X104001602Y-96184418D01*
X104001605Y-96184428D01*
X104101953Y-96426690D01*
X104101958Y-96426700D01*
X104233075Y-96653802D01*
X104295007Y-96734514D01*
X104320201Y-96799683D01*
X104306162Y-96868128D01*
X104295007Y-96885486D01*
X104233075Y-96966197D01*
X104101958Y-97193299D01*
X104101953Y-97193309D01*
X104001605Y-97435571D01*
X104001602Y-97435581D01*
X103933730Y-97688885D01*
X103899500Y-97948872D01*
X103899500Y-98211127D01*
X103910864Y-98297438D01*
X103933730Y-98471116D01*
X104001602Y-98724418D01*
X104001605Y-98724428D01*
X104101953Y-98966690D01*
X104101958Y-98966700D01*
X104233075Y-99193802D01*
X104295007Y-99274514D01*
X104320201Y-99339683D01*
X104306162Y-99408128D01*
X104295007Y-99425486D01*
X104233075Y-99506197D01*
X104101958Y-99733299D01*
X104101953Y-99733309D01*
X104001605Y-99975571D01*
X104001602Y-99975581D01*
X103933730Y-100228884D01*
X103929926Y-100257772D01*
X103899500Y-100488872D01*
X103899500Y-100751127D01*
X103923823Y-100935869D01*
X103933730Y-101011116D01*
X104001602Y-101264418D01*
X104001605Y-101264428D01*
X104101953Y-101506690D01*
X104101958Y-101506700D01*
X104233075Y-101733802D01*
X104295007Y-101814514D01*
X104320201Y-101879683D01*
X104306162Y-101948128D01*
X104295007Y-101965486D01*
X104233075Y-102046197D01*
X104101958Y-102273299D01*
X104101953Y-102273309D01*
X104001605Y-102515571D01*
X104001602Y-102515581D01*
X103963499Y-102657786D01*
X103933730Y-102768885D01*
X103899500Y-103028872D01*
X103899500Y-103291127D01*
X103926123Y-103493339D01*
X103933730Y-103551116D01*
X104001602Y-103804418D01*
X104001605Y-103804428D01*
X104101953Y-104046690D01*
X104101958Y-104046700D01*
X104233075Y-104273803D01*
X104392718Y-104481851D01*
X104392726Y-104481860D01*
X104578140Y-104667274D01*
X104578148Y-104667281D01*
X104786196Y-104826924D01*
X105013299Y-104958041D01*
X105013314Y-104958048D01*
X105177254Y-105025954D01*
X105231658Y-105069795D01*
X105253723Y-105136089D01*
X105236444Y-105203788D01*
X105205291Y-105238889D01*
X105163334Y-105271085D01*
X105001081Y-105433338D01*
X104861392Y-105615382D01*
X104746657Y-105814109D01*
X104746650Y-105814123D01*
X104658842Y-106026112D01*
X104599453Y-106247759D01*
X104599451Y-106247770D01*
X104569500Y-106475258D01*
X104569500Y-106704741D01*
X104594446Y-106894215D01*
X104599452Y-106932238D01*
X104599453Y-106932240D01*
X104658842Y-107153887D01*
X104746650Y-107365876D01*
X104746657Y-107365890D01*
X104861392Y-107564617D01*
X105001081Y-107746661D01*
X105001089Y-107746670D01*
X105163330Y-107908911D01*
X105163338Y-107908918D01*
X105345382Y-108048607D01*
X105345385Y-108048608D01*
X105345388Y-108048611D01*
X105544112Y-108163344D01*
X105544117Y-108163346D01*
X105544123Y-108163349D01*
X105635480Y-108201190D01*
X105756113Y-108251158D01*
X105977762Y-108310548D01*
X106205266Y-108340500D01*
X106205273Y-108340500D01*
X106434727Y-108340500D01*
X106434734Y-108340500D01*
X106662238Y-108310548D01*
X106883887Y-108251158D01*
X107095888Y-108163344D01*
X107294612Y-108048611D01*
X107476661Y-107908919D01*
X107476665Y-107908914D01*
X107476670Y-107908911D01*
X107638911Y-107746670D01*
X107638916Y-107746664D01*
X107638919Y-107746661D01*
X107778611Y-107564612D01*
X107893344Y-107365888D01*
X107981158Y-107153887D01*
X108040548Y-106932238D01*
X108070500Y-106704734D01*
X108070500Y-106475266D01*
X108040548Y-106247762D01*
X107981158Y-106026113D01*
X107893344Y-105814112D01*
X107778611Y-105615388D01*
X107778608Y-105615385D01*
X107778607Y-105615382D01*
X107638918Y-105433338D01*
X107638911Y-105433330D01*
X107476670Y-105271089D01*
X107476661Y-105271081D01*
X107294617Y-105131392D01*
X107285570Y-105126169D01*
X107180052Y-105065248D01*
X107095890Y-105016657D01*
X107095873Y-105016648D01*
X107080423Y-105010249D01*
X107026020Y-104966408D01*
X107003956Y-104900113D01*
X107021236Y-104832414D01*
X107052387Y-104797316D01*
X107221851Y-104667282D01*
X107221856Y-104667276D01*
X107221860Y-104667274D01*
X107407274Y-104481860D01*
X107407277Y-104481855D01*
X107407282Y-104481851D01*
X107566924Y-104273803D01*
X107698043Y-104046697D01*
X107798398Y-103804419D01*
X107866270Y-103551116D01*
X107900500Y-103291120D01*
X107900500Y-103028880D01*
X107866270Y-102768884D01*
X107798398Y-102515581D01*
X107798394Y-102515571D01*
X107698046Y-102273309D01*
X107698041Y-102273299D01*
X107566927Y-102046203D01*
X107566924Y-102046197D01*
X107504991Y-101965485D01*
X107479797Y-101900319D01*
X107493835Y-101831874D01*
X107504991Y-101814514D01*
X107566924Y-101733803D01*
X107698043Y-101506697D01*
X107798398Y-101264419D01*
X107866270Y-101011116D01*
X107900500Y-100751120D01*
X107900500Y-100488880D01*
X107900500Y-100488876D01*
X107876176Y-100304128D01*
X107886941Y-100235093D01*
X107911431Y-100200264D01*
X123758484Y-84353214D01*
X123862614Y-84209890D01*
X123943042Y-84052042D01*
X123997786Y-83883555D01*
X124025500Y-83708578D01*
X124025500Y-83531421D01*
X124025500Y-71417559D01*
X124045185Y-71350520D01*
X124061819Y-71329878D01*
X128229878Y-67161819D01*
X128291201Y-67128334D01*
X128317559Y-67125500D01*
X129203313Y-67125500D01*
X129270352Y-67145185D01*
X129316107Y-67197989D01*
X129326252Y-67265686D01*
X129299500Y-67468872D01*
X129299500Y-67731127D01*
X129313641Y-67838531D01*
X129333730Y-67991116D01*
X129401602Y-68244418D01*
X129401605Y-68244428D01*
X129501953Y-68486690D01*
X129501958Y-68486700D01*
X129633075Y-68713803D01*
X129792718Y-68921851D01*
X129792726Y-68921860D01*
X129978143Y-69107277D01*
X129978150Y-69107283D01*
X130022323Y-69141178D01*
X130063526Y-69197605D01*
X130067681Y-69267351D01*
X130047157Y-69312437D01*
X130017084Y-69353830D01*
X129909897Y-69564197D01*
X129836934Y-69788752D01*
X129800000Y-70021947D01*
X129800000Y-70258052D01*
X129836934Y-70491247D01*
X129909897Y-70715802D01*
X130017087Y-70926174D01*
X130047155Y-70967560D01*
X130070635Y-71033366D01*
X130054809Y-71101420D01*
X130022325Y-71138819D01*
X129978151Y-71172716D01*
X129978140Y-71172726D01*
X129792718Y-71358148D01*
X129633075Y-71566196D01*
X129501958Y-71793299D01*
X129501953Y-71793309D01*
X129401605Y-72035571D01*
X129401602Y-72035581D01*
X129336168Y-72279788D01*
X129333730Y-72288885D01*
X129299500Y-72548872D01*
X129299500Y-72811127D01*
X129321564Y-72978711D01*
X129333730Y-73071116D01*
X129401602Y-73324418D01*
X129401605Y-73324428D01*
X129501953Y-73566690D01*
X129501958Y-73566700D01*
X129633075Y-73793802D01*
X129695007Y-73874514D01*
X129720201Y-73939683D01*
X129706162Y-74008128D01*
X129695007Y-74025486D01*
X129633075Y-74106197D01*
X129501958Y-74333299D01*
X129501953Y-74333309D01*
X129401605Y-74575571D01*
X129401602Y-74575581D01*
X129336168Y-74819788D01*
X129333730Y-74828885D01*
X129299500Y-75088872D01*
X129299500Y-75351127D01*
X129321564Y-75518711D01*
X129333730Y-75611116D01*
X129401602Y-75864418D01*
X129401605Y-75864428D01*
X129501953Y-76106690D01*
X129501958Y-76106700D01*
X129633075Y-76333802D01*
X129695007Y-76414514D01*
X129720201Y-76479683D01*
X129706162Y-76548128D01*
X129695007Y-76565486D01*
X129633075Y-76646197D01*
X129501958Y-76873299D01*
X129501953Y-76873309D01*
X129401605Y-77115571D01*
X129401602Y-77115581D01*
X129336168Y-77359788D01*
X129333730Y-77368885D01*
X129299500Y-77628872D01*
X129299500Y-77891127D01*
X129321564Y-78058711D01*
X129333730Y-78151116D01*
X129401602Y-78404418D01*
X129401605Y-78404428D01*
X129501953Y-78646690D01*
X129501958Y-78646700D01*
X129633075Y-78873802D01*
X129695007Y-78954514D01*
X129720201Y-79019683D01*
X129706162Y-79088128D01*
X129695007Y-79105486D01*
X129633075Y-79186197D01*
X129501958Y-79413299D01*
X129501953Y-79413309D01*
X129401605Y-79655571D01*
X129401602Y-79655581D01*
X129344117Y-79870121D01*
X129333730Y-79908885D01*
X129299500Y-80168872D01*
X129299500Y-80431127D01*
X129312124Y-80527007D01*
X129333730Y-80691116D01*
X129401602Y-80944418D01*
X129401605Y-80944428D01*
X129501953Y-81186690D01*
X129501958Y-81186700D01*
X129633075Y-81413802D01*
X129695007Y-81494514D01*
X129720201Y-81559683D01*
X129706162Y-81628128D01*
X129695007Y-81645486D01*
X129633075Y-81726197D01*
X129501958Y-81953299D01*
X129501953Y-81953309D01*
X129401605Y-82195571D01*
X129401602Y-82195581D01*
X129333730Y-82448884D01*
X129329926Y-82477772D01*
X129299500Y-82708872D01*
X129299500Y-82971127D01*
X129316789Y-83102440D01*
X129333730Y-83231116D01*
X129341399Y-83259736D01*
X129401602Y-83484418D01*
X129401605Y-83484428D01*
X129501953Y-83726690D01*
X129501958Y-83726700D01*
X129633075Y-83953802D01*
X129695007Y-84034514D01*
X129720201Y-84099683D01*
X129706162Y-84168128D01*
X129695007Y-84185486D01*
X129633075Y-84266197D01*
X129501958Y-84493299D01*
X129501953Y-84493309D01*
X129401605Y-84735571D01*
X129401602Y-84735581D01*
X129333730Y-84988885D01*
X129299500Y-85248872D01*
X129299500Y-85511127D01*
X129326123Y-85713339D01*
X129333730Y-85771116D01*
X129401602Y-86024418D01*
X129401605Y-86024428D01*
X129501953Y-86266690D01*
X129501958Y-86266700D01*
X129633075Y-86493802D01*
X129695007Y-86574514D01*
X129720201Y-86639683D01*
X129706162Y-86708128D01*
X129695007Y-86725486D01*
X129633075Y-86806197D01*
X129501958Y-87033299D01*
X129501953Y-87033309D01*
X129401605Y-87275571D01*
X129401602Y-87275581D01*
X129333730Y-87528885D01*
X129299500Y-87788872D01*
X129299500Y-88051127D01*
X129326123Y-88253339D01*
X129333730Y-88311116D01*
X129401602Y-88564418D01*
X129401605Y-88564428D01*
X129501953Y-88806690D01*
X129501958Y-88806700D01*
X129633075Y-89033802D01*
X129695007Y-89114514D01*
X129720201Y-89179683D01*
X129706162Y-89248128D01*
X129695007Y-89265486D01*
X129633075Y-89346197D01*
X129501958Y-89573299D01*
X129501953Y-89573309D01*
X129401605Y-89815571D01*
X129401602Y-89815581D01*
X129359534Y-89972584D01*
X129333730Y-90068885D01*
X129299500Y-90328872D01*
X129299500Y-90591127D01*
X129311711Y-90683872D01*
X129333730Y-90851116D01*
X129401602Y-91104418D01*
X129401605Y-91104428D01*
X129501953Y-91346690D01*
X129501958Y-91346700D01*
X129633075Y-91573802D01*
X129695007Y-91654514D01*
X129720201Y-91719683D01*
X129706162Y-91788128D01*
X129695007Y-91805486D01*
X129633075Y-91886197D01*
X129501958Y-92113299D01*
X129501953Y-92113309D01*
X129401605Y-92355571D01*
X129401602Y-92355581D01*
X129333730Y-92608885D01*
X129299500Y-92868872D01*
X129299500Y-93131127D01*
X129326123Y-93333339D01*
X129333730Y-93391116D01*
X129401602Y-93644418D01*
X129401605Y-93644428D01*
X129501953Y-93886690D01*
X129501958Y-93886700D01*
X129633075Y-94113802D01*
X129695007Y-94194514D01*
X129720201Y-94259683D01*
X129706162Y-94328128D01*
X129695007Y-94345486D01*
X129633075Y-94426197D01*
X129501958Y-94653299D01*
X129501953Y-94653309D01*
X129401605Y-94895571D01*
X129401602Y-94895581D01*
X129333730Y-95148885D01*
X129299500Y-95408872D01*
X129299500Y-95671127D01*
X129326123Y-95873339D01*
X129333730Y-95931116D01*
X129401602Y-96184418D01*
X129401605Y-96184428D01*
X129501953Y-96426690D01*
X129501958Y-96426700D01*
X129633075Y-96653802D01*
X129695007Y-96734514D01*
X129720201Y-96799683D01*
X129706162Y-96868128D01*
X129695007Y-96885486D01*
X129633075Y-96966197D01*
X129501958Y-97193299D01*
X129501953Y-97193309D01*
X129401605Y-97435571D01*
X129401602Y-97435581D01*
X129333730Y-97688885D01*
X129299500Y-97948872D01*
X129299500Y-98211127D01*
X129310864Y-98297438D01*
X129333730Y-98471116D01*
X129401602Y-98724418D01*
X129401605Y-98724428D01*
X129501953Y-98966690D01*
X129501958Y-98966700D01*
X129633075Y-99193802D01*
X129695007Y-99274514D01*
X129720201Y-99339683D01*
X129706162Y-99408128D01*
X129695007Y-99425486D01*
X129633075Y-99506197D01*
X129501958Y-99733299D01*
X129501953Y-99733309D01*
X129401605Y-99975571D01*
X129401602Y-99975581D01*
X129333730Y-100228884D01*
X129329926Y-100257772D01*
X129299500Y-100488872D01*
X129299500Y-100751127D01*
X129323823Y-100935869D01*
X129313058Y-101004905D01*
X129288565Y-101039736D01*
X127591681Y-102736621D01*
X127530358Y-102770106D01*
X127460666Y-102765122D01*
X127404733Y-102723250D01*
X127380316Y-102657786D01*
X127380000Y-102648940D01*
X127380000Y-102100000D01*
X109690000Y-102100000D01*
X109690000Y-108590000D01*
X126850500Y-108590000D01*
X126917539Y-108609685D01*
X126963294Y-108662489D01*
X126974500Y-108714000D01*
X126974500Y-124922440D01*
X126954815Y-124989479D01*
X126938181Y-125010121D01*
X122235120Y-129713181D01*
X122173797Y-129746666D01*
X122147439Y-129749500D01*
X121031971Y-129749500D01*
X121031965Y-129749500D01*
X121031964Y-129749501D01*
X121020316Y-129750536D01*
X120912584Y-129760113D01*
X120716954Y-129816089D01*
X120536591Y-129910303D01*
X120452718Y-129978692D01*
X120388321Y-130005800D01*
X120319492Y-129993790D01*
X120312358Y-129989976D01*
X120220215Y-129936777D01*
X120220205Y-129936773D01*
X119996104Y-129843947D01*
X119761785Y-129781161D01*
X119521289Y-129749500D01*
X119521288Y-129749500D01*
X119278712Y-129749500D01*
X119278711Y-129749500D01*
X119038214Y-129781161D01*
X118803895Y-129843947D01*
X118579794Y-129936773D01*
X118579785Y-129936777D01*
X118369706Y-130058067D01*
X118177263Y-130205733D01*
X118177256Y-130205739D01*
X118005739Y-130377256D01*
X118005733Y-130377263D01*
X117888869Y-130529564D01*
X117832441Y-130570767D01*
X117762695Y-130574922D01*
X117717608Y-130554396D01*
X117567557Y-130445379D01*
X117378217Y-130348904D01*
X117176129Y-130283242D01*
X116966246Y-130250000D01*
X116753754Y-130250000D01*
X116543872Y-130283242D01*
X116543869Y-130283242D01*
X116341782Y-130348904D01*
X116152446Y-130445376D01*
X116002391Y-130554397D01*
X115936584Y-130577876D01*
X115868530Y-130562050D01*
X115831130Y-130529564D01*
X115714266Y-130377263D01*
X115714260Y-130377256D01*
X115542743Y-130205739D01*
X115542736Y-130205733D01*
X115350293Y-130058067D01*
X115350292Y-130058066D01*
X115350289Y-130058064D01*
X115140212Y-129936776D01*
X115140205Y-129936773D01*
X114916104Y-129843947D01*
X114681785Y-129781161D01*
X114441289Y-129749500D01*
X114441288Y-129749500D01*
X114198712Y-129749500D01*
X114198711Y-129749500D01*
X113958214Y-129781161D01*
X113723895Y-129843947D01*
X113499794Y-129936773D01*
X113499785Y-129936777D01*
X113289706Y-130058067D01*
X113097263Y-130205733D01*
X113097256Y-130205739D01*
X112925739Y-130377256D01*
X112925733Y-130377263D01*
X112778067Y-130569706D01*
X112778064Y-130569710D01*
X112778064Y-130569711D01*
X112773350Y-130577876D01*
X112656777Y-130779785D01*
X112656773Y-130779794D01*
X112563947Y-131003895D01*
X112501161Y-131238214D01*
X112469500Y-131478711D01*
X112469500Y-131721288D01*
X112501161Y-131961785D01*
X112563947Y-132196104D01*
X112656773Y-132420205D01*
X112656776Y-132420212D01*
X112778064Y-132630289D01*
X112778066Y-132630292D01*
X112778067Y-132630293D01*
X112925733Y-132822736D01*
X112925739Y-132822743D01*
X113097256Y-132994260D01*
X113097263Y-132994266D01*
X113210321Y-133081018D01*
X113289711Y-133141936D01*
X113499788Y-133263224D01*
X113723900Y-133356054D01*
X113958211Y-133418838D01*
X114138586Y-133442584D01*
X114198711Y-133450500D01*
X114198712Y-133450500D01*
X114441289Y-133450500D01*
X114489388Y-133444167D01*
X114681789Y-133418838D01*
X114916100Y-133356054D01*
X115140212Y-133263224D01*
X115350289Y-133141936D01*
X115542738Y-132994265D01*
X115714265Y-132822738D01*
X115831132Y-132670433D01*
X115887557Y-132629232D01*
X115957303Y-132625077D01*
X116002391Y-132645603D01*
X116152442Y-132754620D01*
X116341782Y-132851095D01*
X116543870Y-132916757D01*
X116753754Y-132950000D01*
X116966246Y-132950000D01*
X117176127Y-132916757D01*
X117176130Y-132916757D01*
X117378217Y-132851095D01*
X117567554Y-132754622D01*
X117717606Y-132645603D01*
X117783413Y-132622123D01*
X117851467Y-132637948D01*
X117888868Y-132670434D01*
X118005733Y-132822736D01*
X118005739Y-132822743D01*
X118177256Y-132994260D01*
X118177263Y-132994266D01*
X118290321Y-133081018D01*
X118369711Y-133141936D01*
X118579788Y-133263224D01*
X118803900Y-133356054D01*
X119038211Y-133418838D01*
X119218586Y-133442584D01*
X119278711Y-133450500D01*
X119278712Y-133450500D01*
X119521289Y-133450500D01*
X119569388Y-133444167D01*
X119761789Y-133418838D01*
X119996100Y-133356054D01*
X120220212Y-133263224D01*
X120312359Y-133210022D01*
X120380257Y-133193550D01*
X120446284Y-133216402D01*
X120452719Y-133221308D01*
X120536593Y-133289698D01*
X120716951Y-133383909D01*
X120912582Y-133439886D01*
X121031963Y-133450500D01*
X122848036Y-133450499D01*
X122967418Y-133439886D01*
X123163049Y-133383909D01*
X123343407Y-133289698D01*
X123501109Y-133161109D01*
X123629698Y-133003407D01*
X123723909Y-132823049D01*
X123779886Y-132627418D01*
X123790500Y-132508037D01*
X123790499Y-131392557D01*
X123810184Y-131325519D01*
X123826813Y-131304882D01*
X128958484Y-126173214D01*
X129062614Y-126029890D01*
X129143042Y-125872042D01*
X129197786Y-125703555D01*
X129225500Y-125528578D01*
X129225500Y-125351421D01*
X129225500Y-114878711D01*
X137609500Y-114878711D01*
X137609500Y-115121288D01*
X137641161Y-115361785D01*
X137703947Y-115596104D01*
X137796773Y-115820205D01*
X137796777Y-115820214D01*
X137816437Y-115854266D01*
X137918064Y-116030289D01*
X137918066Y-116030292D01*
X137918067Y-116030293D01*
X138065733Y-116222736D01*
X138065739Y-116222743D01*
X138237256Y-116394260D01*
X138237263Y-116394266D01*
X138350321Y-116481018D01*
X138429711Y-116541936D01*
X138639788Y-116663224D01*
X138863900Y-116756054D01*
X139098211Y-116818838D01*
X139278586Y-116842584D01*
X139338711Y-116850500D01*
X139338712Y-116850500D01*
X139581289Y-116850500D01*
X139629388Y-116844167D01*
X139821789Y-116818838D01*
X140056100Y-116756054D01*
X140280212Y-116663224D01*
X140490289Y-116541936D01*
X140682738Y-116394265D01*
X140761902Y-116315100D01*
X140823221Y-116281618D01*
X140892913Y-116286602D01*
X140906744Y-116292918D01*
X141042620Y-116343596D01*
X141042627Y-116343598D01*
X141102155Y-116349999D01*
X141102172Y-116350000D01*
X141750000Y-116350000D01*
X141750000Y-115433012D01*
X141807007Y-115465925D01*
X141934174Y-115500000D01*
X142065826Y-115500000D01*
X142192993Y-115465925D01*
X142250000Y-115433012D01*
X142250000Y-116350000D01*
X142897828Y-116350000D01*
X142897844Y-116349999D01*
X142957372Y-116343598D01*
X142957379Y-116343596D01*
X143092086Y-116293354D01*
X143092093Y-116293350D01*
X143207187Y-116207190D01*
X143207190Y-116207187D01*
X143293350Y-116092093D01*
X143293354Y-116092086D01*
X143343596Y-115957379D01*
X143343598Y-115957372D01*
X143349999Y-115897844D01*
X143350000Y-115897827D01*
X143350000Y-115250000D01*
X142433012Y-115250000D01*
X142465925Y-115192993D01*
X142500000Y-115065826D01*
X142500000Y-114934174D01*
X142465925Y-114807007D01*
X142433012Y-114750000D01*
X143350000Y-114750000D01*
X143350000Y-114102172D01*
X143349999Y-114102155D01*
X143343598Y-114042627D01*
X143343596Y-114042620D01*
X143293354Y-113907913D01*
X143293350Y-113907906D01*
X143207190Y-113792812D01*
X143207187Y-113792809D01*
X143092093Y-113706649D01*
X143092086Y-113706645D01*
X142957379Y-113656403D01*
X142957372Y-113656401D01*
X142897844Y-113650000D01*
X142250000Y-113650000D01*
X142250000Y-114566988D01*
X142192993Y-114534075D01*
X142065826Y-114500000D01*
X141934174Y-114500000D01*
X141807007Y-114534075D01*
X141750000Y-114566988D01*
X141750000Y-113650000D01*
X141102155Y-113650000D01*
X141042627Y-113656401D01*
X141042620Y-113656403D01*
X140899601Y-113709746D01*
X140899031Y-113708218D01*
X140840730Y-113720899D01*
X140775266Y-113696479D01*
X140761900Y-113684896D01*
X140682743Y-113605739D01*
X140682736Y-113605733D01*
X140490293Y-113458067D01*
X140490292Y-113458066D01*
X140490289Y-113458064D01*
X140280212Y-113336776D01*
X140280205Y-113336773D01*
X140056104Y-113243947D01*
X139893276Y-113200317D01*
X139821789Y-113181162D01*
X139821788Y-113181161D01*
X139821785Y-113181161D01*
X139581289Y-113149500D01*
X139581288Y-113149500D01*
X139338712Y-113149500D01*
X139338711Y-113149500D01*
X139098214Y-113181161D01*
X138863895Y-113243947D01*
X138639794Y-113336773D01*
X138639785Y-113336777D01*
X138429706Y-113458067D01*
X138237263Y-113605733D01*
X138237256Y-113605739D01*
X138065739Y-113777256D01*
X138065733Y-113777263D01*
X137918067Y-113969706D01*
X137796777Y-114179785D01*
X137796773Y-114179794D01*
X137703947Y-114403895D01*
X137641161Y-114638214D01*
X137609500Y-114878711D01*
X129225500Y-114878711D01*
X129225500Y-107739776D01*
X129245185Y-107672737D01*
X129297989Y-107626982D01*
X129367147Y-107617038D01*
X129430703Y-107646063D01*
X129447871Y-107664284D01*
X129495118Y-107725857D01*
X129511083Y-107746664D01*
X129673330Y-107908911D01*
X129673338Y-107908918D01*
X129855382Y-108048607D01*
X129855385Y-108048608D01*
X129855388Y-108048611D01*
X130054112Y-108163344D01*
X130054117Y-108163346D01*
X130054123Y-108163349D01*
X130145480Y-108201190D01*
X130266113Y-108251158D01*
X130487762Y-108310548D01*
X130715266Y-108340500D01*
X130715273Y-108340500D01*
X130944727Y-108340500D01*
X130944734Y-108340500D01*
X131172238Y-108310548D01*
X131393887Y-108251158D01*
X131605888Y-108163344D01*
X131804612Y-108048611D01*
X131986661Y-107908919D01*
X131986665Y-107908914D01*
X131986670Y-107908911D01*
X132148911Y-107746670D01*
X132148916Y-107746664D01*
X132148919Y-107746661D01*
X132288611Y-107564612D01*
X132403344Y-107365888D01*
X132491158Y-107153887D01*
X132550548Y-106932238D01*
X132580500Y-106704734D01*
X132580500Y-106475266D01*
X132550548Y-106247762D01*
X132491158Y-106026113D01*
X132403344Y-105814112D01*
X132288611Y-105615388D01*
X132288608Y-105615385D01*
X132288607Y-105615382D01*
X132148918Y-105433338D01*
X132148911Y-105433330D01*
X131986664Y-105271083D01*
X131979840Y-105265847D01*
X131962237Y-105252340D01*
X131921036Y-105195915D01*
X131916881Y-105126169D01*
X131951093Y-105065248D01*
X131990272Y-105039405D01*
X132186697Y-104958043D01*
X132413803Y-104826924D01*
X132621851Y-104667282D01*
X132621855Y-104667277D01*
X132621860Y-104667274D01*
X132807274Y-104481860D01*
X132807277Y-104481855D01*
X132807282Y-104481851D01*
X132966924Y-104273803D01*
X133098043Y-104046697D01*
X133198398Y-103804419D01*
X133266270Y-103551116D01*
X133300500Y-103291120D01*
X133300500Y-103028880D01*
X133266270Y-102768884D01*
X133198398Y-102515581D01*
X133198394Y-102515571D01*
X133098046Y-102273309D01*
X133098041Y-102273299D01*
X132966927Y-102046203D01*
X132966924Y-102046197D01*
X132904991Y-101965485D01*
X132879797Y-101900319D01*
X132893835Y-101831874D01*
X132904991Y-101814514D01*
X132966924Y-101733803D01*
X133096655Y-101509100D01*
X133147222Y-101460886D01*
X133215829Y-101447662D01*
X133280693Y-101473630D01*
X133291723Y-101483420D01*
X144586785Y-112778483D01*
X144730110Y-112882614D01*
X144887957Y-112963042D01*
X144887960Y-112963043D01*
X144972201Y-112990414D01*
X145056445Y-113017786D01*
X145231421Y-113045500D01*
X145231422Y-113045500D01*
X145408579Y-113045500D01*
X158069972Y-113045500D01*
X158073631Y-113046574D01*
X158077347Y-113045720D01*
X158106886Y-113056339D01*
X158137011Y-113065185D01*
X158140551Y-113068441D01*
X158143097Y-113069357D01*
X158168349Y-113094015D01*
X158184078Y-113114514D01*
X158209271Y-113179683D01*
X158195232Y-113248128D01*
X158184077Y-113265485D01*
X158058067Y-113429706D01*
X157936777Y-113639785D01*
X157936773Y-113639794D01*
X157843947Y-113863895D01*
X157781161Y-114098214D01*
X157749500Y-114338711D01*
X157749500Y-114581288D01*
X157781161Y-114821785D01*
X157843947Y-115056104D01*
X157924262Y-115250000D01*
X157936776Y-115280212D01*
X158058064Y-115490289D01*
X158058066Y-115490292D01*
X158058067Y-115490293D01*
X158205733Y-115682736D01*
X158205739Y-115682743D01*
X158377256Y-115854260D01*
X158377263Y-115854266D01*
X158529564Y-115971130D01*
X158570767Y-116027558D01*
X158574922Y-116097304D01*
X158554397Y-116142391D01*
X158445376Y-116292446D01*
X158348904Y-116481782D01*
X158283242Y-116683869D01*
X158283242Y-116683872D01*
X158250000Y-116893753D01*
X158250000Y-117106246D01*
X158283242Y-117316127D01*
X158283242Y-117316130D01*
X158348904Y-117518217D01*
X158394798Y-117608288D01*
X158407694Y-117676957D01*
X158381418Y-117741698D01*
X158341726Y-117774490D01*
X158196593Y-117850302D01*
X158196591Y-117850303D01*
X158196590Y-117850304D01*
X158038890Y-117978890D01*
X157910304Y-118136590D01*
X157816089Y-118316954D01*
X157760114Y-118512583D01*
X157760113Y-118512586D01*
X157752607Y-118597016D01*
X157750363Y-118622263D01*
X157749500Y-118631966D01*
X157749500Y-120448028D01*
X157749501Y-120448034D01*
X157760113Y-120567415D01*
X157816089Y-120763045D01*
X157816090Y-120763048D01*
X157816091Y-120763049D01*
X157910302Y-120943407D01*
X157910304Y-120943409D01*
X158038890Y-121101109D01*
X158113889Y-121162262D01*
X158196593Y-121229698D01*
X158376951Y-121323909D01*
X158572582Y-121379886D01*
X158691963Y-121390500D01*
X160508036Y-121390499D01*
X160627418Y-121379886D01*
X160823049Y-121323909D01*
X161003407Y-121229698D01*
X161161109Y-121101109D01*
X161289698Y-120943407D01*
X161383909Y-120763049D01*
X161439886Y-120567418D01*
X161450500Y-120448037D01*
X161450499Y-118631964D01*
X161439886Y-118512582D01*
X161383909Y-118316951D01*
X161289698Y-118136593D01*
X161237684Y-118072803D01*
X161161109Y-117978890D01*
X161074239Y-117908057D01*
X161003407Y-117850302D01*
X161003404Y-117850300D01*
X160858274Y-117774490D01*
X160807967Y-117726004D01*
X160791860Y-117658016D01*
X160805202Y-117608286D01*
X160851094Y-117518219D01*
X160916757Y-117316130D01*
X160916757Y-117316127D01*
X160950000Y-117106246D01*
X160950000Y-116893753D01*
X160916757Y-116683872D01*
X160916757Y-116683869D01*
X160851095Y-116481782D01*
X160754620Y-116292442D01*
X160645603Y-116142391D01*
X160622123Y-116076585D01*
X160637949Y-116008531D01*
X160670432Y-115971132D01*
X160822738Y-115854265D01*
X160994265Y-115682738D01*
X161141936Y-115490289D01*
X161263224Y-115280212D01*
X161356054Y-115056100D01*
X161418838Y-114821789D01*
X161450500Y-114581288D01*
X161450500Y-114338712D01*
X161418838Y-114098211D01*
X161356054Y-113863900D01*
X161263224Y-113639788D01*
X161141936Y-113429711D01*
X161015922Y-113265486D01*
X160990728Y-113200317D01*
X161004766Y-113131872D01*
X161015922Y-113114514D01*
X161068878Y-113045500D01*
X161141936Y-112950289D01*
X161263224Y-112740212D01*
X161356054Y-112516100D01*
X161418838Y-112281789D01*
X161450500Y-112041288D01*
X161450500Y-111798712D01*
X161418838Y-111558211D01*
X161356054Y-111323900D01*
X161263224Y-111099788D01*
X161141936Y-110889711D01*
X161041010Y-110758181D01*
X160994266Y-110697263D01*
X160994260Y-110697256D01*
X160822743Y-110525739D01*
X160822736Y-110525733D01*
X160630293Y-110378067D01*
X160630292Y-110378066D01*
X160630289Y-110378064D01*
X160420212Y-110256776D01*
X160420205Y-110256773D01*
X160196104Y-110163947D01*
X159961785Y-110101161D01*
X159721289Y-110069500D01*
X159721288Y-110069500D01*
X159478712Y-110069500D01*
X159478711Y-110069500D01*
X159238214Y-110101161D01*
X159003895Y-110163947D01*
X158779794Y-110256773D01*
X158779785Y-110256777D01*
X158569706Y-110378067D01*
X158377263Y-110525733D01*
X158377256Y-110525739D01*
X158205739Y-110697256D01*
X158205735Y-110697261D01*
X158168349Y-110745985D01*
X158111921Y-110787189D01*
X158069972Y-110794500D01*
X145837560Y-110794500D01*
X145770521Y-110774815D01*
X145749879Y-110758181D01*
X133332375Y-98340678D01*
X133298890Y-98279355D01*
X133297117Y-98236812D01*
X133300500Y-98211120D01*
X133300500Y-97948880D01*
X133266270Y-97688884D01*
X133198398Y-97435581D01*
X133198394Y-97435571D01*
X133098046Y-97193309D01*
X133098041Y-97193299D01*
X132966927Y-96966203D01*
X132966924Y-96966197D01*
X132904991Y-96885485D01*
X132894948Y-96859510D01*
X132881895Y-96834911D01*
X132882524Y-96827373D01*
X132879797Y-96820319D01*
X132885391Y-96793039D01*
X132887710Y-96765284D01*
X132893025Y-96755818D01*
X132893835Y-96751874D01*
X132904988Y-96734518D01*
X132920725Y-96714010D01*
X132977153Y-96672810D01*
X133019098Y-96665500D01*
X149088578Y-96665500D01*
X149088579Y-96665500D01*
X149263556Y-96637786D01*
X149432042Y-96583042D01*
X149452304Y-96572718D01*
X149589890Y-96502614D01*
X149733214Y-96398483D01*
X149858483Y-96273214D01*
X149917042Y-96214655D01*
X149917055Y-96214640D01*
X153244879Y-92886818D01*
X153306202Y-92853333D01*
X153332560Y-92850499D01*
X154448028Y-92850499D01*
X154448036Y-92850499D01*
X154567418Y-92839886D01*
X154763049Y-92783909D01*
X154943407Y-92689698D01*
X155101109Y-92561109D01*
X155229698Y-92403407D01*
X155323909Y-92223049D01*
X155379886Y-92027418D01*
X155390500Y-91908037D01*
X155390499Y-90091964D01*
X155379886Y-89972582D01*
X155323909Y-89776951D01*
X155229698Y-89596593D01*
X155177684Y-89532803D01*
X155101109Y-89438890D01*
X154943409Y-89310304D01*
X154943410Y-89310304D01*
X154943407Y-89310302D01*
X154763049Y-89216091D01*
X154763048Y-89216090D01*
X154763045Y-89216089D01*
X154645829Y-89182550D01*
X154567418Y-89160114D01*
X154567415Y-89160113D01*
X154567413Y-89160113D01*
X154501102Y-89154217D01*
X154448037Y-89149500D01*
X154448032Y-89149500D01*
X152631971Y-89149500D01*
X152631965Y-89149500D01*
X152631964Y-89149501D01*
X152620316Y-89150536D01*
X152512584Y-89160113D01*
X152316954Y-89216089D01*
X152136591Y-89310303D01*
X152052718Y-89378692D01*
X151988321Y-89405800D01*
X151919492Y-89393790D01*
X151912358Y-89389976D01*
X151820215Y-89336777D01*
X151820205Y-89336773D01*
X151596104Y-89243947D01*
X151433283Y-89200319D01*
X151361789Y-89181162D01*
X151361788Y-89181161D01*
X151361785Y-89181161D01*
X151121289Y-89149500D01*
X151121288Y-89149500D01*
X150878712Y-89149500D01*
X150878711Y-89149500D01*
X150638214Y-89181161D01*
X150403895Y-89243947D01*
X150179794Y-89336773D01*
X150179785Y-89336777D01*
X149969706Y-89458067D01*
X149777263Y-89605733D01*
X149777256Y-89605739D01*
X149605739Y-89777256D01*
X149605733Y-89777263D01*
X149488869Y-89929564D01*
X149432441Y-89970767D01*
X149362695Y-89974922D01*
X149317608Y-89954396D01*
X149167557Y-89845379D01*
X148978217Y-89748904D01*
X148776129Y-89683242D01*
X148566246Y-89650000D01*
X148353754Y-89650000D01*
X148143872Y-89683242D01*
X148143869Y-89683242D01*
X147941782Y-89748904D01*
X147752439Y-89845380D01*
X147698282Y-89884727D01*
X147698282Y-89884728D01*
X148330591Y-90517037D01*
X148267007Y-90534075D01*
X148152993Y-90599901D01*
X148059901Y-90692993D01*
X147994075Y-90807007D01*
X147977037Y-90870591D01*
X147344728Y-90238282D01*
X147344727Y-90238282D01*
X147305380Y-90292439D01*
X147208904Y-90481782D01*
X147143242Y-90683869D01*
X147143242Y-90683872D01*
X147110000Y-90893753D01*
X147110000Y-91106246D01*
X147143242Y-91316127D01*
X147143242Y-91316130D01*
X147208904Y-91518217D01*
X147305375Y-91707550D01*
X147344728Y-91761716D01*
X147977037Y-91129408D01*
X147994075Y-91192993D01*
X148059901Y-91307007D01*
X148152993Y-91400099D01*
X148267007Y-91465925D01*
X148330589Y-91482962D01*
X147698282Y-92115269D01*
X147698282Y-92115270D01*
X147752449Y-92154624D01*
X147941782Y-92251095D01*
X148143870Y-92316757D01*
X148353754Y-92350000D01*
X148566246Y-92350000D01*
X148776127Y-92316757D01*
X148776130Y-92316757D01*
X148978217Y-92251095D01*
X149167554Y-92154622D01*
X149317606Y-92045603D01*
X149383413Y-92022123D01*
X149451467Y-92037948D01*
X149488868Y-92070434D01*
X149605739Y-92222743D01*
X149777256Y-92394260D01*
X149777263Y-92394266D01*
X149890321Y-92481018D01*
X149969711Y-92541936D01*
X150106590Y-92620963D01*
X150154805Y-92671529D01*
X150168028Y-92740136D01*
X150142060Y-92805001D01*
X150132270Y-92816030D01*
X148570122Y-94378181D01*
X148508799Y-94411666D01*
X148482441Y-94414500D01*
X133019098Y-94414500D01*
X133015440Y-94413426D01*
X133011724Y-94414281D01*
X132982173Y-94403657D01*
X132952059Y-94394815D01*
X132948519Y-94391559D01*
X132945974Y-94390644D01*
X132920725Y-94365990D01*
X132904990Y-94345484D01*
X132879797Y-94280316D01*
X132893835Y-94211872D01*
X132904983Y-94194524D01*
X132966924Y-94113803D01*
X133098043Y-93886697D01*
X133198398Y-93644419D01*
X133266270Y-93391116D01*
X133300500Y-93131120D01*
X133300500Y-92868880D01*
X133266270Y-92608884D01*
X133198398Y-92355581D01*
X133182317Y-92316757D01*
X133098046Y-92113309D01*
X133098041Y-92113299D01*
X132966927Y-91886203D01*
X132966924Y-91886197D01*
X132904991Y-91805485D01*
X132879797Y-91740319D01*
X132893835Y-91671874D01*
X132904991Y-91654514D01*
X132966924Y-91573803D01*
X133098043Y-91346697D01*
X133198398Y-91104419D01*
X133266270Y-90851116D01*
X133300500Y-90591120D01*
X133300500Y-90328880D01*
X133266270Y-90068884D01*
X133198398Y-89815581D01*
X133171670Y-89751053D01*
X133098046Y-89573309D01*
X133098041Y-89573299D01*
X133031510Y-89458064D01*
X132966924Y-89346197D01*
X132904991Y-89265485D01*
X132879797Y-89200319D01*
X132893835Y-89131874D01*
X132904991Y-89114514D01*
X132966924Y-89033803D01*
X133098043Y-88806697D01*
X133198398Y-88564419D01*
X133266270Y-88311116D01*
X133300500Y-88051120D01*
X133300500Y-87788880D01*
X133266270Y-87528884D01*
X133198398Y-87275581D01*
X133198394Y-87275571D01*
X133098046Y-87033309D01*
X133098041Y-87033299D01*
X132966927Y-86806203D01*
X132966924Y-86806197D01*
X132904991Y-86725485D01*
X132879797Y-86660319D01*
X132893835Y-86591874D01*
X132904991Y-86574514D01*
X132966924Y-86493803D01*
X133098043Y-86266697D01*
X133198398Y-86024419D01*
X133266270Y-85771116D01*
X133300500Y-85511120D01*
X133300500Y-85248880D01*
X133266270Y-84988884D01*
X133198398Y-84735581D01*
X133198394Y-84735571D01*
X133098046Y-84493309D01*
X133098041Y-84493299D01*
X132966927Y-84266203D01*
X132966924Y-84266197D01*
X132904991Y-84185485D01*
X132879797Y-84120319D01*
X132893835Y-84051874D01*
X132904991Y-84034514D01*
X132966924Y-83953803D01*
X133098043Y-83726697D01*
X133198398Y-83484419D01*
X133266270Y-83231116D01*
X133300500Y-82971120D01*
X133300500Y-82708880D01*
X133276176Y-82524128D01*
X133286941Y-82455093D01*
X133311431Y-82420264D01*
X136389878Y-79341819D01*
X136451201Y-79308334D01*
X136477559Y-79305500D01*
X155569972Y-79305500D01*
X155637011Y-79325185D01*
X155668349Y-79354015D01*
X155705735Y-79402738D01*
X155705739Y-79402743D01*
X155877256Y-79574260D01*
X155877263Y-79574266D01*
X156029564Y-79691130D01*
X156070767Y-79747558D01*
X156074922Y-79817304D01*
X156054397Y-79862391D01*
X155945376Y-80012446D01*
X155848904Y-80201782D01*
X155783242Y-80403869D01*
X155783242Y-80403872D01*
X155750000Y-80613753D01*
X155750000Y-80826246D01*
X155783242Y-81036127D01*
X155783242Y-81036130D01*
X155848904Y-81238217D01*
X155945375Y-81427550D01*
X155984728Y-81481716D01*
X156617036Y-80849407D01*
X156634075Y-80912993D01*
X156699901Y-81027007D01*
X156792993Y-81120099D01*
X156907007Y-81185925D01*
X156970590Y-81202962D01*
X156338282Y-81835269D01*
X156338282Y-81835270D01*
X156392449Y-81874624D01*
X156581782Y-81971095D01*
X156783870Y-82036757D01*
X156993754Y-82070000D01*
X157206246Y-82070000D01*
X157416127Y-82036757D01*
X157416130Y-82036757D01*
X157618217Y-81971095D01*
X157807554Y-81874622D01*
X157861716Y-81835270D01*
X157861717Y-81835270D01*
X157229408Y-81202962D01*
X157292993Y-81185925D01*
X157407007Y-81120099D01*
X157500099Y-81027007D01*
X157565925Y-80912993D01*
X157582962Y-80849409D01*
X158215270Y-81481717D01*
X158215270Y-81481716D01*
X158254622Y-81427554D01*
X158351095Y-81238217D01*
X158416757Y-81036130D01*
X158416757Y-81036127D01*
X158450000Y-80826246D01*
X158450000Y-80613753D01*
X158416757Y-80403872D01*
X158416757Y-80403869D01*
X158351095Y-80201782D01*
X158254620Y-80012442D01*
X158145603Y-79862391D01*
X158122123Y-79796585D01*
X158137949Y-79728531D01*
X158170432Y-79691132D01*
X158322738Y-79574265D01*
X158494265Y-79402738D01*
X158641936Y-79210289D01*
X158763224Y-79000212D01*
X158856054Y-78776100D01*
X158918838Y-78541789D01*
X158950500Y-78301288D01*
X158950500Y-78058712D01*
X158918838Y-77818211D01*
X158856054Y-77583900D01*
X158763224Y-77359788D01*
X158641936Y-77149711D01*
X158515922Y-76985486D01*
X158490728Y-76920317D01*
X158504766Y-76851872D01*
X158515922Y-76834514D01*
X158533219Y-76811972D01*
X158641936Y-76670289D01*
X158763224Y-76460212D01*
X158856054Y-76236100D01*
X158918838Y-76001789D01*
X158950500Y-75761288D01*
X158950500Y-75518712D01*
X158918838Y-75278211D01*
X158856054Y-75043900D01*
X158763224Y-74819788D01*
X158641936Y-74609711D01*
X158515922Y-74445486D01*
X158490728Y-74380317D01*
X158504766Y-74311872D01*
X158515922Y-74294514D01*
X158517099Y-74292979D01*
X158641936Y-74130289D01*
X158763224Y-73920212D01*
X158856054Y-73696100D01*
X158918838Y-73461789D01*
X158950500Y-73221288D01*
X158950500Y-72978712D01*
X158918838Y-72738211D01*
X158856054Y-72503900D01*
X158854231Y-72499500D01*
X158766992Y-72288885D01*
X158763224Y-72279788D01*
X158641936Y-72069711D01*
X158515922Y-71905486D01*
X158490728Y-71840317D01*
X158504766Y-71771872D01*
X158515922Y-71754514D01*
X158582337Y-71667960D01*
X158641936Y-71590289D01*
X158763224Y-71380212D01*
X158856054Y-71156100D01*
X158918838Y-70921789D01*
X158950500Y-70681288D01*
X158950500Y-70438712D01*
X158918838Y-70198211D01*
X158856054Y-69963900D01*
X158763224Y-69739788D01*
X158758669Y-69731898D01*
X158710023Y-69647639D01*
X158693550Y-69579739D01*
X158716403Y-69513712D01*
X158721298Y-69507292D01*
X158789698Y-69423407D01*
X158883909Y-69243049D01*
X158939886Y-69047418D01*
X158950500Y-68928037D01*
X158950499Y-67111964D01*
X158939886Y-66992582D01*
X158883909Y-66796951D01*
X158789698Y-66616593D01*
X158728845Y-66541963D01*
X158661109Y-66458890D01*
X158503409Y-66330304D01*
X158503410Y-66330304D01*
X158503407Y-66330302D01*
X158323049Y-66236091D01*
X158323048Y-66236090D01*
X158323045Y-66236089D01*
X158195169Y-66199500D01*
X158127418Y-66180114D01*
X158127415Y-66180113D01*
X158127413Y-66180113D01*
X158061102Y-66174217D01*
X158008037Y-66169500D01*
X158008032Y-66169500D01*
X156191971Y-66169500D01*
X156191965Y-66169500D01*
X156191964Y-66169501D01*
X156180316Y-66170536D01*
X156072584Y-66180113D01*
X155876954Y-66236089D01*
X155786772Y-66283196D01*
X155696593Y-66330302D01*
X155696591Y-66330303D01*
X155696590Y-66330304D01*
X155538890Y-66458890D01*
X155410304Y-66616590D01*
X155316089Y-66796954D01*
X155277961Y-66930208D01*
X155264427Y-66977511D01*
X155260114Y-66992583D01*
X155260113Y-66992586D01*
X155249500Y-67111966D01*
X155249500Y-67838531D01*
X155229815Y-67905570D01*
X155213181Y-67926212D01*
X150676213Y-72463181D01*
X150614890Y-72496666D01*
X150588532Y-72499500D01*
X138231468Y-72499500D01*
X138164429Y-72479815D01*
X138143787Y-72463181D01*
X133336819Y-67656213D01*
X133303334Y-67594890D01*
X133300500Y-67568532D01*
X133300500Y-67468886D01*
X133300499Y-67468872D01*
X133290190Y-67390568D01*
X133273748Y-67265684D01*
X133284513Y-67196651D01*
X133330893Y-67144395D01*
X133396687Y-67125500D01*
X136856026Y-67125500D01*
X136923065Y-67145185D01*
X136928891Y-67149168D01*
X137113567Y-67283343D01*
X137212991Y-67334002D01*
X137324003Y-67390566D01*
X137324005Y-67390566D01*
X137324008Y-67390568D01*
X137435983Y-67426951D01*
X137548631Y-67463553D01*
X137781903Y-67500500D01*
X137781908Y-67500500D01*
X138018097Y-67500500D01*
X138251368Y-67463553D01*
X138475992Y-67390568D01*
X138686433Y-67283343D01*
X138877510Y-67144517D01*
X139044517Y-66977510D01*
X139183343Y-66786433D01*
X139290568Y-66575992D01*
X139363553Y-66351368D01*
X139381811Y-66236091D01*
X139400500Y-66118097D01*
X139400500Y-65881902D01*
X139363553Y-65648631D01*
X139290566Y-65424003D01*
X139213729Y-65273203D01*
X139200833Y-65204534D01*
X139227109Y-65139793D01*
X139284216Y-65099536D01*
X139343613Y-65094435D01*
X139381904Y-65100500D01*
X139381908Y-65100500D01*
X139618097Y-65100500D01*
X139851368Y-65063553D01*
X140075992Y-64990568D01*
X140286433Y-64883343D01*
X140398435Y-64801968D01*
X140464239Y-64778489D01*
X140532293Y-64794314D01*
X140559000Y-64814606D01*
X144488181Y-68743787D01*
X144521666Y-68805110D01*
X144524500Y-68831468D01*
X144524500Y-69558028D01*
X144524501Y-69558034D01*
X144535113Y-69677415D01*
X144591089Y-69873045D01*
X144591090Y-69873048D01*
X144591091Y-69873049D01*
X144685302Y-70053407D01*
X144719977Y-70095933D01*
X144813890Y-70211109D01*
X144871462Y-70258052D01*
X144971593Y-70339698D01*
X145151951Y-70433909D01*
X145347582Y-70489886D01*
X145466963Y-70500500D01*
X147283036Y-70500499D01*
X147402418Y-70489886D01*
X147598049Y-70433909D01*
X147778407Y-70339698D01*
X147936109Y-70211109D01*
X148064698Y-70053407D01*
X148158909Y-69873049D01*
X148214886Y-69677418D01*
X148225500Y-69558037D01*
X148225499Y-67741964D01*
X148214886Y-67622582D01*
X148158909Y-67426951D01*
X148064698Y-67246593D01*
X147996308Y-67162719D01*
X147969199Y-67098322D01*
X147981208Y-67029493D01*
X147985012Y-67022376D01*
X148038224Y-66930212D01*
X148131054Y-66706100D01*
X148193838Y-66471789D01*
X148225500Y-66231288D01*
X148225500Y-65988712D01*
X148193838Y-65748211D01*
X148131054Y-65513900D01*
X148038224Y-65289788D01*
X147916936Y-65079711D01*
X147790922Y-64915486D01*
X147765728Y-64850317D01*
X147779766Y-64781872D01*
X147790922Y-64764514D01*
X147820858Y-64725500D01*
X147916936Y-64600289D01*
X148038224Y-64390212D01*
X148131054Y-64166100D01*
X148193838Y-63931789D01*
X148225500Y-63691288D01*
X148225500Y-63448712D01*
X148193838Y-63208211D01*
X148131054Y-62973900D01*
X148038224Y-62749788D01*
X147916936Y-62539711D01*
X147812348Y-62403409D01*
X147769266Y-62347263D01*
X147769260Y-62347256D01*
X147597743Y-62175739D01*
X147445434Y-62058868D01*
X147404232Y-62002440D01*
X147400077Y-61932694D01*
X147420603Y-61887606D01*
X147529622Y-61737554D01*
X147626095Y-61548217D01*
X147691757Y-61346130D01*
X147691757Y-61346127D01*
X147725000Y-61136246D01*
X147725000Y-60923753D01*
X147691757Y-60713872D01*
X147691757Y-60713869D01*
X147626095Y-60511782D01*
X147529620Y-60322442D01*
X147420603Y-60172391D01*
X147397123Y-60106585D01*
X147412949Y-60038531D01*
X147445432Y-60001132D01*
X147597738Y-59884265D01*
X147769265Y-59712738D01*
X147916936Y-59520289D01*
X148038224Y-59310212D01*
X148131054Y-59086100D01*
X148193838Y-58851789D01*
X148225500Y-58611288D01*
X148225500Y-58368712D01*
X148193838Y-58128211D01*
X148131054Y-57893900D01*
X148129231Y-57889500D01*
X148057815Y-57717085D01*
X148038224Y-57669788D01*
X147916936Y-57459711D01*
X147769265Y-57267262D01*
X147769260Y-57267256D01*
X147597743Y-57095739D01*
X147597736Y-57095733D01*
X147458606Y-56988975D01*
X147405293Y-56948067D01*
X147405292Y-56948066D01*
X147405289Y-56948064D01*
X147311034Y-56893646D01*
X156999500Y-56893646D01*
X156999500Y-57306353D01*
X157039952Y-57717084D01*
X157120464Y-58121848D01*
X157120467Y-58121859D01*
X157230119Y-58483338D01*
X157240274Y-58516813D01*
X157356794Y-58798118D01*
X157398214Y-58898113D01*
X157398216Y-58898118D01*
X157592759Y-59262081D01*
X157592770Y-59262099D01*
X157822052Y-59605244D01*
X157822062Y-59605258D01*
X158083885Y-59924291D01*
X158375708Y-60216114D01*
X158375713Y-60216118D01*
X158375714Y-60216119D01*
X158694747Y-60477942D01*
X159037907Y-60707234D01*
X159037916Y-60707239D01*
X159037918Y-60707240D01*
X159401881Y-60901783D01*
X159401883Y-60901783D01*
X159401889Y-60901787D01*
X159783187Y-61059726D01*
X160178131Y-61179530D01*
X160178137Y-61179531D01*
X160178140Y-61179532D01*
X160178151Y-61179535D01*
X160582915Y-61260047D01*
X160993643Y-61300500D01*
X160993646Y-61300500D01*
X161406354Y-61300500D01*
X161406357Y-61300500D01*
X161817085Y-61260047D01*
X161895884Y-61244372D01*
X162221848Y-61179535D01*
X162221859Y-61179532D01*
X162221859Y-61179531D01*
X162221869Y-61179530D01*
X162616813Y-61059726D01*
X162998111Y-60901787D01*
X163362093Y-60707234D01*
X163705253Y-60477942D01*
X164024286Y-60216119D01*
X164316119Y-59924286D01*
X164577942Y-59605253D01*
X164807234Y-59262093D01*
X165001787Y-58898111D01*
X165159726Y-58516813D01*
X165279530Y-58121869D01*
X165279532Y-58121859D01*
X165279535Y-58121848D01*
X165360047Y-57717084D01*
X165364705Y-57669788D01*
X165400500Y-57306357D01*
X165400500Y-56893643D01*
X165360047Y-56482915D01*
X165340156Y-56382915D01*
X165279535Y-56078151D01*
X165279532Y-56078140D01*
X165279531Y-56078137D01*
X165279530Y-56078131D01*
X165159726Y-55683187D01*
X165001787Y-55301889D01*
X164948331Y-55201881D01*
X164807240Y-54937918D01*
X164807239Y-54937916D01*
X164807234Y-54937907D01*
X164577942Y-54594747D01*
X164316119Y-54275714D01*
X164316118Y-54275713D01*
X164316114Y-54275708D01*
X164024291Y-53983885D01*
X163705258Y-53722062D01*
X163705257Y-53722061D01*
X163705253Y-53722058D01*
X163362093Y-53492766D01*
X163362088Y-53492763D01*
X163362081Y-53492759D01*
X162998118Y-53298216D01*
X162998113Y-53298214D01*
X162616814Y-53140274D01*
X162221859Y-53020467D01*
X162221848Y-53020464D01*
X161817084Y-52939952D01*
X161507741Y-52909485D01*
X161406357Y-52899500D01*
X160993643Y-52899500D01*
X160899966Y-52908726D01*
X160582915Y-52939952D01*
X160178151Y-53020464D01*
X160178140Y-53020467D01*
X159783185Y-53140274D01*
X159401886Y-53298214D01*
X159401881Y-53298216D01*
X159037918Y-53492759D01*
X159037900Y-53492770D01*
X158694755Y-53722052D01*
X158694741Y-53722062D01*
X158375708Y-53983885D01*
X158083885Y-54275708D01*
X157822062Y-54594741D01*
X157822052Y-54594755D01*
X157592770Y-54937900D01*
X157592759Y-54937918D01*
X157398216Y-55301881D01*
X157398214Y-55301886D01*
X157240274Y-55683185D01*
X157120467Y-56078140D01*
X157120464Y-56078151D01*
X157039952Y-56482915D01*
X156999500Y-56893646D01*
X147311034Y-56893646D01*
X147195212Y-56826776D01*
X147195205Y-56826773D01*
X146971104Y-56733947D01*
X146736785Y-56671161D01*
X146496289Y-56639500D01*
X146496288Y-56639500D01*
X146253712Y-56639500D01*
X146253711Y-56639500D01*
X146013214Y-56671161D01*
X145778895Y-56733947D01*
X145554794Y-56826773D01*
X145554785Y-56826777D01*
X145344706Y-56948067D01*
X145152263Y-57095733D01*
X145152256Y-57095739D01*
X144980739Y-57267256D01*
X144980733Y-57267263D01*
X144833067Y-57459706D01*
X144711777Y-57669785D01*
X144711773Y-57669794D01*
X144618947Y-57893895D01*
X144556161Y-58128214D01*
X144524500Y-58368711D01*
X144524500Y-58611288D01*
X144556161Y-58851785D01*
X144618947Y-59086104D01*
X144691847Y-59262099D01*
X144711776Y-59310212D01*
X144833064Y-59520289D01*
X144833066Y-59520292D01*
X144833067Y-59520293D01*
X144980733Y-59712736D01*
X144980739Y-59712743D01*
X145152256Y-59884260D01*
X145152262Y-59884265D01*
X145279931Y-59982229D01*
X145304564Y-60001130D01*
X145345767Y-60057558D01*
X145349922Y-60127304D01*
X145329397Y-60172391D01*
X145220376Y-60322446D01*
X145123904Y-60511782D01*
X145058242Y-60713869D01*
X145058242Y-60713872D01*
X145025000Y-60923753D01*
X145025000Y-61136246D01*
X145058242Y-61346127D01*
X145058242Y-61346130D01*
X145123904Y-61548217D01*
X145220379Y-61737557D01*
X145329396Y-61887608D01*
X145352876Y-61953414D01*
X145337050Y-62021468D01*
X145304564Y-62058869D01*
X145152263Y-62175733D01*
X145152256Y-62175739D01*
X144980739Y-62347256D01*
X144980733Y-62347263D01*
X144833067Y-62539706D01*
X144833064Y-62539710D01*
X144833064Y-62539711D01*
X144820710Y-62561109D01*
X144711777Y-62749785D01*
X144711773Y-62749794D01*
X144618947Y-62973895D01*
X144556161Y-63208214D01*
X144524500Y-63448711D01*
X144524500Y-63691288D01*
X144556161Y-63931785D01*
X144618947Y-64166104D01*
X144711773Y-64390205D01*
X144711776Y-64390212D01*
X144833064Y-64600289D01*
X144833066Y-64600292D01*
X144833067Y-64600293D01*
X144959077Y-64764514D01*
X144969118Y-64790487D01*
X144982172Y-64815085D01*
X144981542Y-64822625D01*
X144984271Y-64829683D01*
X144978675Y-64856961D01*
X144976359Y-64884712D01*
X144971041Y-64894180D01*
X144970232Y-64898128D01*
X144959077Y-64915486D01*
X144898409Y-64994551D01*
X144841982Y-65035754D01*
X144772236Y-65039909D01*
X144712352Y-65006746D01*
X140997582Y-61291976D01*
X140997573Y-61291966D01*
X140918949Y-61213342D01*
X140837365Y-61131758D01*
X140837361Y-61131755D01*
X140837357Y-61131751D01*
X140659025Y-61002187D01*
X140659024Y-61002186D01*
X140659022Y-61002185D01*
X140584422Y-60964174D01*
X140462606Y-60902104D01*
X140462603Y-60902103D01*
X140252952Y-60833985D01*
X140049667Y-60801787D01*
X140035222Y-60799499D01*
X139814778Y-60799499D01*
X139809667Y-60799499D01*
X139809643Y-60799500D01*
X132396639Y-60799500D01*
X132329600Y-60779815D01*
X132283845Y-60727011D01*
X132273901Y-60657853D01*
X132289250Y-60613504D01*
X132403344Y-60415888D01*
X132491158Y-60203887D01*
X132550548Y-59982238D01*
X132580500Y-59754734D01*
X132580500Y-59525266D01*
X132550548Y-59297762D01*
X132491158Y-59076113D01*
X132403344Y-58864112D01*
X132288611Y-58665388D01*
X132288608Y-58665385D01*
X132288607Y-58665382D01*
X132148918Y-58483338D01*
X132148911Y-58483330D01*
X131986670Y-58321089D01*
X131986661Y-58321081D01*
X131804617Y-58181392D01*
X131605890Y-58066657D01*
X131605876Y-58066650D01*
X131393887Y-57978842D01*
X131172238Y-57919452D01*
X131134215Y-57914446D01*
X130944741Y-57889500D01*
X130944734Y-57889500D01*
X130715266Y-57889500D01*
X130715258Y-57889500D01*
X130498715Y-57918009D01*
X130487762Y-57919452D01*
X130394076Y-57944554D01*
X130266112Y-57978842D01*
X130054123Y-58066650D01*
X130054109Y-58066657D01*
X129855382Y-58181392D01*
X129673338Y-58321081D01*
X129511081Y-58483338D01*
X129371392Y-58665382D01*
X129256657Y-58864109D01*
X129256650Y-58864123D01*
X129168842Y-59076112D01*
X129109453Y-59297759D01*
X129109451Y-59297770D01*
X129079500Y-59525258D01*
X129079500Y-59754741D01*
X129101822Y-59924286D01*
X129109452Y-59982238D01*
X129145324Y-60116114D01*
X129168842Y-60203887D01*
X129256650Y-60415876D01*
X129256656Y-60415888D01*
X129370748Y-60613503D01*
X129387221Y-60681400D01*
X129364369Y-60747427D01*
X129309447Y-60790618D01*
X129263361Y-60799500D01*
X114189778Y-60799500D01*
X114142381Y-60807007D01*
X113972047Y-60833985D01*
X113762396Y-60902103D01*
X113762393Y-60902104D01*
X113565974Y-61002187D01*
X113387641Y-61131752D01*
X113387636Y-61131756D01*
X113306051Y-61213342D01*
X113231758Y-61287635D01*
X113231755Y-61287638D01*
X110777247Y-63742147D01*
X108356213Y-66163181D01*
X108294890Y-66196666D01*
X108268532Y-66199500D01*
X107894696Y-66199500D01*
X107827657Y-66179815D01*
X107784788Y-66132912D01*
X107739699Y-66046595D01*
X107739698Y-66046593D01*
X107668864Y-65959723D01*
X107611109Y-65888890D01*
X107453409Y-65760304D01*
X107453410Y-65760304D01*
X107453407Y-65760302D01*
X107273049Y-65666091D01*
X107273048Y-65666090D01*
X107273045Y-65666089D01*
X107155829Y-65632550D01*
X107077418Y-65610114D01*
X107077415Y-65610113D01*
X107077413Y-65610113D01*
X107011102Y-65604217D01*
X106958037Y-65599500D01*
X106958032Y-65599500D01*
X104841971Y-65599500D01*
X104841965Y-65599500D01*
X104841964Y-65599501D01*
X104830316Y-65600536D01*
X104722584Y-65610113D01*
X104526954Y-65666089D01*
X104436772Y-65713196D01*
X104346593Y-65760302D01*
X104346591Y-65760303D01*
X104346590Y-65760304D01*
X104188890Y-65888890D01*
X104060304Y-66046590D01*
X104060302Y-66046593D01*
X104015213Y-66132912D01*
X103966089Y-66226954D01*
X103910114Y-66422583D01*
X103910113Y-66422586D01*
X103899500Y-66541966D01*
X103899500Y-68658028D01*
X103899501Y-68658034D01*
X103910113Y-68777415D01*
X103966089Y-68973045D01*
X103966090Y-68973048D01*
X103966091Y-68973049D01*
X104060302Y-69153407D01*
X104060304Y-69153409D01*
X104188890Y-69311109D01*
X104241284Y-69353830D01*
X104346593Y-69439698D01*
X104427873Y-69482155D01*
X104478180Y-69530641D01*
X104494287Y-69598628D01*
X104488392Y-69630381D01*
X104436934Y-69788751D01*
X104400000Y-70021947D01*
X104400000Y-70258052D01*
X104436934Y-70491247D01*
X104509897Y-70715802D01*
X104617087Y-70926174D01*
X104647155Y-70967560D01*
X104670635Y-71033366D01*
X104654809Y-71101420D01*
X104622325Y-71138819D01*
X104578151Y-71172716D01*
X104578140Y-71172726D01*
X104392718Y-71358148D01*
X104233075Y-71566196D01*
X104101958Y-71793299D01*
X104101953Y-71793309D01*
X104001605Y-72035571D01*
X104001602Y-72035581D01*
X103936168Y-72279788D01*
X103933730Y-72288885D01*
X103899500Y-72548872D01*
X103899500Y-72811127D01*
X103921564Y-72978711D01*
X103933730Y-73071116D01*
X104001602Y-73324418D01*
X104001605Y-73324428D01*
X104101953Y-73566690D01*
X104101958Y-73566700D01*
X104233075Y-73793802D01*
X104295007Y-73874514D01*
X104320201Y-73939683D01*
X104306162Y-74008128D01*
X104295007Y-74025486D01*
X104233075Y-74106197D01*
X104101958Y-74333299D01*
X104101953Y-74333309D01*
X104001605Y-74575571D01*
X104001602Y-74575581D01*
X103936168Y-74819788D01*
X103933730Y-74828885D01*
X103899500Y-75088872D01*
X103899500Y-75351127D01*
X103921564Y-75518711D01*
X103933730Y-75611116D01*
X104001602Y-75864418D01*
X104001605Y-75864428D01*
X104101953Y-76106690D01*
X104101958Y-76106700D01*
X104233075Y-76333802D01*
X104295007Y-76414514D01*
X104320201Y-76479683D01*
X104306162Y-76548128D01*
X104295007Y-76565486D01*
X104233075Y-76646197D01*
X104101958Y-76873299D01*
X104101953Y-76873309D01*
X104001605Y-77115571D01*
X104001602Y-77115581D01*
X103936168Y-77359788D01*
X103933730Y-77368885D01*
X103899500Y-77628872D01*
X103899500Y-77891127D01*
X103921564Y-78058711D01*
X103933730Y-78151116D01*
X104001602Y-78404418D01*
X104001605Y-78404428D01*
X104101953Y-78646690D01*
X104101958Y-78646700D01*
X104233075Y-78873802D01*
X104295007Y-78954514D01*
X104320201Y-79019683D01*
X104306162Y-79088128D01*
X104295007Y-79105486D01*
X104233075Y-79186197D01*
X104101958Y-79413299D01*
X104101953Y-79413309D01*
X104001605Y-79655571D01*
X104001602Y-79655581D01*
X103944117Y-79870121D01*
X103933730Y-79908885D01*
X103899500Y-80168872D01*
X103899500Y-80431127D01*
X103912124Y-80527007D01*
X103933730Y-80691116D01*
X104001602Y-80944418D01*
X104001605Y-80944428D01*
X104101953Y-81186690D01*
X104101958Y-81186700D01*
X104233075Y-81413802D01*
X104295007Y-81494514D01*
X104320201Y-81559683D01*
X104306162Y-81628128D01*
X104295007Y-81645486D01*
X104233075Y-81726197D01*
X104101958Y-81953299D01*
X104101953Y-81953309D01*
X104001605Y-82195571D01*
X104001602Y-82195581D01*
X103933730Y-82448884D01*
X103929926Y-82477772D01*
X103899500Y-82708872D01*
X103899500Y-82971127D01*
X103923823Y-83155869D01*
X103913058Y-83224905D01*
X103888565Y-83259736D01*
X87241786Y-99906517D01*
X87116519Y-100031783D01*
X87116519Y-100031784D01*
X87116517Y-100031786D01*
X87071796Y-100093338D01*
X87012386Y-100175109D01*
X86931957Y-100332957D01*
X86931955Y-100332963D01*
X86881298Y-100488876D01*
X86881297Y-100488881D01*
X86877213Y-100501447D01*
X86877213Y-100501448D01*
X86849500Y-100676421D01*
X86849500Y-118314971D01*
X86829815Y-118382010D01*
X86800988Y-118413346D01*
X86752254Y-118450741D01*
X86752253Y-118450743D01*
X86580739Y-118622256D01*
X86580733Y-118622263D01*
X86433067Y-118814706D01*
X86311777Y-119024785D01*
X86311773Y-119024794D01*
X86218947Y-119248895D01*
X86156161Y-119483214D01*
X86124500Y-119723711D01*
X79500500Y-119723711D01*
X79500500Y-56793646D01*
X79799500Y-56793646D01*
X79799500Y-57206353D01*
X79839952Y-57617084D01*
X79920464Y-58021848D01*
X79920467Y-58021859D01*
X80040274Y-58416814D01*
X80198214Y-58798113D01*
X80198216Y-58798118D01*
X80392759Y-59162081D01*
X80392770Y-59162099D01*
X80622052Y-59505244D01*
X80622062Y-59505258D01*
X80883885Y-59824291D01*
X81175708Y-60116114D01*
X81175713Y-60116118D01*
X81175714Y-60116119D01*
X81494747Y-60377942D01*
X81837907Y-60607234D01*
X81837916Y-60607239D01*
X81837918Y-60607240D01*
X82201881Y-60801783D01*
X82201883Y-60801783D01*
X82201889Y-60801787D01*
X82583187Y-60959726D01*
X82978131Y-61079530D01*
X82978137Y-61079531D01*
X82978140Y-61079532D01*
X82978151Y-61079535D01*
X83382915Y-61160047D01*
X83793643Y-61200500D01*
X83793646Y-61200500D01*
X84206354Y-61200500D01*
X84206357Y-61200500D01*
X84617085Y-61160047D01*
X84695884Y-61144372D01*
X85021848Y-61079535D01*
X85021859Y-61079532D01*
X85021859Y-61079531D01*
X85021869Y-61079530D01*
X85416813Y-60959726D01*
X85798111Y-60801787D01*
X86162093Y-60607234D01*
X86505253Y-60377942D01*
X86824286Y-60116119D01*
X86848439Y-60091966D01*
X89949500Y-60091966D01*
X89949500Y-61908028D01*
X89949501Y-61908034D01*
X89960113Y-62027415D01*
X90016089Y-62223045D01*
X90016090Y-62223048D01*
X90016091Y-62223049D01*
X90110302Y-62403407D01*
X90110304Y-62403409D01*
X90238890Y-62561109D01*
X90332803Y-62637684D01*
X90396593Y-62689698D01*
X90576951Y-62783909D01*
X90772582Y-62839886D01*
X90891963Y-62850500D01*
X92708036Y-62850499D01*
X92827418Y-62839886D01*
X93023049Y-62783909D01*
X93203407Y-62689698D01*
X93361109Y-62561109D01*
X93489698Y-62403407D01*
X93565510Y-62258271D01*
X93613993Y-62207968D01*
X93681981Y-62191860D01*
X93731711Y-62205202D01*
X93821775Y-62251092D01*
X93821779Y-62251094D01*
X94023870Y-62316757D01*
X94233754Y-62350000D01*
X94446246Y-62350000D01*
X94656127Y-62316757D01*
X94656130Y-62316757D01*
X94858217Y-62251095D01*
X95047554Y-62154622D01*
X95197606Y-62045603D01*
X95263413Y-62022123D01*
X95331467Y-62037948D01*
X95368868Y-62070434D01*
X95485733Y-62222736D01*
X95485739Y-62222743D01*
X95657256Y-62394260D01*
X95657263Y-62394266D01*
X95670947Y-62404766D01*
X95849711Y-62541936D01*
X96059788Y-62663224D01*
X96255269Y-62744195D01*
X96268772Y-62749788D01*
X96283900Y-62756054D01*
X96518211Y-62818838D01*
X96698586Y-62842584D01*
X96758711Y-62850500D01*
X96758712Y-62850500D01*
X97001289Y-62850500D01*
X97049388Y-62844167D01*
X97241789Y-62818838D01*
X97476100Y-62756054D01*
X97700212Y-62663224D01*
X97910289Y-62541936D01*
X98074514Y-62415922D01*
X98139683Y-62390728D01*
X98208128Y-62404766D01*
X98225486Y-62415922D01*
X98389711Y-62541936D01*
X98599788Y-62663224D01*
X98795269Y-62744195D01*
X98808772Y-62749788D01*
X98823900Y-62756054D01*
X99058211Y-62818838D01*
X99238586Y-62842584D01*
X99298711Y-62850500D01*
X99298712Y-62850500D01*
X99541289Y-62850500D01*
X99589388Y-62844167D01*
X99781789Y-62818838D01*
X100016100Y-62756054D01*
X100240212Y-62663224D01*
X100450289Y-62541936D01*
X100642738Y-62394265D01*
X100814265Y-62222738D01*
X100961936Y-62030289D01*
X101083224Y-61820212D01*
X101176054Y-61596100D01*
X101238838Y-61361789D01*
X101270500Y-61121288D01*
X101270500Y-60878712D01*
X101238838Y-60638211D01*
X101176054Y-60403900D01*
X101083224Y-60179788D01*
X100961936Y-59969711D01*
X100814265Y-59777262D01*
X100814260Y-59777256D01*
X100642743Y-59605739D01*
X100642736Y-59605733D01*
X100537858Y-59525258D01*
X104569500Y-59525258D01*
X104569500Y-59754741D01*
X104591822Y-59924286D01*
X104599452Y-59982238D01*
X104635324Y-60116114D01*
X104658842Y-60203887D01*
X104746650Y-60415876D01*
X104746656Y-60415888D01*
X104857126Y-60607229D01*
X104861392Y-60614617D01*
X105001081Y-60796661D01*
X105001089Y-60796670D01*
X105163330Y-60958911D01*
X105163338Y-60958918D01*
X105163339Y-60958919D01*
X105213962Y-60997764D01*
X105345382Y-61098607D01*
X105345385Y-61098608D01*
X105345388Y-61098611D01*
X105544112Y-61213344D01*
X105544117Y-61213346D01*
X105544123Y-61213349D01*
X105635480Y-61251190D01*
X105756113Y-61301158D01*
X105977762Y-61360548D01*
X106205266Y-61390500D01*
X106205273Y-61390500D01*
X106434727Y-61390500D01*
X106434734Y-61390500D01*
X106662238Y-61360548D01*
X106883887Y-61301158D01*
X107095888Y-61213344D01*
X107294612Y-61098611D01*
X107476661Y-60958919D01*
X107476665Y-60958914D01*
X107476670Y-60958911D01*
X107638911Y-60796670D01*
X107638914Y-60796665D01*
X107638919Y-60796661D01*
X107778611Y-60614612D01*
X107893344Y-60415888D01*
X107981158Y-60203887D01*
X108040548Y-59982238D01*
X108070500Y-59754734D01*
X108070500Y-59525266D01*
X108040548Y-59297762D01*
X107981158Y-59076113D01*
X107893344Y-58864112D01*
X107778611Y-58665388D01*
X107778608Y-58665385D01*
X107778607Y-58665382D01*
X107638918Y-58483338D01*
X107638911Y-58483330D01*
X107476670Y-58321089D01*
X107476661Y-58321081D01*
X107294617Y-58181392D01*
X107095890Y-58066657D01*
X107095876Y-58066650D01*
X106883887Y-57978842D01*
X106662238Y-57919452D01*
X106624215Y-57914446D01*
X106434741Y-57889500D01*
X106434734Y-57889500D01*
X106205266Y-57889500D01*
X106205258Y-57889500D01*
X105988715Y-57918009D01*
X105977762Y-57919452D01*
X105884076Y-57944554D01*
X105756112Y-57978842D01*
X105544123Y-58066650D01*
X105544109Y-58066657D01*
X105345382Y-58181392D01*
X105163338Y-58321081D01*
X105001081Y-58483338D01*
X104861392Y-58665382D01*
X104746657Y-58864109D01*
X104746650Y-58864123D01*
X104658842Y-59076112D01*
X104599453Y-59297759D01*
X104599451Y-59297770D01*
X104569500Y-59525258D01*
X100537858Y-59525258D01*
X100450293Y-59458067D01*
X100450292Y-59458066D01*
X100450289Y-59458064D01*
X100240212Y-59336776D01*
X100176303Y-59310304D01*
X100016104Y-59243947D01*
X99781785Y-59181161D01*
X99541289Y-59149500D01*
X99541288Y-59149500D01*
X99298712Y-59149500D01*
X99298711Y-59149500D01*
X99058214Y-59181161D01*
X98823895Y-59243947D01*
X98599794Y-59336773D01*
X98599785Y-59336777D01*
X98389706Y-59458067D01*
X98225486Y-59584077D01*
X98160317Y-59609271D01*
X98091872Y-59595232D01*
X98074514Y-59584077D01*
X97910293Y-59458067D01*
X97910292Y-59458066D01*
X97910289Y-59458064D01*
X97700212Y-59336776D01*
X97636303Y-59310304D01*
X97476104Y-59243947D01*
X97241785Y-59181161D01*
X97001289Y-59149500D01*
X97001288Y-59149500D01*
X96758712Y-59149500D01*
X96758711Y-59149500D01*
X96518214Y-59181161D01*
X96283895Y-59243947D01*
X96059794Y-59336773D01*
X96059785Y-59336777D01*
X95849706Y-59458067D01*
X95657263Y-59605733D01*
X95657256Y-59605739D01*
X95485739Y-59777256D01*
X95485733Y-59777263D01*
X95368869Y-59929564D01*
X95312441Y-59970767D01*
X95242695Y-59974922D01*
X95197608Y-59954396D01*
X95047557Y-59845379D01*
X94858217Y-59748904D01*
X94656129Y-59683242D01*
X94446246Y-59650000D01*
X94233754Y-59650000D01*
X94023872Y-59683242D01*
X94023869Y-59683242D01*
X93821782Y-59748904D01*
X93731711Y-59794798D01*
X93663041Y-59807694D01*
X93598301Y-59781417D01*
X93565509Y-59741727D01*
X93489698Y-59596593D01*
X93465958Y-59567479D01*
X93361109Y-59438890D01*
X93203409Y-59310304D01*
X93203410Y-59310304D01*
X93203407Y-59310302D01*
X93023049Y-59216091D01*
X93023048Y-59216090D01*
X93023045Y-59216089D01*
X92905829Y-59182550D01*
X92827418Y-59160114D01*
X92827415Y-59160113D01*
X92827413Y-59160113D01*
X92761102Y-59154217D01*
X92708037Y-59149500D01*
X92708032Y-59149500D01*
X90891971Y-59149500D01*
X90891965Y-59149500D01*
X90891964Y-59149501D01*
X90880316Y-59150536D01*
X90772584Y-59160113D01*
X90576954Y-59216089D01*
X90488885Y-59262093D01*
X90396593Y-59310302D01*
X90396591Y-59310303D01*
X90396590Y-59310304D01*
X90238890Y-59438890D01*
X90110304Y-59596590D01*
X90110302Y-59596593D01*
X90105776Y-59605258D01*
X90016089Y-59776954D01*
X89985384Y-59884266D01*
X89960634Y-59970767D01*
X89960114Y-59972583D01*
X89960113Y-59972586D01*
X89949500Y-60091966D01*
X86848439Y-60091966D01*
X86848442Y-60091963D01*
X86938873Y-60001533D01*
X87116114Y-59824291D01*
X87116119Y-59824286D01*
X87377942Y-59505253D01*
X87607234Y-59162093D01*
X87801787Y-58798111D01*
X87959726Y-58416813D01*
X88079530Y-58021869D01*
X88079532Y-58021859D01*
X88079535Y-58021848D01*
X88160047Y-57617084D01*
X88200500Y-57206353D01*
X88200500Y-56793646D01*
X88188436Y-56671161D01*
X88160047Y-56382915D01*
X88079535Y-55978151D01*
X88079532Y-55978140D01*
X88079531Y-55978137D01*
X88079530Y-55978131D01*
X87959726Y-55583187D01*
X87801787Y-55201889D01*
X87607234Y-54837907D01*
X87377942Y-54494747D01*
X87116119Y-54175714D01*
X87116118Y-54175713D01*
X87116114Y-54175708D01*
X86824291Y-53883885D01*
X86505258Y-53622062D01*
X86505257Y-53622061D01*
X86505253Y-53622058D01*
X86162093Y-53392766D01*
X86162088Y-53392763D01*
X86162081Y-53392759D01*
X85798118Y-53198216D01*
X85798113Y-53198214D01*
X85416814Y-53040274D01*
X85021859Y-52920467D01*
X85021848Y-52920464D01*
X84617084Y-52839952D01*
X84307741Y-52809485D01*
X84206357Y-52799500D01*
X83793643Y-52799500D01*
X83699966Y-52808726D01*
X83382915Y-52839952D01*
X82978151Y-52920464D01*
X82978140Y-52920467D01*
X82583185Y-53040274D01*
X82201886Y-53198214D01*
X82201881Y-53198216D01*
X81837918Y-53392759D01*
X81837900Y-53392770D01*
X81494755Y-53622052D01*
X81494741Y-53622062D01*
X81175708Y-53883885D01*
X80883885Y-54175708D01*
X80622062Y-54494741D01*
X80622052Y-54494755D01*
X80392770Y-54837900D01*
X80392759Y-54837918D01*
X80198216Y-55201881D01*
X80198214Y-55201886D01*
X80040274Y-55583185D01*
X79920467Y-55978140D01*
X79920464Y-55978151D01*
X79839952Y-56382915D01*
X79799500Y-56793646D01*
X79500500Y-56793646D01*
X79500500Y-52624500D01*
X79520185Y-52557461D01*
X79572989Y-52511706D01*
X79624500Y-52500500D01*
X165675500Y-52500500D01*
X165742539Y-52520185D01*
G37*
%TD.AperFunction*%
%TD*%
M02*
