%TF.GenerationSoftware,KiCad,Pcbnew,9.0.4*%
%TF.CreationDate,2025-11-06T03:01:08+05:30*%
%TF.ProjectId,project005,70726f6a-6563-4743-9030-352e6b696361,rev?*%
%TF.SameCoordinates,Original*%
%TF.FileFunction,Copper,L2,Bot*%
%TF.FilePolarity,Positive*%
%FSLAX46Y46*%
G04 Gerber Fmt 4.6, Leading zero omitted, Abs format (unit mm)*
G04 Created by KiCad (PCBNEW 9.0.4) date 2025-11-06 03:01:08*
%MOMM*%
%LPD*%
G01*
G04 APERTURE LIST*
%TA.AperFunction,ComponentPad*%
%ADD10C,6.400000*%
%TD*%
%TA.AperFunction,ComponentPad*%
%ADD11R,1.700000X1.700000*%
%TD*%
%TA.AperFunction,ComponentPad*%
%ADD12C,1.700000*%
%TD*%
%TA.AperFunction,ComponentPad*%
%ADD13R,2.000000X2.000000*%
%TD*%
%TA.AperFunction,ComponentPad*%
%ADD14C,2.000000*%
%TD*%
%TA.AperFunction,ViaPad*%
%ADD15C,1.000000*%
%TD*%
%TA.AperFunction,Conductor*%
%ADD16C,0.250000*%
%TD*%
%TA.AperFunction,Conductor*%
%ADD17C,0.800000*%
%TD*%
G04 APERTURE END LIST*
D10*
%TO.P,REF\u002A\u002A,1*%
%TO.N,N/C*%
X161200000Y-57100000D03*
%TD*%
D11*
%TO.P,Lightsensor1,1,Pin_1*%
%TO.N,VCC*%
X146375000Y-68650000D03*
D12*
%TO.P,Lightsensor1,2,Pin_2*%
%TO.N,Net-(Lightsensor1-Pin_2)*%
X146375000Y-66110000D03*
%TO.P,Lightsensor1,3,Pin_3*%
%TO.N,Net-(Lightsensor1-Pin_3)*%
X146375000Y-63570000D03*
%TO.P,Lightsensor1,4,Pin_4*%
%TO.N,GND*%
X146375000Y-61030000D03*
%TO.P,Lightsensor1,5,Pin_5*%
%TO.N,unconnected-(Lightsensor1-Pin_5-Pad5)*%
X146375000Y-58490000D03*
%TD*%
D10*
%TO.P,REF\u002A\u002A,1*%
%TO.N,N/C*%
X161200000Y-138700000D03*
%TD*%
%TO.P,REF\u002A\u002A,1*%
%TO.N,N/C*%
X84200000Y-138900000D03*
%TD*%
D11*
%TO.P,Waterlevel1,1,Pin_1*%
%TO.N,Net-(U1-D34)*%
X153540000Y-91000000D03*
D12*
%TO.P,Waterlevel1,2,Pin_2*%
%TO.N,VCC*%
X151000000Y-91000000D03*
%TO.P,Waterlevel1,3,Pin_3*%
%TO.N,GND*%
X148460000Y-91000000D03*
%TD*%
D10*
%TO.P,REF\u002A\u002A,1*%
%TO.N,N/C*%
X84000000Y-57000000D03*
%TD*%
D11*
%TO.P,DHT22,1,Pin_1*%
%TO.N,GND*%
X87975000Y-124925000D03*
D12*
%TO.P,DHT22,2,Pin_2*%
%TO.N,VCC*%
X87975000Y-122385000D03*
%TO.P,DHT22,3,Pin_3*%
%TO.N,Net-(DHT22-Pin_3)*%
X87975000Y-119845000D03*
%TD*%
D11*
%TO.P,OLED1,1,Pin_1*%
%TO.N,VCC*%
X91800000Y-61000000D03*
D12*
%TO.P,OLED1,2,Pin_2*%
%TO.N,GND*%
X94340000Y-61000000D03*
%TO.P,OLED1,3,Pin_3*%
%TO.N,Net-(Lightsensor1-Pin_2)*%
X96880000Y-61000000D03*
%TO.P,OLED1,4,Pin_4*%
%TO.N,Net-(Lightsensor1-Pin_3)*%
X99420000Y-61000000D03*
%TD*%
D11*
%TO.P,soilmoisture1,1,Pin_1*%
%TO.N,Net-(U1-VP)*%
X121940000Y-131600000D03*
D12*
%TO.P,soilmoisture1,2,Pin_2*%
%TO.N,unconnected-(soilmoisture1-Pin_2-Pad2)*%
X119400000Y-131600000D03*
%TO.P,soilmoisture1,3,Pin_3*%
%TO.N,GND*%
X116860000Y-131600000D03*
%TO.P,soilmoisture1,4,Pin_4*%
%TO.N,VCC*%
X114320000Y-131600000D03*
%TD*%
D11*
%TO.P,Relay1,1,Pin_1*%
%TO.N,Net-(Relay1-Pin_1)*%
X157100000Y-68020000D03*
D12*
%TO.P,Relay1,2,Pin_2*%
%TO.N,unconnected-(Relay1-Pin_2-Pad2)*%
X157100000Y-70560000D03*
%TO.P,Relay1,3,Pin_3*%
%TO.N,unconnected-(Relay1-Pin_3-Pad3)*%
X157100000Y-73100000D03*
%TO.P,Relay1,4,Pin_4*%
%TO.N,Net-(Relay1-Pin_4)*%
X157100000Y-75640000D03*
%TO.P,Relay1,5,Pin_5*%
%TO.N,Net-(Relay1-Pin_5)*%
X157100000Y-78180000D03*
%TO.P,Relay1,6,Pin_6*%
%TO.N,GND*%
X157100000Y-80720000D03*
%TD*%
D11*
%TO.P,buzzer1,1,Pin_1*%
%TO.N,GND*%
X142000000Y-115000000D03*
D12*
%TO.P,buzzer1,2,Pin_2*%
%TO.N,Net-(U1-D25)*%
X139460000Y-115000000D03*
%TD*%
D11*
%TO.P,J1,1,Pin_1*%
%TO.N,VCC*%
X159600000Y-119540000D03*
D12*
%TO.P,J1,2,Pin_2*%
%TO.N,GND*%
X159600000Y-117000000D03*
%TO.P,J1,3,Pin_3*%
%TO.N,unconnected-(J1-Pin_3-Pad3)*%
X159600000Y-114460000D03*
%TO.P,J1,4,Pin_4*%
%TO.N,Net-(J1-Pin_4)*%
X159600000Y-111920000D03*
%TD*%
D13*
%TO.P,U1,1,3V3*%
%TO.N,VCC*%
X105900000Y-67600000D03*
D14*
%TO.P,U1,2,GND*%
%TO.N,GND*%
X105900000Y-70140000D03*
%TO.P,U1,3,D15*%
%TO.N,unconnected-(U1-D15-Pad3)*%
X105900000Y-72680000D03*
%TO.P,U1,4,D2*%
%TO.N,unconnected-(U1-D2-Pad4)*%
X105900000Y-75220000D03*
%TO.P,U1,5,D4*%
%TO.N,unconnected-(U1-D4-Pad5)*%
X105900000Y-77760000D03*
%TO.P,U1,6,RX2*%
%TO.N,unconnected-(U1-RX2-Pad6)*%
X105900000Y-80300000D03*
%TO.P,U1,7,TX2*%
%TO.N,Net-(DHT22-Pin_3)*%
X105900000Y-82840000D03*
%TO.P,U1,8,D5*%
%TO.N,unconnected-(U1-D5-Pad8)*%
X105900000Y-85380000D03*
%TO.P,U1,9,D18*%
%TO.N,unconnected-(U1-D18-Pad9)*%
X105900000Y-87920000D03*
%TO.P,U1,10,D19*%
%TO.N,unconnected-(U1-D19-Pad10)*%
X105900000Y-90460000D03*
%TO.P,U1,11,D21*%
%TO.N,Net-(Lightsensor1-Pin_3)*%
X105900000Y-93000000D03*
%TO.P,U1,12,RX0*%
%TO.N,unconnected-(U1-RX0-Pad12)*%
X105900000Y-95540000D03*
%TO.P,U1,13,TX0*%
%TO.N,unconnected-(U1-TX0-Pad13)*%
X105900000Y-98080000D03*
%TO.P,U1,14,D22*%
%TO.N,Net-(Lightsensor1-Pin_2)*%
X105900000Y-100620000D03*
%TO.P,U1,15,D23*%
%TO.N,unconnected-(U1-D23-Pad15)*%
X105900000Y-103160000D03*
%TO.P,U1,16,EN*%
%TO.N,unconnected-(U1-EN-Pad16)*%
X131300000Y-103160000D03*
%TO.P,U1,17,VP*%
%TO.N,Net-(U1-VP)*%
X131300000Y-100620000D03*
%TO.P,U1,18,VN*%
%TO.N,Net-(J1-Pin_4)*%
X131300000Y-98080000D03*
%TO.P,U1,19,D34*%
%TO.N,Net-(U1-D34)*%
X131300000Y-95540000D03*
%TO.P,U1,20,D35*%
%TO.N,unconnected-(U1-D35-Pad20)*%
X131300000Y-93000000D03*
%TO.P,U1,21,D32*%
%TO.N,unconnected-(U1-D32-Pad21)*%
X131300000Y-90460000D03*
%TO.P,U1,22,D33*%
%TO.N,unconnected-(U1-D33-Pad22)*%
X131300000Y-87920000D03*
%TO.P,U1,23,D25*%
%TO.N,Net-(U1-D25)*%
X131300000Y-85380000D03*
%TO.P,U1,24,D26*%
%TO.N,Net-(Relay1-Pin_5)*%
X131300000Y-82840000D03*
%TO.P,U1,25,D27*%
%TO.N,Net-(Relay1-Pin_4)*%
X131300000Y-80300000D03*
%TO.P,U1,26,D14*%
%TO.N,unconnected-(U1-D14-Pad26)*%
X131300000Y-77760000D03*
%TO.P,U1,27,D12*%
%TO.N,unconnected-(U1-D12-Pad27)*%
X131300000Y-75220000D03*
%TO.P,U1,28,D13*%
%TO.N,unconnected-(U1-D13-Pad28)*%
X131300000Y-72680000D03*
%TO.P,U1,29,GND*%
%TO.N,GND*%
X131300000Y-70140000D03*
%TO.P,U1,30,VIN*%
%TO.N,Net-(Relay1-Pin_1)*%
X131300000Y-67600000D03*
%TD*%
D15*
%TO.N,Net-(Lightsensor1-Pin_2)*%
X137900000Y-66000000D03*
%TO.N,Net-(Lightsensor1-Pin_3)*%
X139500000Y-63600000D03*
%TD*%
D16*
%TO.N,Net-(U1-D25)*%
X139460000Y-93540000D02*
X131300000Y-85380000D01*
X139460000Y-115000000D02*
X139460000Y-93540000D01*
%TO.N,Net-(Lightsensor1-Pin_2)*%
X138180000Y-66000000D02*
X138290000Y-66110000D01*
X96880000Y-61000000D02*
X93600000Y-64280000D01*
X93600000Y-64280000D02*
X93600000Y-88320000D01*
X138290000Y-66110000D02*
X146375000Y-66110000D01*
X93600000Y-88320000D02*
X105900000Y-100620000D01*
X137900000Y-66000000D02*
X138180000Y-66000000D01*
%TO.N,Net-(Lightsensor1-Pin_3)*%
X96100000Y-83200000D02*
X105900000Y-93000000D01*
X139500000Y-63600000D02*
X146345000Y-63600000D01*
X146345000Y-63600000D02*
X146375000Y-63570000D01*
X96100000Y-64320000D02*
X96100000Y-83200000D01*
X99420000Y-61000000D02*
X96100000Y-64320000D01*
%TO.N,GND*%
X144000000Y-117000000D02*
X159600000Y-117000000D01*
X142000000Y-97460000D02*
X148460000Y-91000000D01*
X140410000Y-61030000D02*
X146375000Y-61030000D01*
X148460000Y-87300000D02*
X148460000Y-91000000D01*
X131300000Y-70140000D02*
X105900000Y-70140000D01*
X131300000Y-70140000D02*
X148460000Y-87300000D01*
X116860000Y-131600000D02*
X121960000Y-126500000D01*
X142000000Y-115000000D02*
X144000000Y-117000000D01*
X130500000Y-126500000D02*
X142000000Y-115000000D01*
X121960000Y-126500000D02*
X130500000Y-126500000D01*
X131300000Y-70140000D02*
X140410000Y-61030000D01*
X142000000Y-115000000D02*
X142000000Y-97460000D01*
D17*
%TO.N,VCC*%
X151000000Y-92202081D02*
X163000000Y-104202081D01*
X105900000Y-63600000D02*
X105900000Y-67600000D01*
X114320000Y-131600000D02*
X117520000Y-134800000D01*
X151000000Y-91000000D02*
X151000000Y-92202081D01*
X95500000Y-57300000D02*
X99600000Y-57300000D01*
X87975000Y-122385000D02*
X105105000Y-122385000D01*
X99600000Y-57300000D02*
X105900000Y-63600000D01*
X151000000Y-73275000D02*
X151000000Y-91000000D01*
X163000000Y-104202081D02*
X163000000Y-116140000D01*
X105105000Y-122385000D02*
X114320000Y-131600000D01*
X144340000Y-134800000D02*
X159600000Y-119540000D01*
X146375000Y-68650000D02*
X151000000Y-73275000D01*
X163000000Y-116140000D02*
X159600000Y-119540000D01*
X117520000Y-134800000D02*
X144340000Y-134800000D01*
X91800000Y-61000000D02*
X95500000Y-57300000D01*
%TD*%
%TA.AperFunction,Conductor*%
%TO.N,GND*%
G36*
X165742539Y-52520185D02*
G01*
X165788294Y-52572989D01*
X165799500Y-52624500D01*
X165799500Y-143275500D01*
X165779815Y-143342539D01*
X165727011Y-143388294D01*
X165675500Y-143399500D01*
X79624500Y-143399500D01*
X79557461Y-143379815D01*
X79511706Y-143327011D01*
X79500500Y-143275500D01*
X79500500Y-138693646D01*
X79999500Y-138693646D01*
X79999500Y-139106353D01*
X80039952Y-139517084D01*
X80120464Y-139921848D01*
X80120467Y-139921859D01*
X80240274Y-140316814D01*
X80398214Y-140698113D01*
X80398216Y-140698118D01*
X80592759Y-141062081D01*
X80592770Y-141062099D01*
X80822052Y-141405244D01*
X80822062Y-141405258D01*
X81083885Y-141724291D01*
X81375708Y-142016114D01*
X81375713Y-142016118D01*
X81375714Y-142016119D01*
X81694747Y-142277942D01*
X82037907Y-142507234D01*
X82037916Y-142507239D01*
X82037918Y-142507240D01*
X82401881Y-142701783D01*
X82401883Y-142701783D01*
X82401889Y-142701787D01*
X82783187Y-142859726D01*
X83178131Y-142979530D01*
X83178137Y-142979531D01*
X83178140Y-142979532D01*
X83178151Y-142979535D01*
X83582915Y-143060047D01*
X83993643Y-143100500D01*
X83993646Y-143100500D01*
X84406354Y-143100500D01*
X84406357Y-143100500D01*
X84817085Y-143060047D01*
X84895884Y-143044372D01*
X85221848Y-142979535D01*
X85221859Y-142979532D01*
X85221859Y-142979531D01*
X85221869Y-142979530D01*
X85616813Y-142859726D01*
X85998111Y-142701787D01*
X86362093Y-142507234D01*
X86705253Y-142277942D01*
X87024286Y-142016119D01*
X87316119Y-141724286D01*
X87577942Y-141405253D01*
X87807234Y-141062093D01*
X88001787Y-140698111D01*
X88159726Y-140316813D01*
X88279530Y-139921869D01*
X88279532Y-139921859D01*
X88279535Y-139921848D01*
X88360047Y-139517084D01*
X88400500Y-139106353D01*
X88400500Y-138693646D01*
X88381699Y-138502753D01*
X88380802Y-138493646D01*
X156999500Y-138493646D01*
X156999500Y-138906353D01*
X157039952Y-139317084D01*
X157120464Y-139721848D01*
X157120467Y-139721859D01*
X157240274Y-140116814D01*
X157398214Y-140498113D01*
X157398216Y-140498118D01*
X157592759Y-140862081D01*
X157592770Y-140862099D01*
X157822052Y-141205244D01*
X157822062Y-141205258D01*
X158083885Y-141524291D01*
X158375708Y-141816114D01*
X158375713Y-141816118D01*
X158375714Y-141816119D01*
X158694747Y-142077942D01*
X159037907Y-142307234D01*
X159037916Y-142307239D01*
X159037918Y-142307240D01*
X159401881Y-142501783D01*
X159401883Y-142501783D01*
X159401889Y-142501787D01*
X159783187Y-142659726D01*
X160178131Y-142779530D01*
X160178137Y-142779531D01*
X160178140Y-142779532D01*
X160178151Y-142779535D01*
X160581296Y-142859725D01*
X160582915Y-142860047D01*
X160993643Y-142900500D01*
X160993646Y-142900500D01*
X161406354Y-142900500D01*
X161406357Y-142900500D01*
X161817085Y-142860047D01*
X161895884Y-142844372D01*
X162221848Y-142779535D01*
X162221859Y-142779532D01*
X162221859Y-142779531D01*
X162221869Y-142779530D01*
X162616813Y-142659726D01*
X162998111Y-142501787D01*
X163362093Y-142307234D01*
X163705253Y-142077942D01*
X164024286Y-141816119D01*
X164316119Y-141524286D01*
X164577942Y-141205253D01*
X164807234Y-140862093D01*
X165001787Y-140498111D01*
X165159726Y-140116813D01*
X165279530Y-139721869D01*
X165279532Y-139721859D01*
X165279535Y-139721848D01*
X165360047Y-139317084D01*
X165400500Y-138906353D01*
X165400500Y-138493646D01*
X165360047Y-138082915D01*
X165279535Y-137678151D01*
X165279532Y-137678140D01*
X165279531Y-137678137D01*
X165279530Y-137678131D01*
X165159726Y-137283187D01*
X165001787Y-136901889D01*
X164914142Y-136737918D01*
X164807240Y-136537918D01*
X164807239Y-136537916D01*
X164807234Y-136537907D01*
X164577942Y-136194747D01*
X164316119Y-135875714D01*
X164316118Y-135875713D01*
X164316114Y-135875708D01*
X164024291Y-135583885D01*
X163705258Y-135322062D01*
X163705257Y-135322061D01*
X163705253Y-135322058D01*
X163362093Y-135092766D01*
X163362088Y-135092763D01*
X163362081Y-135092759D01*
X162998118Y-134898216D01*
X162998113Y-134898214D01*
X162616814Y-134740274D01*
X162221859Y-134620467D01*
X162221848Y-134620464D01*
X161817084Y-134539952D01*
X161507741Y-134509485D01*
X161406357Y-134499500D01*
X160993643Y-134499500D01*
X160899966Y-134508726D01*
X160582915Y-134539952D01*
X160178151Y-134620464D01*
X160178140Y-134620467D01*
X159783185Y-134740274D01*
X159401886Y-134898214D01*
X159401881Y-134898216D01*
X159037918Y-135092759D01*
X159037900Y-135092770D01*
X158694755Y-135322052D01*
X158694741Y-135322062D01*
X158375708Y-135583885D01*
X158083885Y-135875708D01*
X157822062Y-136194741D01*
X157822052Y-136194755D01*
X157592770Y-136537900D01*
X157592759Y-136537918D01*
X157398216Y-136901881D01*
X157398214Y-136901886D01*
X157240274Y-137283185D01*
X157120467Y-137678140D01*
X157120464Y-137678151D01*
X157039952Y-138082915D01*
X156999500Y-138493646D01*
X88380802Y-138493646D01*
X88360047Y-138282915D01*
X88279535Y-137878151D01*
X88279532Y-137878140D01*
X88279531Y-137878137D01*
X88279530Y-137878131D01*
X88159726Y-137483187D01*
X88001787Y-137101889D01*
X87894884Y-136901889D01*
X87807240Y-136737918D01*
X87807239Y-136737916D01*
X87807234Y-136737907D01*
X87577942Y-136394747D01*
X87316119Y-136075714D01*
X87316118Y-136075713D01*
X87316114Y-136075708D01*
X87024291Y-135783885D01*
X86705258Y-135522062D01*
X86705257Y-135522061D01*
X86705253Y-135522058D01*
X86362093Y-135292766D01*
X86362088Y-135292763D01*
X86362081Y-135292759D01*
X85998118Y-135098216D01*
X85998113Y-135098214D01*
X85984960Y-135092766D01*
X85886433Y-135051954D01*
X85616814Y-134940274D01*
X85221859Y-134820467D01*
X85221848Y-134820464D01*
X84817084Y-134739952D01*
X84507741Y-134709485D01*
X84406357Y-134699500D01*
X83993643Y-134699500D01*
X83899966Y-134708726D01*
X83582915Y-134739952D01*
X83178151Y-134820464D01*
X83178140Y-134820467D01*
X82783185Y-134940274D01*
X82401886Y-135098214D01*
X82401881Y-135098216D01*
X82037918Y-135292759D01*
X82037900Y-135292770D01*
X81694755Y-135522052D01*
X81694741Y-135522062D01*
X81375708Y-135783885D01*
X81083885Y-136075708D01*
X80822062Y-136394741D01*
X80822052Y-136394755D01*
X80592770Y-136737900D01*
X80592759Y-136737918D01*
X80398216Y-137101881D01*
X80398214Y-137101886D01*
X80240274Y-137483185D01*
X80120467Y-137878140D01*
X80120464Y-137878151D01*
X80039952Y-138282915D01*
X79999500Y-138693646D01*
X79500500Y-138693646D01*
X79500500Y-119723711D01*
X86124500Y-119723711D01*
X86124500Y-119966288D01*
X86156161Y-120206785D01*
X86218947Y-120441104D01*
X86271268Y-120567418D01*
X86311776Y-120665212D01*
X86433064Y-120875289D01*
X86433066Y-120875292D01*
X86433067Y-120875293D01*
X86559077Y-121039514D01*
X86584271Y-121104683D01*
X86570232Y-121173128D01*
X86559077Y-121190486D01*
X86433067Y-121354706D01*
X86311777Y-121564785D01*
X86311773Y-121564794D01*
X86218947Y-121788895D01*
X86156161Y-122023214D01*
X86124500Y-122263711D01*
X86124500Y-122506288D01*
X86156161Y-122746785D01*
X86218947Y-122981104D01*
X86311773Y-123205205D01*
X86311776Y-123205212D01*
X86433064Y-123415289D01*
X86433066Y-123415292D01*
X86433067Y-123415293D01*
X86580733Y-123607736D01*
X86580739Y-123607743D01*
X86659896Y-123686900D01*
X86693381Y-123748223D01*
X86688397Y-123817915D01*
X86682082Y-123831741D01*
X86631403Y-123967620D01*
X86631401Y-123967627D01*
X86625000Y-124027155D01*
X86625000Y-124675000D01*
X87541988Y-124675000D01*
X87509075Y-124732007D01*
X87475000Y-124859174D01*
X87475000Y-124990826D01*
X87509075Y-125117993D01*
X87541988Y-125175000D01*
X86625000Y-125175000D01*
X86625000Y-125822844D01*
X86631401Y-125882372D01*
X86631403Y-125882379D01*
X86681645Y-126017086D01*
X86681649Y-126017093D01*
X86767809Y-126132187D01*
X86767812Y-126132190D01*
X86882906Y-126218350D01*
X86882913Y-126218354D01*
X87017620Y-126268596D01*
X87017627Y-126268598D01*
X87077155Y-126274999D01*
X87077172Y-126275000D01*
X87725000Y-126275000D01*
X87725000Y-125358012D01*
X87782007Y-125390925D01*
X87909174Y-125425000D01*
X88040826Y-125425000D01*
X88167993Y-125390925D01*
X88225000Y-125358012D01*
X88225000Y-126275000D01*
X88872828Y-126275000D01*
X88872844Y-126274999D01*
X88932372Y-126268598D01*
X88932379Y-126268596D01*
X89067086Y-126218354D01*
X89067093Y-126218350D01*
X89182187Y-126132190D01*
X89182190Y-126132187D01*
X89268350Y-126017093D01*
X89268354Y-126017086D01*
X89318596Y-125882379D01*
X89318598Y-125882372D01*
X89324999Y-125822844D01*
X89325000Y-125822827D01*
X89325000Y-125175000D01*
X88408012Y-125175000D01*
X88440925Y-125117993D01*
X88475000Y-124990826D01*
X88475000Y-124859174D01*
X88440925Y-124732007D01*
X88408012Y-124675000D01*
X89325000Y-124675000D01*
X89325000Y-124027172D01*
X89324999Y-124027155D01*
X89318598Y-123967627D01*
X89318596Y-123967619D01*
X89313082Y-123952835D01*
X89308096Y-123883144D01*
X89341580Y-123821820D01*
X89402903Y-123788334D01*
X89429263Y-123785500D01*
X104473532Y-123785500D01*
X104540571Y-123805185D01*
X104561213Y-123821819D01*
X112441072Y-131701678D01*
X112474557Y-131763001D01*
X112476330Y-131773173D01*
X112501161Y-131961785D01*
X112563947Y-132196104D01*
X112656773Y-132420205D01*
X112656776Y-132420212D01*
X112778064Y-132630289D01*
X112778066Y-132630292D01*
X112778067Y-132630293D01*
X112925733Y-132822736D01*
X112925739Y-132822743D01*
X113097256Y-132994260D01*
X113097263Y-132994266D01*
X113210321Y-133081018D01*
X113289711Y-133141936D01*
X113499788Y-133263224D01*
X113723900Y-133356054D01*
X113958211Y-133418838D01*
X114146825Y-133443669D01*
X114210720Y-133471934D01*
X114218320Y-133478926D01*
X116448632Y-135709238D01*
X116448646Y-135709253D01*
X116451757Y-135712364D01*
X116451758Y-135712365D01*
X116607635Y-135868242D01*
X116607638Y-135868244D01*
X116607642Y-135868248D01*
X116769372Y-135985750D01*
X116785978Y-135997815D01*
X116914375Y-136063237D01*
X116982393Y-136097895D01*
X116982396Y-136097896D01*
X117087221Y-136131955D01*
X117192049Y-136166015D01*
X117409778Y-136200500D01*
X144224643Y-136200500D01*
X144224667Y-136200501D01*
X144229778Y-136200501D01*
X144450221Y-136200501D01*
X144450222Y-136200501D01*
X144667951Y-136166015D01*
X144877606Y-136097895D01*
X145074022Y-135997815D01*
X145252365Y-135868242D01*
X145408242Y-135712365D01*
X145408243Y-135712363D01*
X145415303Y-135705303D01*
X145415309Y-135705296D01*
X159693787Y-121426818D01*
X159755110Y-121393333D01*
X159781468Y-121390499D01*
X160508028Y-121390499D01*
X160508036Y-121390499D01*
X160627418Y-121379886D01*
X160823049Y-121323909D01*
X161003407Y-121229698D01*
X161161109Y-121101109D01*
X161289698Y-120943407D01*
X161383909Y-120763049D01*
X161439886Y-120567418D01*
X161450500Y-120448037D01*
X161450499Y-119721466D01*
X161470183Y-119654428D01*
X161486813Y-119633791D01*
X163905296Y-117215309D01*
X163905303Y-117215303D01*
X163912363Y-117208243D01*
X163912365Y-117208242D01*
X164068242Y-117052365D01*
X164197815Y-116874022D01*
X164297895Y-116677606D01*
X164366015Y-116467951D01*
X164377686Y-116394265D01*
X164400501Y-116250222D01*
X164400501Y-116029778D01*
X164400501Y-116025377D01*
X164400500Y-116025362D01*
X164400500Y-104317438D01*
X164400501Y-104317413D01*
X164400501Y-104091860D01*
X164366015Y-103874129D01*
X164299402Y-103669115D01*
X164298339Y-103665347D01*
X164297895Y-103664475D01*
X164197815Y-103468059D01*
X164185750Y-103451453D01*
X164068248Y-103289723D01*
X164068244Y-103289719D01*
X164068242Y-103289716D01*
X163912365Y-103133839D01*
X163912364Y-103133838D01*
X163909253Y-103130727D01*
X163909238Y-103130713D01*
X153840705Y-93062180D01*
X153807220Y-93000857D01*
X153812204Y-92931165D01*
X153854076Y-92875232D01*
X153919540Y-92850815D01*
X153928386Y-92850499D01*
X154448028Y-92850499D01*
X154448036Y-92850499D01*
X154567418Y-92839886D01*
X154763049Y-92783909D01*
X154943407Y-92689698D01*
X155101109Y-92561109D01*
X155229698Y-92403407D01*
X155323909Y-92223049D01*
X155379886Y-92027418D01*
X155390500Y-91908037D01*
X155390499Y-90091964D01*
X155379886Y-89972582D01*
X155323909Y-89776951D01*
X155229698Y-89596593D01*
X155165793Y-89518220D01*
X155101109Y-89438890D01*
X154943409Y-89310304D01*
X154943410Y-89310304D01*
X154943407Y-89310302D01*
X154763049Y-89216091D01*
X154763048Y-89216090D01*
X154763045Y-89216089D01*
X154645829Y-89182550D01*
X154567418Y-89160114D01*
X154567415Y-89160113D01*
X154567413Y-89160113D01*
X154496041Y-89153768D01*
X154448037Y-89149500D01*
X154448032Y-89149500D01*
X152631971Y-89149500D01*
X152631963Y-89149501D01*
X152535479Y-89158078D01*
X152466960Y-89144407D01*
X152416710Y-89095861D01*
X152400500Y-89034565D01*
X152400500Y-73390357D01*
X152400501Y-73390332D01*
X152400501Y-73164780D01*
X152400501Y-73164779D01*
X152366015Y-72947049D01*
X152321847Y-72811113D01*
X152297896Y-72737396D01*
X152297895Y-72737393D01*
X152263237Y-72669375D01*
X152197815Y-72540978D01*
X152185750Y-72524372D01*
X152068248Y-72362642D01*
X152068244Y-72362638D01*
X152068242Y-72362635D01*
X151912365Y-72206758D01*
X151912364Y-72206757D01*
X151909253Y-72203646D01*
X151909238Y-72203632D01*
X148261818Y-68556212D01*
X148228333Y-68494889D01*
X148225499Y-68468531D01*
X148225499Y-67741971D01*
X148225499Y-67741964D01*
X148214886Y-67622582D01*
X148158909Y-67426951D01*
X148064698Y-67246593D01*
X147996307Y-67162718D01*
X147974943Y-67111966D01*
X155249500Y-67111966D01*
X155249500Y-68928028D01*
X155249501Y-68928034D01*
X155260113Y-69047415D01*
X155316089Y-69243045D01*
X155316090Y-69243047D01*
X155316091Y-69243049D01*
X155410301Y-69423406D01*
X155410305Y-69423412D01*
X155478691Y-69507281D01*
X155505800Y-69571677D01*
X155493790Y-69640507D01*
X155489977Y-69647640D01*
X155436775Y-69739789D01*
X155436773Y-69739794D01*
X155343947Y-69963895D01*
X155281161Y-70198214D01*
X155262535Y-70339698D01*
X155249500Y-70438712D01*
X155249500Y-70681288D01*
X155281162Y-70921789D01*
X155311059Y-71033366D01*
X155343947Y-71156104D01*
X155427637Y-71358148D01*
X155436776Y-71380212D01*
X155558064Y-71590289D01*
X155558066Y-71590292D01*
X155558067Y-71590293D01*
X155684077Y-71754514D01*
X155709271Y-71819683D01*
X155695232Y-71888128D01*
X155684077Y-71905486D01*
X155558067Y-72069706D01*
X155436777Y-72279785D01*
X155436773Y-72279794D01*
X155343947Y-72503895D01*
X155281161Y-72738214D01*
X155249500Y-72978711D01*
X155249500Y-73221288D01*
X155281161Y-73461785D01*
X155343947Y-73696104D01*
X155394764Y-73818787D01*
X155436776Y-73920212D01*
X155558064Y-74130289D01*
X155558066Y-74130292D01*
X155558067Y-74130293D01*
X155684077Y-74294514D01*
X155709271Y-74359683D01*
X155695232Y-74428128D01*
X155684077Y-74445486D01*
X155558067Y-74609706D01*
X155436777Y-74819785D01*
X155436773Y-74819794D01*
X155343947Y-75043895D01*
X155281161Y-75278214D01*
X155249500Y-75518711D01*
X155249500Y-75761288D01*
X155281161Y-76001785D01*
X155343947Y-76236104D01*
X155417846Y-76414512D01*
X155436776Y-76460212D01*
X155558064Y-76670289D01*
X155558066Y-76670292D01*
X155558067Y-76670293D01*
X155684077Y-76834514D01*
X155709271Y-76899683D01*
X155695232Y-76968128D01*
X155684077Y-76985486D01*
X155558067Y-77149706D01*
X155436777Y-77359785D01*
X155436773Y-77359794D01*
X155343947Y-77583895D01*
X155281161Y-77818214D01*
X155249500Y-78058711D01*
X155249500Y-78301288D01*
X155281161Y-78541785D01*
X155343947Y-78776104D01*
X155417846Y-78954512D01*
X155436776Y-79000212D01*
X155558064Y-79210289D01*
X155558066Y-79210292D01*
X155558067Y-79210293D01*
X155705733Y-79402736D01*
X155705739Y-79402743D01*
X155877256Y-79574260D01*
X155877263Y-79574266D01*
X156029564Y-79691130D01*
X156070767Y-79747558D01*
X156074922Y-79817304D01*
X156054397Y-79862391D01*
X155945376Y-80012446D01*
X155848904Y-80201782D01*
X155783242Y-80403869D01*
X155783242Y-80403872D01*
X155750000Y-80613753D01*
X155750000Y-80826246D01*
X155783242Y-81036127D01*
X155783242Y-81036130D01*
X155848904Y-81238217D01*
X155945375Y-81427550D01*
X155984728Y-81481716D01*
X156617036Y-80849407D01*
X156634075Y-80912993D01*
X156699901Y-81027007D01*
X156792993Y-81120099D01*
X156907007Y-81185925D01*
X156970590Y-81202962D01*
X156338282Y-81835269D01*
X156338282Y-81835270D01*
X156392449Y-81874624D01*
X156581782Y-81971095D01*
X156783870Y-82036757D01*
X156993754Y-82070000D01*
X157206246Y-82070000D01*
X157416127Y-82036757D01*
X157416130Y-82036757D01*
X157618217Y-81971095D01*
X157807554Y-81874622D01*
X157861716Y-81835270D01*
X157861717Y-81835270D01*
X157229408Y-81202962D01*
X157292993Y-81185925D01*
X157407007Y-81120099D01*
X157500099Y-81027007D01*
X157565925Y-80912993D01*
X157582962Y-80849409D01*
X158215270Y-81481717D01*
X158215270Y-81481716D01*
X158254622Y-81427554D01*
X158351095Y-81238217D01*
X158416757Y-81036130D01*
X158416757Y-81036127D01*
X158450000Y-80826246D01*
X158450000Y-80613753D01*
X158416757Y-80403872D01*
X158416757Y-80403869D01*
X158351095Y-80201782D01*
X158254620Y-80012442D01*
X158145603Y-79862391D01*
X158122123Y-79796585D01*
X158137949Y-79728531D01*
X158170432Y-79691132D01*
X158322738Y-79574265D01*
X158494265Y-79402738D01*
X158641936Y-79210289D01*
X158763224Y-79000212D01*
X158856054Y-78776100D01*
X158918838Y-78541789D01*
X158950500Y-78301288D01*
X158950500Y-78058712D01*
X158918838Y-77818211D01*
X158856054Y-77583900D01*
X158763224Y-77359788D01*
X158641936Y-77149711D01*
X158515922Y-76985486D01*
X158490728Y-76920317D01*
X158504766Y-76851872D01*
X158515922Y-76834514D01*
X158517099Y-76832979D01*
X158641936Y-76670289D01*
X158763224Y-76460212D01*
X158856054Y-76236100D01*
X158918838Y-76001789D01*
X158950500Y-75761288D01*
X158950500Y-75518712D01*
X158918838Y-75278211D01*
X158856054Y-75043900D01*
X158763224Y-74819788D01*
X158641936Y-74609711D01*
X158515922Y-74445486D01*
X158490728Y-74380317D01*
X158504766Y-74311872D01*
X158515922Y-74294514D01*
X158517099Y-74292979D01*
X158641936Y-74130289D01*
X158763224Y-73920212D01*
X158856054Y-73696100D01*
X158918838Y-73461789D01*
X158950500Y-73221288D01*
X158950500Y-72978712D01*
X158918838Y-72738211D01*
X158856054Y-72503900D01*
X158763224Y-72279788D01*
X158641936Y-72069711D01*
X158515922Y-71905486D01*
X158490728Y-71840317D01*
X158504766Y-71771872D01*
X158515922Y-71754514D01*
X158517099Y-71752979D01*
X158641936Y-71590289D01*
X158763224Y-71380212D01*
X158856054Y-71156100D01*
X158918838Y-70921789D01*
X158950500Y-70681288D01*
X158950500Y-70438712D01*
X158918838Y-70198211D01*
X158856054Y-69963900D01*
X158763224Y-69739788D01*
X158758669Y-69731898D01*
X158710023Y-69647639D01*
X158693550Y-69579739D01*
X158716403Y-69513712D01*
X158721307Y-69507281D01*
X158789698Y-69423407D01*
X158883909Y-69243049D01*
X158939886Y-69047418D01*
X158950500Y-68928037D01*
X158950499Y-67111964D01*
X158939886Y-66992582D01*
X158883909Y-66796951D01*
X158789698Y-66616593D01*
X158728845Y-66541963D01*
X158661109Y-66458890D01*
X158503409Y-66330304D01*
X158503410Y-66330304D01*
X158503407Y-66330302D01*
X158323049Y-66236091D01*
X158323048Y-66236090D01*
X158323045Y-66236089D01*
X158205829Y-66202550D01*
X158127418Y-66180114D01*
X158127415Y-66180113D01*
X158127413Y-66180113D01*
X158061102Y-66174217D01*
X158008037Y-66169500D01*
X158008032Y-66169500D01*
X156191971Y-66169500D01*
X156191965Y-66169500D01*
X156191964Y-66169501D01*
X156180316Y-66170536D01*
X156072584Y-66180113D01*
X155876954Y-66236089D01*
X155796452Y-66278140D01*
X155696593Y-66330302D01*
X155696591Y-66330303D01*
X155696590Y-66330304D01*
X155538890Y-66458890D01*
X155410304Y-66616590D01*
X155316089Y-66796954D01*
X155277961Y-66930208D01*
X155264427Y-66977511D01*
X155260114Y-66992583D01*
X155260113Y-66992586D01*
X155249500Y-67111966D01*
X147974943Y-67111966D01*
X147969199Y-67098321D01*
X147981209Y-67029492D01*
X147985012Y-67022376D01*
X148038224Y-66930212D01*
X148131054Y-66706100D01*
X148193838Y-66471789D01*
X148225500Y-66231288D01*
X148225500Y-65988712D01*
X148193838Y-65748211D01*
X148131054Y-65513900D01*
X148038224Y-65289788D01*
X147916936Y-65079711D01*
X147790922Y-64915486D01*
X147765728Y-64850317D01*
X147779766Y-64781872D01*
X147790922Y-64764514D01*
X147827644Y-64716657D01*
X147916936Y-64600289D01*
X148038224Y-64390212D01*
X148131054Y-64166100D01*
X148193838Y-63931789D01*
X148225500Y-63691288D01*
X148225500Y-63448712D01*
X148193838Y-63208211D01*
X148131054Y-62973900D01*
X148038224Y-62749788D01*
X147916936Y-62539711D01*
X147812348Y-62403409D01*
X147769266Y-62347263D01*
X147769260Y-62347256D01*
X147597743Y-62175739D01*
X147445434Y-62058868D01*
X147404232Y-62002440D01*
X147400077Y-61932694D01*
X147420603Y-61887606D01*
X147529622Y-61737554D01*
X147626095Y-61548217D01*
X147691757Y-61346130D01*
X147691757Y-61346127D01*
X147725000Y-61136246D01*
X147725000Y-60923753D01*
X147691757Y-60713872D01*
X147691757Y-60713869D01*
X147626095Y-60511782D01*
X147529620Y-60322442D01*
X147420603Y-60172391D01*
X147397123Y-60106585D01*
X147412949Y-60038531D01*
X147445432Y-60001132D01*
X147597738Y-59884265D01*
X147769265Y-59712738D01*
X147916936Y-59520289D01*
X148038224Y-59310212D01*
X148131054Y-59086100D01*
X148193838Y-58851789D01*
X148225500Y-58611288D01*
X148225500Y-58368712D01*
X148193838Y-58128211D01*
X148131054Y-57893900D01*
X148129231Y-57889500D01*
X148057815Y-57717085D01*
X148038224Y-57669788D01*
X147916936Y-57459711D01*
X147769265Y-57267262D01*
X147769260Y-57267256D01*
X147597743Y-57095739D01*
X147597736Y-57095733D01*
X147458606Y-56988975D01*
X147405293Y-56948067D01*
X147405292Y-56948066D01*
X147405289Y-56948064D01*
X147311034Y-56893646D01*
X156999500Y-56893646D01*
X156999500Y-57306353D01*
X157039952Y-57717084D01*
X157120464Y-58121848D01*
X157120467Y-58121859D01*
X157240274Y-58516814D01*
X157331404Y-58736819D01*
X157356794Y-58798118D01*
X157398214Y-58898113D01*
X157398216Y-58898118D01*
X157592759Y-59262081D01*
X157592770Y-59262099D01*
X157822052Y-59605244D01*
X157822062Y-59605258D01*
X158083885Y-59924291D01*
X158375708Y-60216114D01*
X158375713Y-60216118D01*
X158375714Y-60216119D01*
X158694747Y-60477942D01*
X159037907Y-60707234D01*
X159037916Y-60707239D01*
X159037918Y-60707240D01*
X159401881Y-60901783D01*
X159401883Y-60901783D01*
X159401889Y-60901787D01*
X159783187Y-61059726D01*
X160178131Y-61179530D01*
X160178137Y-61179531D01*
X160178140Y-61179532D01*
X160178151Y-61179535D01*
X160582915Y-61260047D01*
X160993643Y-61300500D01*
X160993646Y-61300500D01*
X161406354Y-61300500D01*
X161406357Y-61300500D01*
X161817085Y-61260047D01*
X161903766Y-61242805D01*
X162221848Y-61179535D01*
X162221859Y-61179532D01*
X162221859Y-61179531D01*
X162221869Y-61179530D01*
X162616813Y-61059726D01*
X162998111Y-60901787D01*
X163362093Y-60707234D01*
X163705253Y-60477942D01*
X164024286Y-60216119D01*
X164316119Y-59924286D01*
X164577942Y-59605253D01*
X164807234Y-59262093D01*
X165001787Y-58898111D01*
X165159726Y-58516813D01*
X165279530Y-58121869D01*
X165279532Y-58121859D01*
X165279535Y-58121848D01*
X165360047Y-57717084D01*
X165364705Y-57669788D01*
X165400500Y-57306357D01*
X165400500Y-56893643D01*
X165360047Y-56482915D01*
X165340156Y-56382915D01*
X165279535Y-56078151D01*
X165279532Y-56078140D01*
X165279531Y-56078137D01*
X165279530Y-56078131D01*
X165159726Y-55683187D01*
X165001787Y-55301889D01*
X164948331Y-55201881D01*
X164807240Y-54937918D01*
X164807239Y-54937916D01*
X164807234Y-54937907D01*
X164577942Y-54594747D01*
X164316119Y-54275714D01*
X164316118Y-54275713D01*
X164316114Y-54275708D01*
X164024291Y-53983885D01*
X163705258Y-53722062D01*
X163705257Y-53722061D01*
X163705253Y-53722058D01*
X163362093Y-53492766D01*
X163362088Y-53492763D01*
X163362081Y-53492759D01*
X162998118Y-53298216D01*
X162998113Y-53298214D01*
X162616814Y-53140274D01*
X162221859Y-53020467D01*
X162221848Y-53020464D01*
X161817084Y-52939952D01*
X161507741Y-52909485D01*
X161406357Y-52899500D01*
X160993643Y-52899500D01*
X160899966Y-52908726D01*
X160582915Y-52939952D01*
X160178151Y-53020464D01*
X160178140Y-53020467D01*
X159783185Y-53140274D01*
X159401886Y-53298214D01*
X159401881Y-53298216D01*
X159037918Y-53492759D01*
X159037900Y-53492770D01*
X158694755Y-53722052D01*
X158694741Y-53722062D01*
X158375708Y-53983885D01*
X158083885Y-54275708D01*
X157822062Y-54594741D01*
X157822052Y-54594755D01*
X157592770Y-54937900D01*
X157592759Y-54937918D01*
X157398216Y-55301881D01*
X157398214Y-55301886D01*
X157240274Y-55683185D01*
X157120467Y-56078140D01*
X157120464Y-56078151D01*
X157039952Y-56482915D01*
X156999500Y-56893646D01*
X147311034Y-56893646D01*
X147195212Y-56826776D01*
X147195205Y-56826773D01*
X146971104Y-56733947D01*
X146736785Y-56671161D01*
X146496289Y-56639500D01*
X146496288Y-56639500D01*
X146253712Y-56639500D01*
X146253711Y-56639500D01*
X146013214Y-56671161D01*
X145778895Y-56733947D01*
X145554794Y-56826773D01*
X145554785Y-56826777D01*
X145344706Y-56948067D01*
X145152263Y-57095733D01*
X145152256Y-57095739D01*
X144980739Y-57267256D01*
X144980733Y-57267263D01*
X144833067Y-57459706D01*
X144711777Y-57669785D01*
X144711773Y-57669794D01*
X144618947Y-57893895D01*
X144556161Y-58128214D01*
X144524500Y-58368711D01*
X144524500Y-58611288D01*
X144556161Y-58851785D01*
X144618947Y-59086104D01*
X144691847Y-59262099D01*
X144711776Y-59310212D01*
X144833064Y-59520289D01*
X144833066Y-59520292D01*
X144833067Y-59520293D01*
X144980733Y-59712736D01*
X144980739Y-59712743D01*
X145152256Y-59884260D01*
X145152262Y-59884265D01*
X145296641Y-59995051D01*
X145304564Y-60001130D01*
X145345767Y-60057558D01*
X145349922Y-60127304D01*
X145329397Y-60172391D01*
X145220376Y-60322446D01*
X145123904Y-60511782D01*
X145058242Y-60713869D01*
X145058242Y-60713872D01*
X145025000Y-60923753D01*
X145025000Y-61136246D01*
X145058242Y-61346127D01*
X145058242Y-61346130D01*
X145123904Y-61548217D01*
X145220379Y-61737557D01*
X145329396Y-61887608D01*
X145352876Y-61953414D01*
X145337050Y-62021468D01*
X145304564Y-62058869D01*
X145152263Y-62175733D01*
X145152256Y-62175739D01*
X144980739Y-62347256D01*
X144980733Y-62347263D01*
X144920328Y-62425986D01*
X144863901Y-62467189D01*
X144821952Y-62474500D01*
X140543974Y-62474500D01*
X140476935Y-62454815D01*
X140471108Y-62450831D01*
X140286433Y-62316657D01*
X140242557Y-62294301D01*
X140075996Y-62209433D01*
X139851368Y-62136446D01*
X139618097Y-62099500D01*
X139618092Y-62099500D01*
X139381908Y-62099500D01*
X139381903Y-62099500D01*
X139148631Y-62136446D01*
X138924003Y-62209433D01*
X138713566Y-62316657D01*
X138650990Y-62362122D01*
X138522490Y-62455483D01*
X138522488Y-62455485D01*
X138522487Y-62455485D01*
X138355485Y-62622487D01*
X138355485Y-62622488D01*
X138355483Y-62622490D01*
X138308152Y-62687635D01*
X138216657Y-62813566D01*
X138109433Y-63024003D01*
X138036446Y-63248631D01*
X137999500Y-63481902D01*
X137999500Y-63718097D01*
X138036446Y-63951368D01*
X138078250Y-64080024D01*
X138109432Y-64175992D01*
X138109433Y-64175995D01*
X138109434Y-64175996D01*
X138186270Y-64326796D01*
X138199166Y-64395466D01*
X138172889Y-64460206D01*
X138115783Y-64500463D01*
X138056388Y-64505565D01*
X138018092Y-64499500D01*
X137781908Y-64499500D01*
X137781903Y-64499500D01*
X137548631Y-64536446D01*
X137324003Y-64609433D01*
X137113566Y-64716657D01*
X137019804Y-64784780D01*
X136922490Y-64855483D01*
X136922488Y-64855485D01*
X136922487Y-64855485D01*
X136755485Y-65022487D01*
X136755485Y-65022488D01*
X136755483Y-65022490D01*
X136695862Y-65104550D01*
X136616657Y-65213566D01*
X136509433Y-65424003D01*
X136436446Y-65648631D01*
X136399500Y-65881902D01*
X136399500Y-66118097D01*
X136436446Y-66351368D01*
X136509433Y-66575996D01*
X136575725Y-66706100D01*
X136616657Y-66786433D01*
X136755483Y-66977510D01*
X136922490Y-67144517D01*
X137113567Y-67283343D01*
X137161938Y-67307989D01*
X137324003Y-67390566D01*
X137324005Y-67390566D01*
X137324008Y-67390568D01*
X137435983Y-67426951D01*
X137548631Y-67463553D01*
X137781903Y-67500500D01*
X137781908Y-67500500D01*
X138018097Y-67500500D01*
X138251368Y-67463553D01*
X138475992Y-67390568D01*
X138686433Y-67283343D01*
X138701534Y-67272371D01*
X138719689Y-67259182D01*
X138785495Y-67235702D01*
X138792574Y-67235500D01*
X144486427Y-67235500D01*
X144553466Y-67255185D01*
X144599221Y-67307989D01*
X144609165Y-67377147D01*
X144596334Y-67416914D01*
X144591090Y-67426951D01*
X144535114Y-67622583D01*
X144535113Y-67622586D01*
X144527607Y-67707016D01*
X144525464Y-67731127D01*
X144524500Y-67741966D01*
X144524500Y-69558028D01*
X144524501Y-69558034D01*
X144535113Y-69677415D01*
X144591089Y-69873045D01*
X144591090Y-69873048D01*
X144591091Y-69873049D01*
X144685302Y-70053407D01*
X144719977Y-70095933D01*
X144813890Y-70211109D01*
X144871462Y-70258052D01*
X144971593Y-70339698D01*
X145151951Y-70433909D01*
X145347582Y-70489886D01*
X145466963Y-70500500D01*
X146193531Y-70500499D01*
X146260570Y-70520183D01*
X146281212Y-70536818D01*
X149563181Y-73818787D01*
X149596666Y-73880110D01*
X149599500Y-73906468D01*
X149599500Y-89743294D01*
X149593059Y-89765226D01*
X149591158Y-89788007D01*
X149581124Y-89805872D01*
X149579815Y-89810333D01*
X149573876Y-89818780D01*
X149488869Y-89929564D01*
X149432441Y-89970767D01*
X149362695Y-89974922D01*
X149317608Y-89954396D01*
X149167557Y-89845379D01*
X148978217Y-89748904D01*
X148776129Y-89683242D01*
X148566246Y-89650000D01*
X148353754Y-89650000D01*
X148143872Y-89683242D01*
X148143869Y-89683242D01*
X147941782Y-89748904D01*
X147752439Y-89845380D01*
X147698282Y-89884727D01*
X147698282Y-89884728D01*
X148330591Y-90517037D01*
X148267007Y-90534075D01*
X148152993Y-90599901D01*
X148059901Y-90692993D01*
X147994075Y-90807007D01*
X147977037Y-90870591D01*
X147344728Y-90238282D01*
X147344727Y-90238282D01*
X147305380Y-90292439D01*
X147208904Y-90481782D01*
X147143242Y-90683869D01*
X147143242Y-90683872D01*
X147110000Y-90893753D01*
X147110000Y-91106246D01*
X147143242Y-91316127D01*
X147143242Y-91316130D01*
X147208904Y-91518217D01*
X147305375Y-91707550D01*
X147344728Y-91761716D01*
X147977037Y-91129408D01*
X147994075Y-91192993D01*
X148059901Y-91307007D01*
X148152993Y-91400099D01*
X148267007Y-91465925D01*
X148330589Y-91482962D01*
X147698282Y-92115269D01*
X147698282Y-92115270D01*
X147752449Y-92154624D01*
X147941782Y-92251095D01*
X148143870Y-92316757D01*
X148353754Y-92350000D01*
X148566246Y-92350000D01*
X148776127Y-92316757D01*
X148776130Y-92316757D01*
X148978217Y-92251095D01*
X149167554Y-92154622D01*
X149317606Y-92045602D01*
X149324592Y-92043109D01*
X149329774Y-92037803D01*
X149357048Y-92031528D01*
X149383412Y-92022122D01*
X149390636Y-92023801D01*
X149397865Y-92022139D01*
X149424203Y-92031607D01*
X149451466Y-92037947D01*
X149458264Y-92043852D01*
X149463616Y-92045776D01*
X149488866Y-92070431D01*
X149573875Y-92181218D01*
X149599069Y-92246386D01*
X149599499Y-92256703D01*
X149599499Y-92312303D01*
X149605470Y-92350000D01*
X149633985Y-92530033D01*
X149702103Y-92739684D01*
X149702104Y-92739687D01*
X149758567Y-92850499D01*
X149774170Y-92881122D01*
X149802187Y-92936106D01*
X149931751Y-93114438D01*
X149931755Y-93114442D01*
X149931758Y-93114446D01*
X150087635Y-93270323D01*
X150091965Y-93274653D01*
X150091976Y-93274663D01*
X161563181Y-104745868D01*
X161596666Y-104807191D01*
X161599500Y-104833549D01*
X161599500Y-111290579D01*
X161579815Y-111357618D01*
X161527011Y-111403373D01*
X161457853Y-111413317D01*
X161394297Y-111384292D01*
X161357845Y-111327572D01*
X161357357Y-111327738D01*
X161356690Y-111325775D01*
X161356523Y-111325514D01*
X161356143Y-111324163D01*
X161356054Y-111323901D01*
X161263226Y-111099794D01*
X161263224Y-111099788D01*
X161141936Y-110889711D01*
X160994265Y-110697262D01*
X160994260Y-110697256D01*
X160822743Y-110525739D01*
X160822736Y-110525733D01*
X160630293Y-110378067D01*
X160630292Y-110378066D01*
X160630289Y-110378064D01*
X160420212Y-110256776D01*
X160420205Y-110256773D01*
X160196104Y-110163947D01*
X159961785Y-110101161D01*
X159721289Y-110069500D01*
X159721288Y-110069500D01*
X159478712Y-110069500D01*
X159478711Y-110069500D01*
X159238214Y-110101161D01*
X159003895Y-110163947D01*
X158779794Y-110256773D01*
X158779785Y-110256777D01*
X158569706Y-110378067D01*
X158377263Y-110525733D01*
X158377256Y-110525739D01*
X158205739Y-110697256D01*
X158205733Y-110697263D01*
X158058067Y-110889706D01*
X157936777Y-111099785D01*
X157936773Y-111099794D01*
X157843947Y-111323895D01*
X157781161Y-111558214D01*
X157749500Y-111798711D01*
X157749500Y-112041288D01*
X157781161Y-112281785D01*
X157843947Y-112516104D01*
X157936773Y-112740205D01*
X157936776Y-112740212D01*
X158058064Y-112950289D01*
X158058066Y-112950292D01*
X158058067Y-112950293D01*
X158184077Y-113114514D01*
X158209271Y-113179683D01*
X158195232Y-113248128D01*
X158184077Y-113265486D01*
X158058067Y-113429706D01*
X157936777Y-113639785D01*
X157936773Y-113639794D01*
X157843947Y-113863895D01*
X157781161Y-114098214D01*
X157749500Y-114338711D01*
X157749500Y-114581288D01*
X157781161Y-114821785D01*
X157843947Y-115056104D01*
X157924262Y-115250000D01*
X157936776Y-115280212D01*
X158058064Y-115490289D01*
X158058066Y-115490292D01*
X158058067Y-115490293D01*
X158205733Y-115682736D01*
X158205739Y-115682743D01*
X158377256Y-115854260D01*
X158377263Y-115854266D01*
X158529564Y-115971130D01*
X158570767Y-116027558D01*
X158574922Y-116097304D01*
X158554397Y-116142391D01*
X158445376Y-116292446D01*
X158348904Y-116481782D01*
X158283242Y-116683869D01*
X158283242Y-116683872D01*
X158250000Y-116893753D01*
X158250000Y-117106246D01*
X158283242Y-117316127D01*
X158283242Y-117316130D01*
X158348904Y-117518217D01*
X158394798Y-117608288D01*
X158407694Y-117676957D01*
X158381418Y-117741698D01*
X158341726Y-117774490D01*
X158196593Y-117850302D01*
X158196591Y-117850303D01*
X158196590Y-117850304D01*
X158038890Y-117978890D01*
X157910304Y-118136590D01*
X157910302Y-118136593D01*
X157886700Y-118181777D01*
X157816089Y-118316954D01*
X157760114Y-118512583D01*
X157760113Y-118512586D01*
X157752607Y-118597016D01*
X157750363Y-118622263D01*
X157749500Y-118631966D01*
X157749500Y-119358531D01*
X157729815Y-119425570D01*
X157713181Y-119446212D01*
X143796213Y-133363181D01*
X143734890Y-133396666D01*
X143708532Y-133399500D01*
X123557040Y-133399500D01*
X123490001Y-133379815D01*
X123444246Y-133327011D01*
X123434302Y-133257853D01*
X123463327Y-133194297D01*
X123478677Y-133179399D01*
X123501109Y-133161109D01*
X123629698Y-133003407D01*
X123723909Y-132823049D01*
X123779886Y-132627418D01*
X123790500Y-132508037D01*
X123790499Y-130691964D01*
X123779886Y-130572582D01*
X123723909Y-130376951D01*
X123629698Y-130196593D01*
X123577684Y-130132803D01*
X123501109Y-130038890D01*
X123343409Y-129910304D01*
X123343410Y-129910304D01*
X123343407Y-129910302D01*
X123163049Y-129816091D01*
X123163048Y-129816090D01*
X123163045Y-129816089D01*
X123045829Y-129782550D01*
X122967418Y-129760114D01*
X122967415Y-129760113D01*
X122967413Y-129760113D01*
X122901102Y-129754217D01*
X122848037Y-129749500D01*
X122848032Y-129749500D01*
X121031971Y-129749500D01*
X121031965Y-129749500D01*
X121031964Y-129749501D01*
X121020316Y-129750536D01*
X120912584Y-129760113D01*
X120716954Y-129816089D01*
X120536591Y-129910303D01*
X120452718Y-129978692D01*
X120388321Y-130005800D01*
X120319492Y-129993790D01*
X120312358Y-129989976D01*
X120220215Y-129936777D01*
X120220205Y-129936773D01*
X119996104Y-129843947D01*
X119761785Y-129781161D01*
X119521289Y-129749500D01*
X119521288Y-129749500D01*
X119278712Y-129749500D01*
X119278711Y-129749500D01*
X119038214Y-129781161D01*
X118803895Y-129843947D01*
X118579794Y-129936773D01*
X118579785Y-129936777D01*
X118369706Y-130058067D01*
X118177263Y-130205733D01*
X118177256Y-130205739D01*
X118005739Y-130377256D01*
X118005733Y-130377263D01*
X117888869Y-130529564D01*
X117832441Y-130570767D01*
X117762695Y-130574922D01*
X117717608Y-130554396D01*
X117567557Y-130445379D01*
X117378217Y-130348904D01*
X117176129Y-130283242D01*
X116966246Y-130250000D01*
X116753754Y-130250000D01*
X116543872Y-130283242D01*
X116543869Y-130283242D01*
X116341782Y-130348904D01*
X116152446Y-130445376D01*
X116002391Y-130554397D01*
X115936584Y-130577876D01*
X115868530Y-130562050D01*
X115831130Y-130529564D01*
X115714266Y-130377263D01*
X115714260Y-130377256D01*
X115542743Y-130205739D01*
X115542736Y-130205733D01*
X115350293Y-130058067D01*
X115350292Y-130058066D01*
X115350289Y-130058064D01*
X115140212Y-129936776D01*
X115076303Y-129910304D01*
X114916104Y-129843947D01*
X114681785Y-129781161D01*
X114493173Y-129756330D01*
X114429277Y-129728063D01*
X114421678Y-129721072D01*
X106177582Y-121476976D01*
X106177573Y-121476966D01*
X106127425Y-121426818D01*
X106017365Y-121316758D01*
X106017361Y-121316755D01*
X106017357Y-121316751D01*
X105839025Y-121187187D01*
X105839024Y-121187186D01*
X105839022Y-121187185D01*
X105776096Y-121155122D01*
X105642606Y-121087104D01*
X105642603Y-121087103D01*
X105432952Y-121018985D01*
X105324086Y-121001742D01*
X105215222Y-120984499D01*
X104994778Y-120984499D01*
X104989667Y-120984499D01*
X104989643Y-120984500D01*
X89668657Y-120984500D01*
X89601618Y-120964815D01*
X89555863Y-120912011D01*
X89545919Y-120842853D01*
X89561270Y-120798500D01*
X89638224Y-120665212D01*
X89731054Y-120441100D01*
X89793838Y-120206789D01*
X89825500Y-119966288D01*
X89825500Y-119723712D01*
X89825204Y-119721467D01*
X89793838Y-119483214D01*
X89793838Y-119483211D01*
X89731054Y-119248900D01*
X89638224Y-119024788D01*
X89516936Y-118814711D01*
X89369265Y-118622262D01*
X89369260Y-118622256D01*
X89197743Y-118450739D01*
X89197736Y-118450733D01*
X89005293Y-118303067D01*
X89005292Y-118303066D01*
X89005289Y-118303064D01*
X88795212Y-118181776D01*
X88795205Y-118181773D01*
X88571104Y-118088947D01*
X88336785Y-118026161D01*
X88096289Y-117994500D01*
X88096288Y-117994500D01*
X87853712Y-117994500D01*
X87853711Y-117994500D01*
X87613214Y-118026161D01*
X87378895Y-118088947D01*
X87154794Y-118181773D01*
X87154785Y-118181777D01*
X86944706Y-118303067D01*
X86752263Y-118450733D01*
X86752256Y-118450739D01*
X86580739Y-118622256D01*
X86580733Y-118622263D01*
X86433067Y-118814706D01*
X86311777Y-119024785D01*
X86311773Y-119024794D01*
X86218947Y-119248895D01*
X86156161Y-119483214D01*
X86124500Y-119723711D01*
X79500500Y-119723711D01*
X79500500Y-108590000D01*
X109690000Y-108590000D01*
X127380000Y-108590000D01*
X127380000Y-106475258D01*
X129079500Y-106475258D01*
X129079500Y-106704741D01*
X129104446Y-106894215D01*
X129109452Y-106932238D01*
X129109453Y-106932240D01*
X129168842Y-107153887D01*
X129256650Y-107365876D01*
X129256657Y-107365890D01*
X129371392Y-107564617D01*
X129511081Y-107746661D01*
X129511089Y-107746670D01*
X129673330Y-107908911D01*
X129673338Y-107908918D01*
X129855382Y-108048607D01*
X129855385Y-108048608D01*
X129855388Y-108048611D01*
X130054112Y-108163344D01*
X130054117Y-108163346D01*
X130054123Y-108163349D01*
X130145480Y-108201190D01*
X130266113Y-108251158D01*
X130487762Y-108310548D01*
X130715266Y-108340500D01*
X130715273Y-108340500D01*
X130944727Y-108340500D01*
X130944734Y-108340500D01*
X131172238Y-108310548D01*
X131393887Y-108251158D01*
X131605888Y-108163344D01*
X131804612Y-108048611D01*
X131986661Y-107908919D01*
X131986665Y-107908914D01*
X131986670Y-107908911D01*
X132148911Y-107746670D01*
X132148914Y-107746665D01*
X132148919Y-107746661D01*
X132288611Y-107564612D01*
X132403344Y-107365888D01*
X132491158Y-107153887D01*
X132550548Y-106932238D01*
X132580500Y-106704734D01*
X132580500Y-106475266D01*
X132550548Y-106247762D01*
X132491158Y-106026113D01*
X132403344Y-105814112D01*
X132288611Y-105615388D01*
X132288608Y-105615385D01*
X132288607Y-105615382D01*
X132148918Y-105433338D01*
X132148911Y-105433330D01*
X131986664Y-105271083D01*
X131979840Y-105265847D01*
X131962237Y-105252340D01*
X131921036Y-105195915D01*
X131916881Y-105126169D01*
X131951093Y-105065248D01*
X131990272Y-105039405D01*
X132186697Y-104958043D01*
X132413803Y-104826924D01*
X132621851Y-104667282D01*
X132621855Y-104667277D01*
X132621860Y-104667274D01*
X132807274Y-104481860D01*
X132807277Y-104481855D01*
X132807282Y-104481851D01*
X132966924Y-104273803D01*
X133098043Y-104046697D01*
X133198398Y-103804419D01*
X133266270Y-103551116D01*
X133300500Y-103291120D01*
X133300500Y-103028880D01*
X133266270Y-102768884D01*
X133198398Y-102515581D01*
X133198394Y-102515571D01*
X133098046Y-102273309D01*
X133098041Y-102273299D01*
X132966927Y-102046203D01*
X132966924Y-102046197D01*
X132904991Y-101965485D01*
X132879797Y-101900319D01*
X132893835Y-101831874D01*
X132904991Y-101814514D01*
X132966924Y-101733803D01*
X133098043Y-101506697D01*
X133198398Y-101264419D01*
X133266270Y-101011116D01*
X133300500Y-100751120D01*
X133300500Y-100488880D01*
X133266270Y-100228884D01*
X133198398Y-99975581D01*
X133198394Y-99975571D01*
X133098046Y-99733309D01*
X133098041Y-99733299D01*
X132966927Y-99506203D01*
X132966924Y-99506197D01*
X132904991Y-99425485D01*
X132879797Y-99360319D01*
X132893835Y-99291874D01*
X132904991Y-99274514D01*
X132966924Y-99193803D01*
X133098043Y-98966697D01*
X133198398Y-98724419D01*
X133266270Y-98471116D01*
X133300500Y-98211120D01*
X133300500Y-97948880D01*
X133266270Y-97688884D01*
X133198398Y-97435581D01*
X133108867Y-97219434D01*
X133098046Y-97193309D01*
X133098041Y-97193299D01*
X132966927Y-96966203D01*
X132966924Y-96966197D01*
X132904991Y-96885485D01*
X132879797Y-96820319D01*
X132893835Y-96751874D01*
X132904991Y-96734514D01*
X132966924Y-96653803D01*
X133098043Y-96426697D01*
X133198398Y-96184419D01*
X133266270Y-95931116D01*
X133300500Y-95671120D01*
X133300500Y-95408880D01*
X133266270Y-95148884D01*
X133198398Y-94895581D01*
X133198394Y-94895571D01*
X133098046Y-94653309D01*
X133098041Y-94653299D01*
X132966927Y-94426203D01*
X132966924Y-94426197D01*
X132904991Y-94345485D01*
X132879797Y-94280319D01*
X132893835Y-94211874D01*
X132904991Y-94194514D01*
X132966924Y-94113803D01*
X133098043Y-93886697D01*
X133198398Y-93644419D01*
X133266270Y-93391116D01*
X133300500Y-93131120D01*
X133300500Y-92868880D01*
X133266270Y-92608884D01*
X133198398Y-92355581D01*
X133180471Y-92312301D01*
X133098046Y-92113309D01*
X133098041Y-92113299D01*
X132966927Y-91886203D01*
X132966924Y-91886197D01*
X132904991Y-91805485D01*
X132879797Y-91740319D01*
X132893835Y-91671874D01*
X132904991Y-91654514D01*
X132966924Y-91573803D01*
X133098043Y-91346697D01*
X133198398Y-91104419D01*
X133266270Y-90851116D01*
X133300500Y-90591120D01*
X133300500Y-90328880D01*
X133266270Y-90068884D01*
X133198398Y-89815581D01*
X133196224Y-89810333D01*
X133098046Y-89573309D01*
X133098041Y-89573299D01*
X133034335Y-89462957D01*
X132966924Y-89346197D01*
X132904991Y-89265485D01*
X132896512Y-89243553D01*
X132884015Y-89223633D01*
X132884146Y-89211570D01*
X132879797Y-89200319D01*
X132884521Y-89177281D01*
X132884779Y-89153768D01*
X132892367Y-89139031D01*
X132893835Y-89131874D01*
X132899790Y-89121825D01*
X132902254Y-89118080D01*
X132966924Y-89033803D01*
X133032595Y-88920056D01*
X133034580Y-88917041D01*
X133058571Y-88896707D01*
X133081336Y-88875001D01*
X133085019Y-88874290D01*
X133087881Y-88871866D01*
X133119055Y-88867730D01*
X133149943Y-88861777D01*
X133153425Y-88863171D01*
X133157144Y-88862678D01*
X133185609Y-88876055D01*
X133214808Y-88887745D01*
X133219675Y-88892065D01*
X133220379Y-88892396D01*
X133220794Y-88893058D01*
X133225838Y-88897535D01*
X138298181Y-93969878D01*
X138331666Y-94031201D01*
X138334500Y-94057559D01*
X138334500Y-113469971D01*
X138314815Y-113537010D01*
X138285988Y-113568346D01*
X138237254Y-113605741D01*
X138237253Y-113605743D01*
X138065739Y-113777256D01*
X138065733Y-113777263D01*
X137918067Y-113969706D01*
X137796777Y-114179785D01*
X137796773Y-114179794D01*
X137703947Y-114403895D01*
X137641161Y-114638214D01*
X137609500Y-114878711D01*
X137609500Y-115121288D01*
X137641161Y-115361785D01*
X137703947Y-115596104D01*
X137796773Y-115820205D01*
X137796777Y-115820214D01*
X137816437Y-115854266D01*
X137918064Y-116030289D01*
X137918066Y-116030292D01*
X137918067Y-116030293D01*
X138065733Y-116222736D01*
X138065739Y-116222743D01*
X138237256Y-116394260D01*
X138237263Y-116394266D01*
X138333292Y-116467951D01*
X138429711Y-116541936D01*
X138639788Y-116663224D01*
X138863900Y-116756054D01*
X139098211Y-116818838D01*
X139278586Y-116842584D01*
X139338711Y-116850500D01*
X139338712Y-116850500D01*
X139581289Y-116850500D01*
X139629388Y-116844167D01*
X139821789Y-116818838D01*
X140056100Y-116756054D01*
X140280212Y-116663224D01*
X140490289Y-116541936D01*
X140682738Y-116394265D01*
X140761902Y-116315100D01*
X140823221Y-116281618D01*
X140892913Y-116286602D01*
X140906744Y-116292918D01*
X141042620Y-116343596D01*
X141042627Y-116343598D01*
X141102155Y-116349999D01*
X141102172Y-116350000D01*
X141750000Y-116350000D01*
X141750000Y-115433012D01*
X141807007Y-115465925D01*
X141934174Y-115500000D01*
X142065826Y-115500000D01*
X142192993Y-115465925D01*
X142250000Y-115433012D01*
X142250000Y-116350000D01*
X142897828Y-116350000D01*
X142897844Y-116349999D01*
X142957372Y-116343598D01*
X142957379Y-116343596D01*
X143092086Y-116293354D01*
X143092093Y-116293350D01*
X143207187Y-116207190D01*
X143207190Y-116207187D01*
X143293350Y-116092093D01*
X143293354Y-116092086D01*
X143343596Y-115957379D01*
X143343598Y-115957372D01*
X143349999Y-115897844D01*
X143350000Y-115897827D01*
X143350000Y-115250000D01*
X142433012Y-115250000D01*
X142465925Y-115192993D01*
X142500000Y-115065826D01*
X142500000Y-114934174D01*
X142465925Y-114807007D01*
X142433012Y-114750000D01*
X143350000Y-114750000D01*
X143350000Y-114102172D01*
X143349999Y-114102155D01*
X143343598Y-114042627D01*
X143343596Y-114042620D01*
X143293354Y-113907913D01*
X143293350Y-113907906D01*
X143207190Y-113792812D01*
X143207187Y-113792809D01*
X143092093Y-113706649D01*
X143092086Y-113706645D01*
X142957379Y-113656403D01*
X142957372Y-113656401D01*
X142897844Y-113650000D01*
X142250000Y-113650000D01*
X142250000Y-114566988D01*
X142192993Y-114534075D01*
X142065826Y-114500000D01*
X141934174Y-114500000D01*
X141807007Y-114534075D01*
X141750000Y-114566988D01*
X141750000Y-113650000D01*
X141102155Y-113650000D01*
X141042627Y-113656401D01*
X141042620Y-113656403D01*
X140899601Y-113709746D01*
X140899031Y-113708218D01*
X140885990Y-113711055D01*
X140864349Y-113720332D01*
X140852486Y-113718341D01*
X140840730Y-113720899D01*
X140818663Y-113712667D01*
X140795443Y-113708772D01*
X140781373Y-113698757D01*
X140775266Y-113696479D01*
X140766206Y-113689001D01*
X140764001Y-113686998D01*
X140682738Y-113605735D01*
X140629932Y-113565215D01*
X140626125Y-113561757D01*
X140610502Y-113536148D01*
X140592810Y-113511917D01*
X140591645Y-113505237D01*
X140589738Y-113502110D01*
X140589899Y-113495215D01*
X140585500Y-113469971D01*
X140585500Y-93451421D01*
X140575948Y-93391114D01*
X140557786Y-93276445D01*
X140510568Y-93131120D01*
X140503043Y-93107960D01*
X140503042Y-93107957D01*
X140422613Y-92950109D01*
X140372491Y-92881121D01*
X140350242Y-92850498D01*
X140318487Y-92806789D01*
X138488260Y-90976562D01*
X133311434Y-85799737D01*
X133277949Y-85738414D01*
X133276176Y-85695870D01*
X133300500Y-85511120D01*
X133300500Y-85248886D01*
X133300499Y-85248872D01*
X133298960Y-85237188D01*
X133266270Y-84988884D01*
X133198398Y-84735581D01*
X133198394Y-84735571D01*
X133098046Y-84493309D01*
X133098041Y-84493299D01*
X132966927Y-84266203D01*
X132966924Y-84266197D01*
X132904991Y-84185485D01*
X132879797Y-84120319D01*
X132893835Y-84051874D01*
X132904991Y-84034514D01*
X132966924Y-83953803D01*
X133098043Y-83726697D01*
X133098046Y-83726690D01*
X133198397Y-83484422D01*
X133198397Y-83484421D01*
X133198398Y-83484419D01*
X133266270Y-83231116D01*
X133300500Y-82971120D01*
X133300500Y-82708880D01*
X133266270Y-82448884D01*
X133198398Y-82195581D01*
X133105413Y-81971095D01*
X133098046Y-81953309D01*
X133098041Y-81953299D01*
X132966927Y-81726203D01*
X132966924Y-81726197D01*
X132904991Y-81645485D01*
X132879797Y-81580319D01*
X132893835Y-81511874D01*
X132904991Y-81494514D01*
X132966924Y-81413803D01*
X133098043Y-81186697D01*
X133198398Y-80944419D01*
X133266270Y-80691116D01*
X133300500Y-80431120D01*
X133300500Y-80168880D01*
X133266270Y-79908884D01*
X133198398Y-79655581D01*
X133164714Y-79574260D01*
X133098046Y-79413309D01*
X133098041Y-79413299D01*
X133045595Y-79322460D01*
X132966924Y-79186197D01*
X132904991Y-79105485D01*
X132879797Y-79040319D01*
X132893835Y-78971874D01*
X132904991Y-78954514D01*
X132966924Y-78873803D01*
X133098043Y-78646697D01*
X133198398Y-78404419D01*
X133266270Y-78151116D01*
X133300500Y-77891120D01*
X133300500Y-77628880D01*
X133266270Y-77368884D01*
X133198398Y-77115581D01*
X133117517Y-76920317D01*
X133098046Y-76873309D01*
X133098041Y-76873299D01*
X133045595Y-76782460D01*
X132966924Y-76646197D01*
X132904991Y-76565485D01*
X132879797Y-76500319D01*
X132893835Y-76431874D01*
X132904991Y-76414514D01*
X132966924Y-76333803D01*
X133098043Y-76106697D01*
X133198398Y-75864419D01*
X133266270Y-75611116D01*
X133300500Y-75351120D01*
X133300500Y-75088880D01*
X133266270Y-74828884D01*
X133198398Y-74575581D01*
X133117517Y-74380317D01*
X133098046Y-74333309D01*
X133098041Y-74333299D01*
X133045595Y-74242460D01*
X132966924Y-74106197D01*
X132904991Y-74025485D01*
X132879797Y-73960319D01*
X132893835Y-73891874D01*
X132904991Y-73874514D01*
X132966924Y-73793803D01*
X133098043Y-73566697D01*
X133198398Y-73324419D01*
X133266270Y-73071116D01*
X133300500Y-72811120D01*
X133300500Y-72548880D01*
X133266270Y-72288884D01*
X133198398Y-72035581D01*
X133117517Y-71840317D01*
X133098046Y-71793309D01*
X133098041Y-71793299D01*
X132966924Y-71566196D01*
X132807281Y-71358148D01*
X132807274Y-71358140D01*
X132621856Y-71172722D01*
X132621849Y-71172716D01*
X132577676Y-71138821D01*
X132536473Y-71082393D01*
X132532318Y-71012647D01*
X132552845Y-70967558D01*
X132582914Y-70926172D01*
X132690102Y-70715802D01*
X132763065Y-70491247D01*
X132800000Y-70258052D01*
X132800000Y-70021947D01*
X132763065Y-69788752D01*
X132690102Y-69564197D01*
X132582914Y-69353828D01*
X132552844Y-69312440D01*
X132529364Y-69246633D01*
X132545189Y-69178579D01*
X132577674Y-69141180D01*
X132621851Y-69107282D01*
X132681720Y-69047413D01*
X132807274Y-68921860D01*
X132807277Y-68921855D01*
X132807282Y-68921851D01*
X132966924Y-68713803D01*
X133098043Y-68486697D01*
X133198398Y-68244419D01*
X133266270Y-67991116D01*
X133300500Y-67731120D01*
X133300500Y-67468880D01*
X133266270Y-67208884D01*
X133198398Y-66955581D01*
X133187888Y-66930208D01*
X133098046Y-66713309D01*
X133098041Y-66713299D01*
X132966924Y-66486196D01*
X132807281Y-66278148D01*
X132807274Y-66278140D01*
X132621860Y-66092726D01*
X132621851Y-66092718D01*
X132413803Y-65933075D01*
X132186700Y-65801958D01*
X132186690Y-65801953D01*
X131944428Y-65701605D01*
X131944421Y-65701603D01*
X131944419Y-65701602D01*
X131691116Y-65633730D01*
X131633339Y-65626123D01*
X131431127Y-65599500D01*
X131431120Y-65599500D01*
X131168880Y-65599500D01*
X131168872Y-65599500D01*
X130937772Y-65629926D01*
X130908884Y-65633730D01*
X130655581Y-65701602D01*
X130655571Y-65701605D01*
X130413309Y-65801953D01*
X130413299Y-65801958D01*
X130186196Y-65933075D01*
X129978148Y-66092718D01*
X129792718Y-66278148D01*
X129633075Y-66486196D01*
X129501958Y-66713299D01*
X129501953Y-66713309D01*
X129401605Y-66955571D01*
X129401602Y-66955581D01*
X129333730Y-67208885D01*
X129299500Y-67468872D01*
X129299500Y-67731127D01*
X129326123Y-67933339D01*
X129333730Y-67991116D01*
X129401602Y-68244418D01*
X129401605Y-68244428D01*
X129501953Y-68486690D01*
X129501958Y-68486700D01*
X129633075Y-68713803D01*
X129792718Y-68921851D01*
X129792726Y-68921860D01*
X129978143Y-69107277D01*
X129978150Y-69107283D01*
X130022323Y-69141178D01*
X130063526Y-69197605D01*
X130067681Y-69267351D01*
X130047157Y-69312437D01*
X130017084Y-69353830D01*
X129909897Y-69564197D01*
X129836934Y-69788752D01*
X129800000Y-70021947D01*
X129800000Y-70258052D01*
X129836934Y-70491247D01*
X129909897Y-70715802D01*
X130017087Y-70926174D01*
X130047155Y-70967560D01*
X130070635Y-71033366D01*
X130054809Y-71101420D01*
X130022325Y-71138819D01*
X129978151Y-71172716D01*
X129978140Y-71172726D01*
X129792718Y-71358148D01*
X129633075Y-71566196D01*
X129501958Y-71793299D01*
X129501953Y-71793309D01*
X129401605Y-72035571D01*
X129401602Y-72035581D01*
X129336168Y-72279788D01*
X129333730Y-72288885D01*
X129299500Y-72548872D01*
X129299500Y-72811127D01*
X129317396Y-72947049D01*
X129333730Y-73071116D01*
X129401602Y-73324418D01*
X129401605Y-73324428D01*
X129501953Y-73566690D01*
X129501958Y-73566700D01*
X129633075Y-73793802D01*
X129695007Y-73874514D01*
X129720201Y-73939683D01*
X129706162Y-74008128D01*
X129695007Y-74025486D01*
X129633075Y-74106197D01*
X129501958Y-74333299D01*
X129501953Y-74333309D01*
X129401605Y-74575571D01*
X129401602Y-74575581D01*
X129336168Y-74819788D01*
X129333730Y-74828885D01*
X129299500Y-75088872D01*
X129299500Y-75351127D01*
X129321564Y-75518711D01*
X129333730Y-75611116D01*
X129401602Y-75864418D01*
X129401605Y-75864428D01*
X129501953Y-76106690D01*
X129501958Y-76106700D01*
X129633075Y-76333802D01*
X129695007Y-76414514D01*
X129720201Y-76479683D01*
X129706162Y-76548128D01*
X129695007Y-76565486D01*
X129633075Y-76646197D01*
X129501958Y-76873299D01*
X129501953Y-76873309D01*
X129401605Y-77115571D01*
X129401602Y-77115581D01*
X129336168Y-77359788D01*
X129333730Y-77368885D01*
X129299500Y-77628872D01*
X129299500Y-77891127D01*
X129321564Y-78058711D01*
X129333730Y-78151116D01*
X129401602Y-78404418D01*
X129401605Y-78404428D01*
X129501953Y-78646690D01*
X129501958Y-78646700D01*
X129633075Y-78873802D01*
X129695007Y-78954514D01*
X129720201Y-79019683D01*
X129706162Y-79088128D01*
X129695007Y-79105486D01*
X129633075Y-79186197D01*
X129501958Y-79413299D01*
X129501953Y-79413309D01*
X129401605Y-79655571D01*
X129401602Y-79655581D01*
X129351324Y-79843224D01*
X129333730Y-79908885D01*
X129299500Y-80168872D01*
X129299500Y-80431127D01*
X129312124Y-80527007D01*
X129333730Y-80691116D01*
X129401602Y-80944418D01*
X129401605Y-80944428D01*
X129501953Y-81186690D01*
X129501958Y-81186700D01*
X129633075Y-81413802D01*
X129695007Y-81494514D01*
X129720201Y-81559683D01*
X129706162Y-81628128D01*
X129695007Y-81645486D01*
X129633075Y-81726197D01*
X129501958Y-81953299D01*
X129501953Y-81953309D01*
X129401605Y-82195571D01*
X129401602Y-82195581D01*
X129333730Y-82448885D01*
X129299500Y-82708872D01*
X129299500Y-82971127D01*
X129317971Y-83111421D01*
X129333730Y-83231116D01*
X129401602Y-83484419D01*
X129401602Y-83484420D01*
X129401603Y-83484422D01*
X129501953Y-83726690D01*
X129501958Y-83726700D01*
X129633075Y-83953802D01*
X129695007Y-84034514D01*
X129720201Y-84099683D01*
X129706162Y-84168128D01*
X129695007Y-84185486D01*
X129633075Y-84266197D01*
X129501958Y-84493299D01*
X129501953Y-84493309D01*
X129401605Y-84735571D01*
X129401602Y-84735581D01*
X129333730Y-84988885D01*
X129299500Y-85248872D01*
X129299500Y-85511127D01*
X129323823Y-85695870D01*
X129333730Y-85771116D01*
X129341399Y-85799737D01*
X129401602Y-86024418D01*
X129401605Y-86024428D01*
X129501953Y-86266690D01*
X129501958Y-86266700D01*
X129633075Y-86493802D01*
X129695007Y-86574514D01*
X129720201Y-86639683D01*
X129706162Y-86708128D01*
X129695007Y-86725486D01*
X129633075Y-86806197D01*
X129501958Y-87033299D01*
X129501953Y-87033309D01*
X129401605Y-87275571D01*
X129401602Y-87275581D01*
X129333730Y-87528885D01*
X129299500Y-87788872D01*
X129299500Y-88051127D01*
X129326123Y-88253339D01*
X129333730Y-88311116D01*
X129359845Y-88408578D01*
X129401602Y-88564418D01*
X129401605Y-88564428D01*
X129501953Y-88806690D01*
X129501958Y-88806700D01*
X129633075Y-89033802D01*
X129695007Y-89114514D01*
X129720201Y-89179683D01*
X129706162Y-89248128D01*
X129695007Y-89265486D01*
X129633075Y-89346197D01*
X129501958Y-89573299D01*
X129501953Y-89573309D01*
X129401605Y-89815571D01*
X129401602Y-89815581D01*
X129359534Y-89972584D01*
X129333730Y-90068885D01*
X129299500Y-90328872D01*
X129299500Y-90591127D01*
X129311711Y-90683872D01*
X129333730Y-90851116D01*
X129391261Y-91065826D01*
X129401602Y-91104418D01*
X129401605Y-91104428D01*
X129501953Y-91346690D01*
X129501958Y-91346700D01*
X129633075Y-91573802D01*
X129695007Y-91654514D01*
X129720201Y-91719683D01*
X129706162Y-91788128D01*
X129695007Y-91805486D01*
X129633075Y-91886197D01*
X129501958Y-92113299D01*
X129501953Y-92113309D01*
X129401605Y-92355571D01*
X129401602Y-92355581D01*
X129333730Y-92608885D01*
X129299500Y-92868872D01*
X129299500Y-93131127D01*
X129318633Y-93276445D01*
X129333730Y-93391116D01*
X129349889Y-93451421D01*
X129401602Y-93644418D01*
X129401605Y-93644428D01*
X129501953Y-93886690D01*
X129501958Y-93886700D01*
X129633075Y-94113802D01*
X129695007Y-94194514D01*
X129720201Y-94259683D01*
X129706162Y-94328128D01*
X129695007Y-94345486D01*
X129633075Y-94426197D01*
X129501958Y-94653299D01*
X129501953Y-94653309D01*
X129401605Y-94895571D01*
X129401602Y-94895581D01*
X129333730Y-95148885D01*
X129299500Y-95408872D01*
X129299500Y-95671127D01*
X129326123Y-95873339D01*
X129333730Y-95931116D01*
X129401602Y-96184418D01*
X129401605Y-96184428D01*
X129501953Y-96426690D01*
X129501958Y-96426700D01*
X129633075Y-96653802D01*
X129695007Y-96734514D01*
X129720201Y-96799683D01*
X129706162Y-96868128D01*
X129695007Y-96885486D01*
X129633075Y-96966197D01*
X129501958Y-97193299D01*
X129501953Y-97193309D01*
X129401605Y-97435571D01*
X129401602Y-97435581D01*
X129333730Y-97688885D01*
X129299500Y-97948872D01*
X129299500Y-98211127D01*
X129326123Y-98413339D01*
X129333730Y-98471116D01*
X129401602Y-98724418D01*
X129401605Y-98724428D01*
X129501953Y-98966690D01*
X129501958Y-98966700D01*
X129633075Y-99193802D01*
X129695007Y-99274514D01*
X129720201Y-99339683D01*
X129706162Y-99408128D01*
X129695007Y-99425486D01*
X129633075Y-99506197D01*
X129501958Y-99733299D01*
X129501953Y-99733309D01*
X129401605Y-99975571D01*
X129401602Y-99975581D01*
X129333730Y-100228885D01*
X129299500Y-100488872D01*
X129299500Y-100751127D01*
X129326123Y-100953339D01*
X129333730Y-101011116D01*
X129401602Y-101264418D01*
X129401605Y-101264428D01*
X129501953Y-101506690D01*
X129501958Y-101506700D01*
X129633075Y-101733802D01*
X129695007Y-101814514D01*
X129720201Y-101879683D01*
X129706162Y-101948128D01*
X129695007Y-101965486D01*
X129633075Y-102046197D01*
X129501958Y-102273299D01*
X129501953Y-102273309D01*
X129401605Y-102515571D01*
X129401602Y-102515581D01*
X129333730Y-102768885D01*
X129299500Y-103028872D01*
X129299500Y-103291127D01*
X129322795Y-103468059D01*
X129333730Y-103551116D01*
X129364105Y-103664476D01*
X129401602Y-103804418D01*
X129401605Y-103804428D01*
X129501953Y-104046690D01*
X129501958Y-104046700D01*
X129633075Y-104273803D01*
X129792718Y-104481851D01*
X129792726Y-104481860D01*
X129978140Y-104667274D01*
X129978148Y-104667281D01*
X130130080Y-104783864D01*
X130171282Y-104840292D01*
X130175437Y-104910038D01*
X130141224Y-104970958D01*
X130102047Y-104996799D01*
X130054126Y-105016648D01*
X130054109Y-105016657D01*
X129855382Y-105131392D01*
X129673338Y-105271081D01*
X129511081Y-105433338D01*
X129371392Y-105615382D01*
X129256657Y-105814109D01*
X129256650Y-105814123D01*
X129168842Y-106026112D01*
X129109453Y-106247759D01*
X129109451Y-106247770D01*
X129079500Y-106475258D01*
X127380000Y-106475258D01*
X127380000Y-102100000D01*
X109690000Y-102100000D01*
X109690000Y-108590000D01*
X79500500Y-108590000D01*
X79500500Y-56793646D01*
X79799500Y-56793646D01*
X79799500Y-57206353D01*
X79839952Y-57617084D01*
X79920464Y-58021848D01*
X79920467Y-58021859D01*
X80040274Y-58416814D01*
X80198214Y-58798113D01*
X80198216Y-58798118D01*
X80392759Y-59162081D01*
X80392770Y-59162099D01*
X80622052Y-59505244D01*
X80622062Y-59505258D01*
X80883885Y-59824291D01*
X81175708Y-60116114D01*
X81175713Y-60116118D01*
X81175714Y-60116119D01*
X81494747Y-60377942D01*
X81837907Y-60607234D01*
X81837916Y-60607239D01*
X81837918Y-60607240D01*
X82201881Y-60801783D01*
X82201883Y-60801783D01*
X82201889Y-60801787D01*
X82583187Y-60959726D01*
X82978131Y-61079530D01*
X82978137Y-61079531D01*
X82978140Y-61079532D01*
X82978151Y-61079535D01*
X83364093Y-61156303D01*
X83382915Y-61160047D01*
X83793643Y-61200500D01*
X83793646Y-61200500D01*
X84206354Y-61200500D01*
X84206357Y-61200500D01*
X84617085Y-61160047D01*
X84695884Y-61144372D01*
X85021848Y-61079535D01*
X85021859Y-61079532D01*
X85021859Y-61079531D01*
X85021869Y-61079530D01*
X85416813Y-60959726D01*
X85798111Y-60801787D01*
X86162093Y-60607234D01*
X86505253Y-60377942D01*
X86824286Y-60116119D01*
X86848439Y-60091966D01*
X89949500Y-60091966D01*
X89949500Y-61908028D01*
X89949501Y-61908034D01*
X89960113Y-62027415D01*
X90016089Y-62223045D01*
X90016090Y-62223048D01*
X90016091Y-62223049D01*
X90110302Y-62403407D01*
X90143802Y-62444492D01*
X90238890Y-62561109D01*
X90314165Y-62622487D01*
X90396593Y-62689698D01*
X90576951Y-62783909D01*
X90772582Y-62839886D01*
X90891963Y-62850500D01*
X92708036Y-62850499D01*
X92827418Y-62839886D01*
X93023049Y-62783909D01*
X93203407Y-62689698D01*
X93361109Y-62561109D01*
X93489698Y-62403407D01*
X93565510Y-62258271D01*
X93613993Y-62207968D01*
X93681981Y-62191860D01*
X93731712Y-62205202D01*
X93812423Y-62246327D01*
X93863218Y-62294301D01*
X93880013Y-62362122D01*
X93857475Y-62428257D01*
X93843808Y-62444492D01*
X92866786Y-63421517D01*
X92741519Y-63546783D01*
X92741519Y-63546784D01*
X92741517Y-63546786D01*
X92696796Y-63608338D01*
X92637386Y-63690109D01*
X92600841Y-63761833D01*
X92564296Y-63833556D01*
X92560483Y-63841038D01*
X92556956Y-63847961D01*
X92502214Y-64016440D01*
X92502214Y-64016443D01*
X92492144Y-64080024D01*
X92474500Y-64191422D01*
X92474500Y-88408578D01*
X92502214Y-88583556D01*
X92556956Y-88752039D01*
X92556957Y-88752042D01*
X92637386Y-88909890D01*
X92693186Y-88986692D01*
X92693188Y-88986694D01*
X92741513Y-89053210D01*
X92741515Y-89053212D01*
X103888565Y-100200263D01*
X103922050Y-100261586D01*
X103923823Y-100304129D01*
X103899501Y-100488870D01*
X103899500Y-100488886D01*
X103899500Y-100751127D01*
X103926123Y-100953339D01*
X103933730Y-101011116D01*
X104001602Y-101264418D01*
X104001605Y-101264428D01*
X104101953Y-101506690D01*
X104101958Y-101506700D01*
X104233075Y-101733802D01*
X104295007Y-101814514D01*
X104320201Y-101879683D01*
X104306162Y-101948128D01*
X104295007Y-101965486D01*
X104233075Y-102046197D01*
X104101958Y-102273299D01*
X104101953Y-102273309D01*
X104001605Y-102515571D01*
X104001602Y-102515581D01*
X103933730Y-102768885D01*
X103899500Y-103028872D01*
X103899500Y-103291127D01*
X103922795Y-103468059D01*
X103933730Y-103551116D01*
X103964105Y-103664476D01*
X104001602Y-103804418D01*
X104001605Y-103804428D01*
X104101953Y-104046690D01*
X104101958Y-104046700D01*
X104233075Y-104273803D01*
X104392718Y-104481851D01*
X104392726Y-104481860D01*
X104578140Y-104667274D01*
X104578148Y-104667281D01*
X104786196Y-104826924D01*
X105013299Y-104958041D01*
X105013314Y-104958048D01*
X105177254Y-105025954D01*
X105231658Y-105069795D01*
X105253723Y-105136089D01*
X105236444Y-105203788D01*
X105205291Y-105238889D01*
X105163334Y-105271085D01*
X105001081Y-105433338D01*
X104861392Y-105615382D01*
X104746657Y-105814109D01*
X104746650Y-105814123D01*
X104658842Y-106026112D01*
X104599453Y-106247759D01*
X104599451Y-106247770D01*
X104569500Y-106475258D01*
X104569500Y-106704741D01*
X104594446Y-106894215D01*
X104599452Y-106932238D01*
X104599453Y-106932240D01*
X104658842Y-107153887D01*
X104746650Y-107365876D01*
X104746657Y-107365890D01*
X104861392Y-107564617D01*
X105001081Y-107746661D01*
X105001089Y-107746670D01*
X105163330Y-107908911D01*
X105163338Y-107908918D01*
X105345382Y-108048607D01*
X105345385Y-108048608D01*
X105345388Y-108048611D01*
X105544112Y-108163344D01*
X105544117Y-108163346D01*
X105544123Y-108163349D01*
X105635480Y-108201190D01*
X105756113Y-108251158D01*
X105977762Y-108310548D01*
X106205266Y-108340500D01*
X106205273Y-108340500D01*
X106434727Y-108340500D01*
X106434734Y-108340500D01*
X106662238Y-108310548D01*
X106883887Y-108251158D01*
X107095888Y-108163344D01*
X107294612Y-108048611D01*
X107476661Y-107908919D01*
X107476665Y-107908914D01*
X107476670Y-107908911D01*
X107638911Y-107746670D01*
X107638914Y-107746665D01*
X107638919Y-107746661D01*
X107778611Y-107564612D01*
X107893344Y-107365888D01*
X107981158Y-107153887D01*
X108040548Y-106932238D01*
X108070500Y-106704734D01*
X108070500Y-106475266D01*
X108040548Y-106247762D01*
X107981158Y-106026113D01*
X107893344Y-105814112D01*
X107778611Y-105615388D01*
X107778608Y-105615385D01*
X107778607Y-105615382D01*
X107638918Y-105433338D01*
X107638911Y-105433330D01*
X107476670Y-105271089D01*
X107476661Y-105271081D01*
X107294617Y-105131392D01*
X107285570Y-105126169D01*
X107180052Y-105065248D01*
X107095890Y-105016657D01*
X107095873Y-105016648D01*
X107080423Y-105010249D01*
X107026020Y-104966408D01*
X107003956Y-104900113D01*
X107021236Y-104832414D01*
X107052387Y-104797316D01*
X107221851Y-104667282D01*
X107221856Y-104667276D01*
X107221860Y-104667274D01*
X107407274Y-104481860D01*
X107407277Y-104481855D01*
X107407282Y-104481851D01*
X107566924Y-104273803D01*
X107698043Y-104046697D01*
X107798398Y-103804419D01*
X107866270Y-103551116D01*
X107900500Y-103291120D01*
X107900500Y-103028880D01*
X107866270Y-102768884D01*
X107798398Y-102515581D01*
X107798394Y-102515571D01*
X107698046Y-102273309D01*
X107698041Y-102273299D01*
X107606447Y-102114654D01*
X107566924Y-102046197D01*
X107502869Y-101962720D01*
X107500911Y-101959848D01*
X107491191Y-101929793D01*
X107479797Y-101900319D01*
X107480520Y-101896792D01*
X107479413Y-101893368D01*
X107487488Y-101862819D01*
X107493835Y-101831874D01*
X107496949Y-101827027D01*
X107497269Y-101825818D01*
X107498380Y-101824801D01*
X107504991Y-101814514D01*
X107566924Y-101733803D01*
X107698043Y-101506697D01*
X107798398Y-101264419D01*
X107866270Y-101011116D01*
X107900500Y-100751120D01*
X107900500Y-100488880D01*
X107866270Y-100228884D01*
X107798398Y-99975581D01*
X107798394Y-99975571D01*
X107698046Y-99733309D01*
X107698041Y-99733299D01*
X107566927Y-99506203D01*
X107566924Y-99506197D01*
X107504991Y-99425485D01*
X107479797Y-99360319D01*
X107493835Y-99291874D01*
X107504991Y-99274514D01*
X107566924Y-99193803D01*
X107698043Y-98966697D01*
X107798398Y-98724419D01*
X107866270Y-98471116D01*
X107900500Y-98211120D01*
X107900500Y-97948880D01*
X107866270Y-97688884D01*
X107798398Y-97435581D01*
X107708867Y-97219434D01*
X107698046Y-97193309D01*
X107698041Y-97193299D01*
X107566927Y-96966203D01*
X107566924Y-96966197D01*
X107504991Y-96885485D01*
X107479797Y-96820319D01*
X107493835Y-96751874D01*
X107504991Y-96734514D01*
X107566924Y-96653803D01*
X107698043Y-96426697D01*
X107798398Y-96184419D01*
X107866270Y-95931116D01*
X107900500Y-95671120D01*
X107900500Y-95408880D01*
X107866270Y-95148884D01*
X107798398Y-94895581D01*
X107798394Y-94895571D01*
X107698046Y-94653309D01*
X107698041Y-94653299D01*
X107566927Y-94426203D01*
X107566924Y-94426197D01*
X107504991Y-94345485D01*
X107479797Y-94280319D01*
X107493835Y-94211874D01*
X107504991Y-94194514D01*
X107566924Y-94113803D01*
X107698043Y-93886697D01*
X107798398Y-93644419D01*
X107866270Y-93391116D01*
X107900500Y-93131120D01*
X107900500Y-92868880D01*
X107866270Y-92608884D01*
X107798398Y-92355581D01*
X107780471Y-92312301D01*
X107698046Y-92113309D01*
X107698041Y-92113299D01*
X107566927Y-91886203D01*
X107566924Y-91886197D01*
X107504991Y-91805485D01*
X107479797Y-91740319D01*
X107493835Y-91671874D01*
X107504991Y-91654514D01*
X107566924Y-91573803D01*
X107698043Y-91346697D01*
X107798398Y-91104419D01*
X107866270Y-90851116D01*
X107900500Y-90591120D01*
X107900500Y-90328880D01*
X107866270Y-90068884D01*
X107798398Y-89815581D01*
X107796224Y-89810333D01*
X107698046Y-89573309D01*
X107698041Y-89573299D01*
X107634335Y-89462957D01*
X107566924Y-89346197D01*
X107504991Y-89265485D01*
X107479797Y-89200319D01*
X107493835Y-89131874D01*
X107504991Y-89114514D01*
X107566924Y-89033803D01*
X107698043Y-88806697D01*
X107798398Y-88564419D01*
X107866270Y-88311116D01*
X107900500Y-88051120D01*
X107900500Y-87788880D01*
X107866270Y-87528884D01*
X107798398Y-87275581D01*
X107798394Y-87275571D01*
X107698046Y-87033309D01*
X107698041Y-87033299D01*
X107566927Y-86806203D01*
X107566924Y-86806197D01*
X107504991Y-86725485D01*
X107479797Y-86660319D01*
X107493835Y-86591874D01*
X107504991Y-86574514D01*
X107566924Y-86493803D01*
X107698043Y-86266697D01*
X107798398Y-86024419D01*
X107866270Y-85771116D01*
X107900500Y-85511120D01*
X107900500Y-85248880D01*
X107866270Y-84988884D01*
X107798398Y-84735581D01*
X107798394Y-84735571D01*
X107698046Y-84493309D01*
X107698041Y-84493299D01*
X107566927Y-84266203D01*
X107566924Y-84266197D01*
X107504991Y-84185485D01*
X107479797Y-84120319D01*
X107493835Y-84051874D01*
X107504991Y-84034514D01*
X107566924Y-83953803D01*
X107698043Y-83726697D01*
X107698046Y-83726690D01*
X107798397Y-83484422D01*
X107798397Y-83484421D01*
X107798398Y-83484419D01*
X107866270Y-83231116D01*
X107900500Y-82971120D01*
X107900500Y-82708880D01*
X107866270Y-82448884D01*
X107798398Y-82195581D01*
X107705413Y-81971095D01*
X107698046Y-81953309D01*
X107698041Y-81953299D01*
X107566927Y-81726203D01*
X107566924Y-81726197D01*
X107504991Y-81645485D01*
X107479797Y-81580319D01*
X107493835Y-81511874D01*
X107504991Y-81494514D01*
X107566924Y-81413803D01*
X107698043Y-81186697D01*
X107798398Y-80944419D01*
X107866270Y-80691116D01*
X107900500Y-80431120D01*
X107900500Y-80168880D01*
X107866270Y-79908884D01*
X107798398Y-79655581D01*
X107764714Y-79574260D01*
X107698046Y-79413309D01*
X107698041Y-79413299D01*
X107645595Y-79322460D01*
X107566924Y-79186197D01*
X107504991Y-79105485D01*
X107479797Y-79040319D01*
X107493835Y-78971874D01*
X107504991Y-78954514D01*
X107566924Y-78873803D01*
X107698043Y-78646697D01*
X107798398Y-78404419D01*
X107866270Y-78151116D01*
X107900500Y-77891120D01*
X107900500Y-77628880D01*
X107866270Y-77368884D01*
X107798398Y-77115581D01*
X107717517Y-76920317D01*
X107698046Y-76873309D01*
X107698041Y-76873299D01*
X107645595Y-76782460D01*
X107566924Y-76646197D01*
X107504991Y-76565485D01*
X107479797Y-76500319D01*
X107493835Y-76431874D01*
X107504991Y-76414514D01*
X107566924Y-76333803D01*
X107698043Y-76106697D01*
X107798398Y-75864419D01*
X107866270Y-75611116D01*
X107900500Y-75351120D01*
X107900500Y-75088880D01*
X107866270Y-74828884D01*
X107798398Y-74575581D01*
X107717517Y-74380317D01*
X107698046Y-74333309D01*
X107698041Y-74333299D01*
X107645595Y-74242460D01*
X107566924Y-74106197D01*
X107504991Y-74025485D01*
X107479797Y-73960319D01*
X107493835Y-73891874D01*
X107504991Y-73874514D01*
X107566924Y-73793803D01*
X107698043Y-73566697D01*
X107798398Y-73324419D01*
X107866270Y-73071116D01*
X107900500Y-72811120D01*
X107900500Y-72548880D01*
X107866270Y-72288884D01*
X107798398Y-72035581D01*
X107717517Y-71840317D01*
X107698046Y-71793309D01*
X107698041Y-71793299D01*
X107566924Y-71566196D01*
X107407281Y-71358148D01*
X107407274Y-71358140D01*
X107221856Y-71172722D01*
X107221849Y-71172716D01*
X107177676Y-71138821D01*
X107136473Y-71082393D01*
X107132318Y-71012647D01*
X107152845Y-70967558D01*
X107182914Y-70926172D01*
X107290102Y-70715802D01*
X107363065Y-70491247D01*
X107400000Y-70258052D01*
X107400000Y-70021947D01*
X107363065Y-69788754D01*
X107311607Y-69630382D01*
X107309612Y-69560540D01*
X107345692Y-69500707D01*
X107372121Y-69482158D01*
X107453407Y-69439698D01*
X107611109Y-69311109D01*
X107739698Y-69153407D01*
X107833909Y-68973049D01*
X107889886Y-68777418D01*
X107900500Y-68658037D01*
X107900499Y-66541964D01*
X107889886Y-66422582D01*
X107833909Y-66226951D01*
X107739698Y-66046593D01*
X107687684Y-65982803D01*
X107611109Y-65888890D01*
X107504488Y-65801953D01*
X107453407Y-65760302D01*
X107453404Y-65760300D01*
X107367088Y-65715212D01*
X107316781Y-65666725D01*
X107300500Y-65605304D01*
X107300500Y-63489778D01*
X107266015Y-63272049D01*
X107197895Y-63062394D01*
X107197895Y-63062393D01*
X107163237Y-62994375D01*
X107097815Y-62865978D01*
X107078857Y-62839885D01*
X106968248Y-62687642D01*
X106968244Y-62687638D01*
X106968242Y-62687635D01*
X106812365Y-62531758D01*
X106812364Y-62531757D01*
X106809253Y-62528646D01*
X106809238Y-62528632D01*
X105845176Y-61564570D01*
X105811691Y-61503247D01*
X105816675Y-61433555D01*
X105858547Y-61377622D01*
X105924011Y-61353205D01*
X105964947Y-61357114D01*
X105977762Y-61360548D01*
X106205266Y-61390500D01*
X106205273Y-61390500D01*
X106434727Y-61390500D01*
X106434734Y-61390500D01*
X106662238Y-61360548D01*
X106883887Y-61301158D01*
X107095888Y-61213344D01*
X107294612Y-61098611D01*
X107476661Y-60958919D01*
X107476665Y-60958914D01*
X107476670Y-60958911D01*
X107638911Y-60796670D01*
X107638914Y-60796665D01*
X107638919Y-60796661D01*
X107778611Y-60614612D01*
X107893344Y-60415888D01*
X107981158Y-60203887D01*
X108040548Y-59982238D01*
X108070500Y-59754734D01*
X108070500Y-59525266D01*
X108070499Y-59525258D01*
X129079500Y-59525258D01*
X129079500Y-59754741D01*
X129101822Y-59924286D01*
X129109452Y-59982238D01*
X129154474Y-60150265D01*
X129168842Y-60203887D01*
X129256650Y-60415876D01*
X129256656Y-60415888D01*
X129367126Y-60607229D01*
X129371392Y-60614617D01*
X129511081Y-60796661D01*
X129511089Y-60796670D01*
X129673330Y-60958911D01*
X129673338Y-60958918D01*
X129673339Y-60958919D01*
X129723962Y-60997764D01*
X129855382Y-61098607D01*
X129855385Y-61098608D01*
X129855388Y-61098611D01*
X130054112Y-61213344D01*
X130054117Y-61213346D01*
X130054123Y-61213349D01*
X130125237Y-61242805D01*
X130266113Y-61301158D01*
X130487762Y-61360548D01*
X130715266Y-61390500D01*
X130715273Y-61390500D01*
X130944727Y-61390500D01*
X130944734Y-61390500D01*
X131172238Y-61360548D01*
X131393887Y-61301158D01*
X131605888Y-61213344D01*
X131804612Y-61098611D01*
X131986661Y-60958919D01*
X131986665Y-60958914D01*
X131986670Y-60958911D01*
X132148911Y-60796670D01*
X132148914Y-60796665D01*
X132148919Y-60796661D01*
X132288611Y-60614612D01*
X132403344Y-60415888D01*
X132491158Y-60203887D01*
X132550548Y-59982238D01*
X132580500Y-59754734D01*
X132580500Y-59525266D01*
X132550548Y-59297762D01*
X132491158Y-59076113D01*
X132403344Y-58864112D01*
X132288611Y-58665388D01*
X132288608Y-58665385D01*
X132288607Y-58665382D01*
X132148918Y-58483338D01*
X132148911Y-58483330D01*
X131986670Y-58321089D01*
X131986661Y-58321081D01*
X131804617Y-58181392D01*
X131605890Y-58066657D01*
X131605876Y-58066650D01*
X131393887Y-57978842D01*
X131172238Y-57919452D01*
X131134215Y-57914446D01*
X130944741Y-57889500D01*
X130944734Y-57889500D01*
X130715266Y-57889500D01*
X130715258Y-57889500D01*
X130498715Y-57918009D01*
X130487762Y-57919452D01*
X130394076Y-57944554D01*
X130266112Y-57978842D01*
X130054123Y-58066650D01*
X130054109Y-58066657D01*
X129855382Y-58181392D01*
X129673338Y-58321081D01*
X129511081Y-58483338D01*
X129371392Y-58665382D01*
X129256657Y-58864109D01*
X129256650Y-58864123D01*
X129168842Y-59076112D01*
X129109453Y-59297759D01*
X129109451Y-59297770D01*
X129079500Y-59525258D01*
X108070499Y-59525258D01*
X108040548Y-59297762D01*
X107981158Y-59076113D01*
X107893344Y-58864112D01*
X107778611Y-58665388D01*
X107778608Y-58665385D01*
X107778607Y-58665382D01*
X107638918Y-58483338D01*
X107638911Y-58483330D01*
X107476670Y-58321089D01*
X107476661Y-58321081D01*
X107294617Y-58181392D01*
X107095890Y-58066657D01*
X107095876Y-58066650D01*
X106883887Y-57978842D01*
X106662238Y-57919452D01*
X106624215Y-57914446D01*
X106434741Y-57889500D01*
X106434734Y-57889500D01*
X106205266Y-57889500D01*
X106205258Y-57889500D01*
X105988715Y-57918009D01*
X105977762Y-57919452D01*
X105884076Y-57944554D01*
X105756112Y-57978842D01*
X105544123Y-58066650D01*
X105544109Y-58066657D01*
X105345382Y-58181392D01*
X105163338Y-58321081D01*
X105001081Y-58483338D01*
X104861392Y-58665382D01*
X104746657Y-58864109D01*
X104746650Y-58864123D01*
X104658842Y-59076112D01*
X104599453Y-59297759D01*
X104599451Y-59297770D01*
X104569500Y-59525258D01*
X104569500Y-59754741D01*
X104591822Y-59924286D01*
X104599452Y-59982238D01*
X104599453Y-59982240D01*
X104599455Y-59982249D01*
X104602885Y-59995051D01*
X104601221Y-60064900D01*
X104562058Y-60122762D01*
X104497829Y-60150265D01*
X104428927Y-60138678D01*
X104395429Y-60114823D01*
X100672582Y-56391976D01*
X100672573Y-56391966D01*
X100663522Y-56382915D01*
X100512365Y-56231758D01*
X100512361Y-56231755D01*
X100512357Y-56231751D01*
X100334025Y-56102187D01*
X100334024Y-56102186D01*
X100334022Y-56102185D01*
X100271096Y-56070122D01*
X100137606Y-56002104D01*
X100137603Y-56002103D01*
X99927952Y-55933985D01*
X99819086Y-55916742D01*
X99710222Y-55899499D01*
X99489778Y-55899499D01*
X99484667Y-55899499D01*
X99484643Y-55899500D01*
X95615357Y-55899500D01*
X95615333Y-55899499D01*
X95610222Y-55899499D01*
X95389778Y-55899499D01*
X95317201Y-55910994D01*
X95172047Y-55933985D01*
X94962396Y-56002103D01*
X94962393Y-56002104D01*
X94765974Y-56102187D01*
X94587641Y-56231752D01*
X94587636Y-56231756D01*
X94431755Y-56387638D01*
X91706211Y-59113181D01*
X91644888Y-59146666D01*
X91618530Y-59149500D01*
X90891971Y-59149500D01*
X90891965Y-59149500D01*
X90891964Y-59149501D01*
X90880316Y-59150536D01*
X90772584Y-59160113D01*
X90576954Y-59216089D01*
X90488885Y-59262093D01*
X90396593Y-59310302D01*
X90396591Y-59310303D01*
X90396590Y-59310304D01*
X90238890Y-59438890D01*
X90110304Y-59596590D01*
X90110302Y-59596593D01*
X90105776Y-59605258D01*
X90016089Y-59776954D01*
X89985384Y-59884266D01*
X89960634Y-59970767D01*
X89960114Y-59972583D01*
X89960113Y-59972586D01*
X89949500Y-60091966D01*
X86848439Y-60091966D01*
X86875505Y-60064900D01*
X86938873Y-60001533D01*
X87116114Y-59824291D01*
X87116119Y-59824286D01*
X87377942Y-59505253D01*
X87607234Y-59162093D01*
X87801787Y-58798111D01*
X87959726Y-58416813D01*
X88079530Y-58021869D01*
X88079532Y-58021859D01*
X88079535Y-58021848D01*
X88160047Y-57617084D01*
X88200500Y-57206353D01*
X88200500Y-56793646D01*
X88188436Y-56671161D01*
X88160047Y-56382915D01*
X88129980Y-56231758D01*
X88079535Y-55978151D01*
X88079532Y-55978140D01*
X88079531Y-55978137D01*
X88079530Y-55978131D01*
X87959726Y-55583187D01*
X87801787Y-55201889D01*
X87607234Y-54837907D01*
X87377942Y-54494747D01*
X87116119Y-54175714D01*
X87116118Y-54175713D01*
X87116114Y-54175708D01*
X86824291Y-53883885D01*
X86505258Y-53622062D01*
X86505257Y-53622061D01*
X86505253Y-53622058D01*
X86162093Y-53392766D01*
X86162088Y-53392763D01*
X86162081Y-53392759D01*
X85798118Y-53198216D01*
X85798113Y-53198214D01*
X85416814Y-53040274D01*
X85021859Y-52920467D01*
X85021848Y-52920464D01*
X84617084Y-52839952D01*
X84307741Y-52809485D01*
X84206357Y-52799500D01*
X83793643Y-52799500D01*
X83699966Y-52808726D01*
X83382915Y-52839952D01*
X82978151Y-52920464D01*
X82978140Y-52920467D01*
X82583185Y-53040274D01*
X82201886Y-53198214D01*
X82201881Y-53198216D01*
X81837918Y-53392759D01*
X81837900Y-53392770D01*
X81494755Y-53622052D01*
X81494741Y-53622062D01*
X81175708Y-53883885D01*
X80883885Y-54175708D01*
X80622062Y-54494741D01*
X80622052Y-54494755D01*
X80392770Y-54837900D01*
X80392759Y-54837918D01*
X80198216Y-55201881D01*
X80198214Y-55201886D01*
X80040274Y-55583185D01*
X79920467Y-55978140D01*
X79920464Y-55978151D01*
X79839952Y-56382915D01*
X79799500Y-56793646D01*
X79500500Y-56793646D01*
X79500500Y-52624500D01*
X79520185Y-52557461D01*
X79572989Y-52511706D01*
X79624500Y-52500500D01*
X165675500Y-52500500D01*
X165742539Y-52520185D01*
G37*
%TD.AperFunction*%
%TD*%
M02*
