%TF.GenerationSoftware,KiCad,Pcbnew,9.0.4*%
%TF.CreationDate,2025-11-06T19:22:00+05:30*%
%TF.ProjectId,projectxxxxxxx,70726f6a-6563-4747-9878-78787878782e,rev?*%
%TF.SameCoordinates,Original*%
%TF.FileFunction,Drillmap*%
%TF.FilePolarity,Positive*%
%FSLAX45Y45*%
G04 Gerber Fmt 4.5, Leading zero omitted, Abs format (unit mm)*
G04 Created by KiCad (PCBNEW 9.0.4) date 2025-11-06 19:22:00*
%MOMM*%
%LPD*%
G01*
G04 APERTURE LIST*
%ADD10C,0.050000*%
%ADD11C,0.200000*%
%ADD12C,0.300000*%
G04 APERTURE END LIST*
D10*
X5450000Y-5210000D02*
X15090000Y-5210000D01*
X15090000Y-13490000D01*
X5450000Y-13490000D01*
X5450000Y-5210000D01*
D11*
D12*
X7653500Y-5998000D02*
X7953500Y-6298000D01*
X7953500Y-5998000D02*
X7653500Y-6298000D01*
X7653500Y-10693000D02*
X7953500Y-10993000D01*
X7953500Y-10693000D02*
X7653500Y-10993000D01*
X10104500Y-5998000D02*
X10404500Y-6298000D01*
X10404500Y-5998000D02*
X10104500Y-6298000D01*
X10104500Y-10693000D02*
X10404500Y-10993000D01*
X10404500Y-10693000D02*
X10104500Y-10993000D01*
D11*
X5708277Y-13803984D02*
X5708277Y-13603984D01*
X5708277Y-13603984D02*
X5755896Y-13603984D01*
X5755896Y-13603984D02*
X5784467Y-13613508D01*
X5784467Y-13613508D02*
X5803515Y-13632555D01*
X5803515Y-13632555D02*
X5813039Y-13651603D01*
X5813039Y-13651603D02*
X5822562Y-13689698D01*
X5822562Y-13689698D02*
X5822562Y-13718269D01*
X5822562Y-13718269D02*
X5813039Y-13756365D01*
X5813039Y-13756365D02*
X5803515Y-13775412D01*
X5803515Y-13775412D02*
X5784467Y-13794460D01*
X5784467Y-13794460D02*
X5755896Y-13803984D01*
X5755896Y-13803984D02*
X5708277Y-13803984D01*
X5908277Y-13803984D02*
X5908277Y-13670650D01*
X5908277Y-13708746D02*
X5917801Y-13689698D01*
X5917801Y-13689698D02*
X5927324Y-13680174D01*
X5927324Y-13680174D02*
X5946372Y-13670650D01*
X5946372Y-13670650D02*
X5965420Y-13670650D01*
X6032086Y-13803984D02*
X6032086Y-13670650D01*
X6032086Y-13603984D02*
X6022562Y-13613508D01*
X6022562Y-13613508D02*
X6032086Y-13623031D01*
X6032086Y-13623031D02*
X6041610Y-13613508D01*
X6041610Y-13613508D02*
X6032086Y-13603984D01*
X6032086Y-13603984D02*
X6032086Y-13623031D01*
X6155896Y-13803984D02*
X6136848Y-13794460D01*
X6136848Y-13794460D02*
X6127324Y-13775412D01*
X6127324Y-13775412D02*
X6127324Y-13603984D01*
X6260658Y-13803984D02*
X6241610Y-13794460D01*
X6241610Y-13794460D02*
X6232086Y-13775412D01*
X6232086Y-13775412D02*
X6232086Y-13603984D01*
X6489229Y-13803984D02*
X6489229Y-13603984D01*
X6489229Y-13603984D02*
X6555896Y-13746841D01*
X6555896Y-13746841D02*
X6622562Y-13603984D01*
X6622562Y-13603984D02*
X6622562Y-13803984D01*
X6803515Y-13803984D02*
X6803515Y-13699222D01*
X6803515Y-13699222D02*
X6793991Y-13680174D01*
X6793991Y-13680174D02*
X6774943Y-13670650D01*
X6774943Y-13670650D02*
X6736848Y-13670650D01*
X6736848Y-13670650D02*
X6717801Y-13680174D01*
X6803515Y-13794460D02*
X6784467Y-13803984D01*
X6784467Y-13803984D02*
X6736848Y-13803984D01*
X6736848Y-13803984D02*
X6717801Y-13794460D01*
X6717801Y-13794460D02*
X6708277Y-13775412D01*
X6708277Y-13775412D02*
X6708277Y-13756365D01*
X6708277Y-13756365D02*
X6717801Y-13737317D01*
X6717801Y-13737317D02*
X6736848Y-13727793D01*
X6736848Y-13727793D02*
X6784467Y-13727793D01*
X6784467Y-13727793D02*
X6803515Y-13718269D01*
X6898753Y-13670650D02*
X6898753Y-13870650D01*
X6898753Y-13680174D02*
X6917801Y-13670650D01*
X6917801Y-13670650D02*
X6955896Y-13670650D01*
X6955896Y-13670650D02*
X6974943Y-13680174D01*
X6974943Y-13680174D02*
X6984467Y-13689698D01*
X6984467Y-13689698D02*
X6993991Y-13708746D01*
X6993991Y-13708746D02*
X6993991Y-13765888D01*
X6993991Y-13765888D02*
X6984467Y-13784936D01*
X6984467Y-13784936D02*
X6974943Y-13794460D01*
X6974943Y-13794460D02*
X6955896Y-13803984D01*
X6955896Y-13803984D02*
X6917801Y-13803984D01*
X6917801Y-13803984D02*
X6898753Y-13794460D01*
X7079705Y-13784936D02*
X7089229Y-13794460D01*
X7089229Y-13794460D02*
X7079705Y-13803984D01*
X7079705Y-13803984D02*
X7070182Y-13794460D01*
X7070182Y-13794460D02*
X7079705Y-13784936D01*
X7079705Y-13784936D02*
X7079705Y-13803984D01*
X7079705Y-13680174D02*
X7089229Y-13689698D01*
X7089229Y-13689698D02*
X7079705Y-13699222D01*
X7079705Y-13699222D02*
X7070182Y-13689698D01*
X7070182Y-13689698D02*
X7079705Y-13680174D01*
X7079705Y-13680174D02*
X7079705Y-13699222D01*
X5247500Y-14032500D02*
X5447500Y-14232500D01*
X5447500Y-14032500D02*
X5247500Y-14232500D01*
X5689229Y-14023984D02*
X5813039Y-14023984D01*
X5813039Y-14023984D02*
X5746372Y-14100174D01*
X5746372Y-14100174D02*
X5774943Y-14100174D01*
X5774943Y-14100174D02*
X5793991Y-14109698D01*
X5793991Y-14109698D02*
X5803515Y-14119222D01*
X5803515Y-14119222D02*
X5813039Y-14138269D01*
X5813039Y-14138269D02*
X5813039Y-14185888D01*
X5813039Y-14185888D02*
X5803515Y-14204936D01*
X5803515Y-14204936D02*
X5793991Y-14214460D01*
X5793991Y-14214460D02*
X5774943Y-14223984D01*
X5774943Y-14223984D02*
X5717801Y-14223984D01*
X5717801Y-14223984D02*
X5698753Y-14214460D01*
X5698753Y-14214460D02*
X5689229Y-14204936D01*
X5898753Y-14204936D02*
X5908277Y-14214460D01*
X5908277Y-14214460D02*
X5898753Y-14223984D01*
X5898753Y-14223984D02*
X5889229Y-14214460D01*
X5889229Y-14214460D02*
X5898753Y-14204936D01*
X5898753Y-14204936D02*
X5898753Y-14223984D01*
X6032086Y-14023984D02*
X6051134Y-14023984D01*
X6051134Y-14023984D02*
X6070182Y-14033508D01*
X6070182Y-14033508D02*
X6079705Y-14043031D01*
X6079705Y-14043031D02*
X6089229Y-14062079D01*
X6089229Y-14062079D02*
X6098753Y-14100174D01*
X6098753Y-14100174D02*
X6098753Y-14147793D01*
X6098753Y-14147793D02*
X6089229Y-14185888D01*
X6089229Y-14185888D02*
X6079705Y-14204936D01*
X6079705Y-14204936D02*
X6070182Y-14214460D01*
X6070182Y-14214460D02*
X6051134Y-14223984D01*
X6051134Y-14223984D02*
X6032086Y-14223984D01*
X6032086Y-14223984D02*
X6013039Y-14214460D01*
X6013039Y-14214460D02*
X6003515Y-14204936D01*
X6003515Y-14204936D02*
X5993991Y-14185888D01*
X5993991Y-14185888D02*
X5984467Y-14147793D01*
X5984467Y-14147793D02*
X5984467Y-14100174D01*
X5984467Y-14100174D02*
X5993991Y-14062079D01*
X5993991Y-14062079D02*
X6003515Y-14043031D01*
X6003515Y-14043031D02*
X6013039Y-14033508D01*
X6013039Y-14033508D02*
X6032086Y-14023984D01*
X6222562Y-14023984D02*
X6241610Y-14023984D01*
X6241610Y-14023984D02*
X6260658Y-14033508D01*
X6260658Y-14033508D02*
X6270182Y-14043031D01*
X6270182Y-14043031D02*
X6279705Y-14062079D01*
X6279705Y-14062079D02*
X6289229Y-14100174D01*
X6289229Y-14100174D02*
X6289229Y-14147793D01*
X6289229Y-14147793D02*
X6279705Y-14185888D01*
X6279705Y-14185888D02*
X6270182Y-14204936D01*
X6270182Y-14204936D02*
X6260658Y-14214460D01*
X6260658Y-14214460D02*
X6241610Y-14223984D01*
X6241610Y-14223984D02*
X6222562Y-14223984D01*
X6222562Y-14223984D02*
X6203515Y-14214460D01*
X6203515Y-14214460D02*
X6193991Y-14204936D01*
X6193991Y-14204936D02*
X6184467Y-14185888D01*
X6184467Y-14185888D02*
X6174943Y-14147793D01*
X6174943Y-14147793D02*
X6174943Y-14100174D01*
X6174943Y-14100174D02*
X6184467Y-14062079D01*
X6184467Y-14062079D02*
X6193991Y-14043031D01*
X6193991Y-14043031D02*
X6203515Y-14033508D01*
X6203515Y-14033508D02*
X6222562Y-14023984D01*
X6413039Y-14023984D02*
X6432086Y-14023984D01*
X6432086Y-14023984D02*
X6451134Y-14033508D01*
X6451134Y-14033508D02*
X6460658Y-14043031D01*
X6460658Y-14043031D02*
X6470182Y-14062079D01*
X6470182Y-14062079D02*
X6479705Y-14100174D01*
X6479705Y-14100174D02*
X6479705Y-14147793D01*
X6479705Y-14147793D02*
X6470182Y-14185888D01*
X6470182Y-14185888D02*
X6460658Y-14204936D01*
X6460658Y-14204936D02*
X6451134Y-14214460D01*
X6451134Y-14214460D02*
X6432086Y-14223984D01*
X6432086Y-14223984D02*
X6413039Y-14223984D01*
X6413039Y-14223984D02*
X6393991Y-14214460D01*
X6393991Y-14214460D02*
X6384467Y-14204936D01*
X6384467Y-14204936D02*
X6374943Y-14185888D01*
X6374943Y-14185888D02*
X6365420Y-14147793D01*
X6365420Y-14147793D02*
X6365420Y-14100174D01*
X6365420Y-14100174D02*
X6374943Y-14062079D01*
X6374943Y-14062079D02*
X6384467Y-14043031D01*
X6384467Y-14043031D02*
X6393991Y-14033508D01*
X6393991Y-14033508D02*
X6413039Y-14023984D01*
X6565420Y-14223984D02*
X6565420Y-14090650D01*
X6565420Y-14109698D02*
X6574943Y-14100174D01*
X6574943Y-14100174D02*
X6593991Y-14090650D01*
X6593991Y-14090650D02*
X6622563Y-14090650D01*
X6622563Y-14090650D02*
X6641610Y-14100174D01*
X6641610Y-14100174D02*
X6651134Y-14119222D01*
X6651134Y-14119222D02*
X6651134Y-14223984D01*
X6651134Y-14119222D02*
X6660658Y-14100174D01*
X6660658Y-14100174D02*
X6679705Y-14090650D01*
X6679705Y-14090650D02*
X6708277Y-14090650D01*
X6708277Y-14090650D02*
X6727324Y-14100174D01*
X6727324Y-14100174D02*
X6736848Y-14119222D01*
X6736848Y-14119222D02*
X6736848Y-14223984D01*
X6832086Y-14223984D02*
X6832086Y-14090650D01*
X6832086Y-14109698D02*
X6841610Y-14100174D01*
X6841610Y-14100174D02*
X6860658Y-14090650D01*
X6860658Y-14090650D02*
X6889229Y-14090650D01*
X6889229Y-14090650D02*
X6908277Y-14100174D01*
X6908277Y-14100174D02*
X6917801Y-14119222D01*
X6917801Y-14119222D02*
X6917801Y-14223984D01*
X6917801Y-14119222D02*
X6927324Y-14100174D01*
X6927324Y-14100174D02*
X6946372Y-14090650D01*
X6946372Y-14090650D02*
X6974943Y-14090650D01*
X6974943Y-14090650D02*
X6993991Y-14100174D01*
X6993991Y-14100174D02*
X7003515Y-14119222D01*
X7003515Y-14119222D02*
X7003515Y-14223984D01*
X7393991Y-14014460D02*
X7222563Y-14271603D01*
X7651134Y-14023984D02*
X7670182Y-14023984D01*
X7670182Y-14023984D02*
X7689229Y-14033508D01*
X7689229Y-14033508D02*
X7698753Y-14043031D01*
X7698753Y-14043031D02*
X7708277Y-14062079D01*
X7708277Y-14062079D02*
X7717801Y-14100174D01*
X7717801Y-14100174D02*
X7717801Y-14147793D01*
X7717801Y-14147793D02*
X7708277Y-14185888D01*
X7708277Y-14185888D02*
X7698753Y-14204936D01*
X7698753Y-14204936D02*
X7689229Y-14214460D01*
X7689229Y-14214460D02*
X7670182Y-14223984D01*
X7670182Y-14223984D02*
X7651134Y-14223984D01*
X7651134Y-14223984D02*
X7632086Y-14214460D01*
X7632086Y-14214460D02*
X7622563Y-14204936D01*
X7622563Y-14204936D02*
X7613039Y-14185888D01*
X7613039Y-14185888D02*
X7603515Y-14147793D01*
X7603515Y-14147793D02*
X7603515Y-14100174D01*
X7603515Y-14100174D02*
X7613039Y-14062079D01*
X7613039Y-14062079D02*
X7622563Y-14043031D01*
X7622563Y-14043031D02*
X7632086Y-14033508D01*
X7632086Y-14033508D02*
X7651134Y-14023984D01*
X7803515Y-14204936D02*
X7813039Y-14214460D01*
X7813039Y-14214460D02*
X7803515Y-14223984D01*
X7803515Y-14223984D02*
X7793991Y-14214460D01*
X7793991Y-14214460D02*
X7803515Y-14204936D01*
X7803515Y-14204936D02*
X7803515Y-14223984D01*
X8003515Y-14223984D02*
X7889229Y-14223984D01*
X7946372Y-14223984D02*
X7946372Y-14023984D01*
X7946372Y-14023984D02*
X7927325Y-14052555D01*
X7927325Y-14052555D02*
X7908277Y-14071603D01*
X7908277Y-14071603D02*
X7889229Y-14081127D01*
X8193991Y-14223984D02*
X8079706Y-14223984D01*
X8136848Y-14223984D02*
X8136848Y-14023984D01*
X8136848Y-14023984D02*
X8117801Y-14052555D01*
X8117801Y-14052555D02*
X8098753Y-14071603D01*
X8098753Y-14071603D02*
X8079706Y-14081127D01*
X8308277Y-14109698D02*
X8289229Y-14100174D01*
X8289229Y-14100174D02*
X8279706Y-14090650D01*
X8279706Y-14090650D02*
X8270182Y-14071603D01*
X8270182Y-14071603D02*
X8270182Y-14062079D01*
X8270182Y-14062079D02*
X8279706Y-14043031D01*
X8279706Y-14043031D02*
X8289229Y-14033508D01*
X8289229Y-14033508D02*
X8308277Y-14023984D01*
X8308277Y-14023984D02*
X8346372Y-14023984D01*
X8346372Y-14023984D02*
X8365420Y-14033508D01*
X8365420Y-14033508D02*
X8374944Y-14043031D01*
X8374944Y-14043031D02*
X8384467Y-14062079D01*
X8384467Y-14062079D02*
X8384467Y-14071603D01*
X8384467Y-14071603D02*
X8374944Y-14090650D01*
X8374944Y-14090650D02*
X8365420Y-14100174D01*
X8365420Y-14100174D02*
X8346372Y-14109698D01*
X8346372Y-14109698D02*
X8308277Y-14109698D01*
X8308277Y-14109698D02*
X8289229Y-14119222D01*
X8289229Y-14119222D02*
X8279706Y-14128746D01*
X8279706Y-14128746D02*
X8270182Y-14147793D01*
X8270182Y-14147793D02*
X8270182Y-14185888D01*
X8270182Y-14185888D02*
X8279706Y-14204936D01*
X8279706Y-14204936D02*
X8289229Y-14214460D01*
X8289229Y-14214460D02*
X8308277Y-14223984D01*
X8308277Y-14223984D02*
X8346372Y-14223984D01*
X8346372Y-14223984D02*
X8365420Y-14214460D01*
X8365420Y-14214460D02*
X8374944Y-14204936D01*
X8374944Y-14204936D02*
X8384467Y-14185888D01*
X8384467Y-14185888D02*
X8384467Y-14147793D01*
X8384467Y-14147793D02*
X8374944Y-14128746D01*
X8374944Y-14128746D02*
X8365420Y-14119222D01*
X8365420Y-14119222D02*
X8346372Y-14109698D01*
X8574944Y-14223984D02*
X8460658Y-14223984D01*
X8517801Y-14223984D02*
X8517801Y-14023984D01*
X8517801Y-14023984D02*
X8498753Y-14052555D01*
X8498753Y-14052555D02*
X8479706Y-14071603D01*
X8479706Y-14071603D02*
X8460658Y-14081127D01*
X8651134Y-14023984D02*
X8651134Y-14062079D01*
X8727325Y-14023984D02*
X8727325Y-14062079D01*
X9022563Y-14300174D02*
X9013039Y-14290650D01*
X9013039Y-14290650D02*
X8993991Y-14262079D01*
X8993991Y-14262079D02*
X8984468Y-14243031D01*
X8984468Y-14243031D02*
X8974944Y-14214460D01*
X8974944Y-14214460D02*
X8965420Y-14166841D01*
X8965420Y-14166841D02*
X8965420Y-14128746D01*
X8965420Y-14128746D02*
X8974944Y-14081127D01*
X8974944Y-14081127D02*
X8984468Y-14052555D01*
X8984468Y-14052555D02*
X8993991Y-14033508D01*
X8993991Y-14033508D02*
X9013039Y-14004936D01*
X9013039Y-14004936D02*
X9022563Y-13995412D01*
X9184468Y-14090650D02*
X9184468Y-14223984D01*
X9136849Y-14014460D02*
X9089230Y-14157317D01*
X9089230Y-14157317D02*
X9213039Y-14157317D01*
X9441611Y-14223984D02*
X9441611Y-14023984D01*
X9527325Y-14223984D02*
X9527325Y-14119222D01*
X9527325Y-14119222D02*
X9517801Y-14100174D01*
X9517801Y-14100174D02*
X9498753Y-14090650D01*
X9498753Y-14090650D02*
X9470182Y-14090650D01*
X9470182Y-14090650D02*
X9451134Y-14100174D01*
X9451134Y-14100174D02*
X9441611Y-14109698D01*
X9651134Y-14223984D02*
X9632087Y-14214460D01*
X9632087Y-14214460D02*
X9622563Y-14204936D01*
X9622563Y-14204936D02*
X9613039Y-14185888D01*
X9613039Y-14185888D02*
X9613039Y-14128746D01*
X9613039Y-14128746D02*
X9622563Y-14109698D01*
X9622563Y-14109698D02*
X9632087Y-14100174D01*
X9632087Y-14100174D02*
X9651134Y-14090650D01*
X9651134Y-14090650D02*
X9679706Y-14090650D01*
X9679706Y-14090650D02*
X9698753Y-14100174D01*
X9698753Y-14100174D02*
X9708277Y-14109698D01*
X9708277Y-14109698D02*
X9717801Y-14128746D01*
X9717801Y-14128746D02*
X9717801Y-14185888D01*
X9717801Y-14185888D02*
X9708277Y-14204936D01*
X9708277Y-14204936D02*
X9698753Y-14214460D01*
X9698753Y-14214460D02*
X9679706Y-14223984D01*
X9679706Y-14223984D02*
X9651134Y-14223984D01*
X9832087Y-14223984D02*
X9813039Y-14214460D01*
X9813039Y-14214460D02*
X9803515Y-14195412D01*
X9803515Y-14195412D02*
X9803515Y-14023984D01*
X9984468Y-14214460D02*
X9965420Y-14223984D01*
X9965420Y-14223984D02*
X9927325Y-14223984D01*
X9927325Y-14223984D02*
X9908277Y-14214460D01*
X9908277Y-14214460D02*
X9898753Y-14195412D01*
X9898753Y-14195412D02*
X9898753Y-14119222D01*
X9898753Y-14119222D02*
X9908277Y-14100174D01*
X9908277Y-14100174D02*
X9927325Y-14090650D01*
X9927325Y-14090650D02*
X9965420Y-14090650D01*
X9965420Y-14090650D02*
X9984468Y-14100174D01*
X9984468Y-14100174D02*
X9993992Y-14119222D01*
X9993992Y-14119222D02*
X9993992Y-14138269D01*
X9993992Y-14138269D02*
X9898753Y-14157317D01*
X10070182Y-14214460D02*
X10089230Y-14223984D01*
X10089230Y-14223984D02*
X10127325Y-14223984D01*
X10127325Y-14223984D02*
X10146373Y-14214460D01*
X10146373Y-14214460D02*
X10155896Y-14195412D01*
X10155896Y-14195412D02*
X10155896Y-14185888D01*
X10155896Y-14185888D02*
X10146373Y-14166841D01*
X10146373Y-14166841D02*
X10127325Y-14157317D01*
X10127325Y-14157317D02*
X10098753Y-14157317D01*
X10098753Y-14157317D02*
X10079706Y-14147793D01*
X10079706Y-14147793D02*
X10070182Y-14128746D01*
X10070182Y-14128746D02*
X10070182Y-14119222D01*
X10070182Y-14119222D02*
X10079706Y-14100174D01*
X10079706Y-14100174D02*
X10098753Y-14090650D01*
X10098753Y-14090650D02*
X10127325Y-14090650D01*
X10127325Y-14090650D02*
X10146373Y-14100174D01*
X10222563Y-14300174D02*
X10232087Y-14290650D01*
X10232087Y-14290650D02*
X10251134Y-14262079D01*
X10251134Y-14262079D02*
X10260658Y-14243031D01*
X10260658Y-14243031D02*
X10270182Y-14214460D01*
X10270182Y-14214460D02*
X10279706Y-14166841D01*
X10279706Y-14166841D02*
X10279706Y-14128746D01*
X10279706Y-14128746D02*
X10270182Y-14081127D01*
X10270182Y-14081127D02*
X10260658Y-14052555D01*
X10260658Y-14052555D02*
X10251134Y-14033508D01*
X10251134Y-14033508D02*
X10232087Y-14004936D01*
X10232087Y-14004936D02*
X10222563Y-13995412D01*
X10584468Y-14300174D02*
X10574944Y-14290650D01*
X10574944Y-14290650D02*
X10555896Y-14262079D01*
X10555896Y-14262079D02*
X10546373Y-14243031D01*
X10546373Y-14243031D02*
X10536849Y-14214460D01*
X10536849Y-14214460D02*
X10527325Y-14166841D01*
X10527325Y-14166841D02*
X10527325Y-14128746D01*
X10527325Y-14128746D02*
X10536849Y-14081127D01*
X10536849Y-14081127D02*
X10546373Y-14052555D01*
X10546373Y-14052555D02*
X10555896Y-14033508D01*
X10555896Y-14033508D02*
X10574944Y-14004936D01*
X10574944Y-14004936D02*
X10584468Y-13995412D01*
X10660658Y-14090650D02*
X10660658Y-14223984D01*
X10660658Y-14109698D02*
X10670182Y-14100174D01*
X10670182Y-14100174D02*
X10689230Y-14090650D01*
X10689230Y-14090650D02*
X10717801Y-14090650D01*
X10717801Y-14090650D02*
X10736849Y-14100174D01*
X10736849Y-14100174D02*
X10746373Y-14119222D01*
X10746373Y-14119222D02*
X10746373Y-14223984D01*
X10870182Y-14223984D02*
X10851134Y-14214460D01*
X10851134Y-14214460D02*
X10841611Y-14204936D01*
X10841611Y-14204936D02*
X10832087Y-14185888D01*
X10832087Y-14185888D02*
X10832087Y-14128746D01*
X10832087Y-14128746D02*
X10841611Y-14109698D01*
X10841611Y-14109698D02*
X10851134Y-14100174D01*
X10851134Y-14100174D02*
X10870182Y-14090650D01*
X10870182Y-14090650D02*
X10898754Y-14090650D01*
X10898754Y-14090650D02*
X10917801Y-14100174D01*
X10917801Y-14100174D02*
X10927325Y-14109698D01*
X10927325Y-14109698D02*
X10936849Y-14128746D01*
X10936849Y-14128746D02*
X10936849Y-14185888D01*
X10936849Y-14185888D02*
X10927325Y-14204936D01*
X10927325Y-14204936D02*
X10917801Y-14214460D01*
X10917801Y-14214460D02*
X10898754Y-14223984D01*
X10898754Y-14223984D02*
X10870182Y-14223984D01*
X10993992Y-14090650D02*
X11070182Y-14090650D01*
X11022563Y-14023984D02*
X11022563Y-14195412D01*
X11022563Y-14195412D02*
X11032087Y-14214460D01*
X11032087Y-14214460D02*
X11051134Y-14223984D01*
X11051134Y-14223984D02*
X11070182Y-14223984D01*
X11289230Y-14090650D02*
X11289230Y-14290650D01*
X11289230Y-14100174D02*
X11308277Y-14090650D01*
X11308277Y-14090650D02*
X11346373Y-14090650D01*
X11346373Y-14090650D02*
X11365420Y-14100174D01*
X11365420Y-14100174D02*
X11374944Y-14109698D01*
X11374944Y-14109698D02*
X11384468Y-14128746D01*
X11384468Y-14128746D02*
X11384468Y-14185888D01*
X11384468Y-14185888D02*
X11374944Y-14204936D01*
X11374944Y-14204936D02*
X11365420Y-14214460D01*
X11365420Y-14214460D02*
X11346373Y-14223984D01*
X11346373Y-14223984D02*
X11308277Y-14223984D01*
X11308277Y-14223984D02*
X11289230Y-14214460D01*
X11498753Y-14223984D02*
X11479706Y-14214460D01*
X11479706Y-14214460D02*
X11470182Y-14195412D01*
X11470182Y-14195412D02*
X11470182Y-14023984D01*
X11660658Y-14223984D02*
X11660658Y-14119222D01*
X11660658Y-14119222D02*
X11651134Y-14100174D01*
X11651134Y-14100174D02*
X11632087Y-14090650D01*
X11632087Y-14090650D02*
X11593992Y-14090650D01*
X11593992Y-14090650D02*
X11574944Y-14100174D01*
X11660658Y-14214460D02*
X11641611Y-14223984D01*
X11641611Y-14223984D02*
X11593992Y-14223984D01*
X11593992Y-14223984D02*
X11574944Y-14214460D01*
X11574944Y-14214460D02*
X11565420Y-14195412D01*
X11565420Y-14195412D02*
X11565420Y-14176365D01*
X11565420Y-14176365D02*
X11574944Y-14157317D01*
X11574944Y-14157317D02*
X11593992Y-14147793D01*
X11593992Y-14147793D02*
X11641611Y-14147793D01*
X11641611Y-14147793D02*
X11660658Y-14138269D01*
X11727325Y-14090650D02*
X11803515Y-14090650D01*
X11755896Y-14023984D02*
X11755896Y-14195412D01*
X11755896Y-14195412D02*
X11765420Y-14214460D01*
X11765420Y-14214460D02*
X11784468Y-14223984D01*
X11784468Y-14223984D02*
X11803515Y-14223984D01*
X11946373Y-14214460D02*
X11927325Y-14223984D01*
X11927325Y-14223984D02*
X11889230Y-14223984D01*
X11889230Y-14223984D02*
X11870182Y-14214460D01*
X11870182Y-14214460D02*
X11860658Y-14195412D01*
X11860658Y-14195412D02*
X11860658Y-14119222D01*
X11860658Y-14119222D02*
X11870182Y-14100174D01*
X11870182Y-14100174D02*
X11889230Y-14090650D01*
X11889230Y-14090650D02*
X11927325Y-14090650D01*
X11927325Y-14090650D02*
X11946373Y-14100174D01*
X11946373Y-14100174D02*
X11955896Y-14119222D01*
X11955896Y-14119222D02*
X11955896Y-14138269D01*
X11955896Y-14138269D02*
X11860658Y-14157317D01*
X12127325Y-14223984D02*
X12127325Y-14023984D01*
X12127325Y-14214460D02*
X12108277Y-14223984D01*
X12108277Y-14223984D02*
X12070182Y-14223984D01*
X12070182Y-14223984D02*
X12051134Y-14214460D01*
X12051134Y-14214460D02*
X12041611Y-14204936D01*
X12041611Y-14204936D02*
X12032087Y-14185888D01*
X12032087Y-14185888D02*
X12032087Y-14128746D01*
X12032087Y-14128746D02*
X12041611Y-14109698D01*
X12041611Y-14109698D02*
X12051134Y-14100174D01*
X12051134Y-14100174D02*
X12070182Y-14090650D01*
X12070182Y-14090650D02*
X12108277Y-14090650D01*
X12108277Y-14090650D02*
X12127325Y-14100174D01*
X12203515Y-14300174D02*
X12213039Y-14290650D01*
X12213039Y-14290650D02*
X12232087Y-14262079D01*
X12232087Y-14262079D02*
X12241611Y-14243031D01*
X12241611Y-14243031D02*
X12251134Y-14214460D01*
X12251134Y-14214460D02*
X12260658Y-14166841D01*
X12260658Y-14166841D02*
X12260658Y-14128746D01*
X12260658Y-14128746D02*
X12251134Y-14081127D01*
X12251134Y-14081127D02*
X12241611Y-14052555D01*
X12241611Y-14052555D02*
X12232087Y-14033508D01*
X12232087Y-14033508D02*
X12213039Y-14004936D01*
X12213039Y-14004936D02*
X12203515Y-13995412D01*
M02*
