%TF.GenerationSoftware,KiCad,Pcbnew,9.0.4*%
%TF.CreationDate,2025-11-06T19:22:31+05:30*%
%TF.ProjectId,projectxxxxxxx,70726f6a-6563-4747-9878-78787878782e,rev?*%
%TF.SameCoordinates,Original*%
%TF.FileFunction,Soldermask,Top*%
%TF.FilePolarity,Negative*%
%FSLAX46Y46*%
G04 Gerber Fmt 4.6, Leading zero omitted, Abs format (unit mm)*
G04 Created by KiCad (PCBNEW 9.0.4) date 2025-11-06 19:22:31*
%MOMM*%
%LPD*%
G01*
G04 APERTURE LIST*
G04 Aperture macros list*
%AMRoundRect*
0 Rectangle with rounded corners*
0 $1 Rounding radius*
0 $2 $3 $4 $5 $6 $7 $8 $9 X,Y pos of 4 corners*
0 Add a 4 corners polygon primitive as box body*
4,1,4,$2,$3,$4,$5,$6,$7,$8,$9,$2,$3,0*
0 Add four circle primitives for the rounded corners*
1,1,$1+$1,$2,$3*
1,1,$1+$1,$4,$5*
1,1,$1+$1,$6,$7*
1,1,$1+$1,$8,$9*
0 Add four rect primitives between the rounded corners*
20,1,$1+$1,$2,$3,$4,$5,0*
20,1,$1+$1,$4,$5,$6,$7,0*
20,1,$1+$1,$6,$7,$8,$9,0*
20,1,$1+$1,$8,$9,$2,$3,0*%
G04 Aperture macros list end*
%ADD10C,2.000000*%
%ADD11R,2.000000X2.000000*%
%ADD12C,6.400000*%
%ADD13C,3.000000*%
%ADD14RoundRect,0.102000X-1.000000X-1.000000X1.000000X-1.000000X1.000000X1.000000X-1.000000X1.000000X0*%
%ADD15C,2.204000*%
G04 APERTURE END LIST*
D10*
%TO.C,buzzer1*%
X116000000Y-87140000D03*
D11*
X116000000Y-84600000D03*
%TD*%
D12*
%TO.C,REF\u002A\u002A*%
X59100000Y-57700000D03*
%TD*%
%TO.C,REF\u002A\u002A*%
X146000000Y-58100000D03*
%TD*%
D11*
%TO.C,Gas*%
X134600000Y-107680000D03*
D10*
X134600000Y-105140000D03*
X134600000Y-102600000D03*
X134600000Y-100060000D03*
%TD*%
D11*
%TO.C,Lightsensor1*%
X61380000Y-85400000D03*
D10*
X63920000Y-85400000D03*
X66460000Y-85400000D03*
X69000000Y-85400000D03*
X71540000Y-85400000D03*
%TD*%
D11*
%TO.C,soilmoisture1*%
X116540000Y-120700000D03*
D10*
X114000000Y-120700000D03*
X111460000Y-120700000D03*
X108920000Y-120700000D03*
%TD*%
D13*
%TO.C,U1*%
X78035000Y-61480000D03*
X78035000Y-108430000D03*
X102545000Y-61480000D03*
X102545000Y-108430000D03*
D14*
X77615000Y-69440000D03*
D15*
X77615000Y-71980000D03*
X77615000Y-74520000D03*
X77615000Y-77060000D03*
X77615000Y-79600000D03*
X77615000Y-82140000D03*
X77615000Y-84680000D03*
X77615000Y-87220000D03*
X77615000Y-89760000D03*
X77615000Y-92300000D03*
X77615000Y-94840000D03*
X77615000Y-97380000D03*
X77615000Y-99920000D03*
X77615000Y-102460000D03*
X77615000Y-105000000D03*
X103015000Y-105000000D03*
X103015000Y-102460000D03*
X103015000Y-99920000D03*
X103015000Y-97380000D03*
X103015000Y-94840000D03*
X103015000Y-92300000D03*
X103015000Y-89760000D03*
X103015000Y-87220000D03*
X103015000Y-84680000D03*
X103015000Y-82140000D03*
X103015000Y-79600000D03*
X103015000Y-77060000D03*
X103015000Y-74520000D03*
X103015000Y-71980000D03*
X103015000Y-69440000D03*
%TD*%
D12*
%TO.C,REF\u002A\u002A*%
X146700000Y-129900000D03*
%TD*%
D11*
%TO.C,DHT22*%
X143375000Y-82525000D03*
D10*
X143375000Y-79985000D03*
X143375000Y-77445000D03*
%TD*%
D11*
%TO.C,OLED1*%
X72900000Y-119300000D03*
D10*
X75440000Y-119300000D03*
X77980000Y-119300000D03*
X80520000Y-119300000D03*
%TD*%
D11*
%TO.C,waterlevel*%
X125060000Y-89500000D03*
D10*
X127600000Y-89500000D03*
X130140000Y-89500000D03*
X132680000Y-89500000D03*
%TD*%
D12*
%TO.C,REF\u002A\u002A*%
X59400000Y-129800000D03*
%TD*%
D11*
%TO.C,Relay1*%
X108100000Y-72300000D03*
D10*
X110640000Y-72300000D03*
X113180000Y-72300000D03*
X115720000Y-72300000D03*
X118260000Y-72300000D03*
X120800000Y-72300000D03*
%TD*%
M02*
