%TF.GenerationSoftware,KiCad,Pcbnew,9.0.4*%
%TF.CreationDate,2025-11-06T19:22:31+05:30*%
%TF.ProjectId,projectxxxxxxx,70726f6a-6563-4747-9878-78787878782e,rev?*%
%TF.SameCoordinates,Original*%
%TF.FileFunction,Copper,L1,Top*%
%TF.FilePolarity,Positive*%
%FSLAX46Y46*%
G04 Gerber Fmt 4.6, Leading zero omitted, Abs format (unit mm)*
G04 Created by KiCad (PCBNEW 9.0.4) date 2025-11-06 19:22:31*
%MOMM*%
%LPD*%
G01*
G04 APERTURE LIST*
%TA.AperFunction,ComponentPad*%
%ADD10C,2.000000*%
%TD*%
%TA.AperFunction,ComponentPad*%
%ADD11R,2.000000X2.000000*%
%TD*%
%TA.AperFunction,ComponentPad*%
%ADD12C,6.400000*%
%TD*%
G04 APERTURE END LIST*
D10*
%TO.P,buzzer1,2,Pin_2*%
%TO.N,Net-(U1-D25)*%
X116000000Y-87140000D03*
D11*
%TO.P,buzzer1,1,Pin_1*%
%TO.N,GND*%
X116000000Y-84600000D03*
%TD*%
D12*
%TO.P,REF\u002A\u002A,1*%
%TO.N,N/C*%
X59100000Y-57700000D03*
%TD*%
%TO.P,REF\u002A\u002A,1*%
%TO.N,N/C*%
X146000000Y-58100000D03*
%TD*%
D11*
%TO.P,Gas,1,Pin_1*%
%TO.N,VCC*%
X134600000Y-107680000D03*
D10*
%TO.P,Gas,2,Pin_2*%
%TO.N,GND*%
X134600000Y-105140000D03*
%TO.P,Gas,3,Pin_3*%
%TO.N,unconnected-(J1-Pin_3-Pad3)*%
X134600000Y-102600000D03*
%TO.P,Gas,4,Pin_4*%
%TO.N,Net-(J1-Pin_4)*%
X134600000Y-100060000D03*
%TD*%
D11*
%TO.P,Lightsensor1,1,Pin_1*%
%TO.N,VCC*%
X61380000Y-85400000D03*
D10*
%TO.P,Lightsensor1,2,Pin_2*%
%TO.N,Net-(Lightsensor1-Pin_2)*%
X63920000Y-85400000D03*
%TO.P,Lightsensor1,3,Pin_3*%
%TO.N,Net-(Lightsensor1-Pin_3)*%
X66460000Y-85400000D03*
%TO.P,Lightsensor1,4,Pin_4*%
%TO.N,GND*%
X69000000Y-85400000D03*
%TO.P,Lightsensor1,5,Pin_5*%
%TO.N,unconnected-(Lightsensor1-Pin_5-Pad5)*%
X71540000Y-85400000D03*
%TD*%
D11*
%TO.P,soilmoisture1,1,Pin_1*%
%TO.N,Net-(U1-VP)*%
X116540000Y-120700000D03*
D10*
%TO.P,soilmoisture1,2,Pin_2*%
%TO.N,unconnected-(soilmoisture1-Pin_2-Pad2)*%
X114000000Y-120700000D03*
%TO.P,soilmoisture1,3,Pin_3*%
%TO.N,GND*%
X111460000Y-120700000D03*
%TO.P,soilmoisture1,4,Pin_4*%
%TO.N,VCC*%
X108920000Y-120700000D03*
%TD*%
D11*
%TO.P,U1,1,3V3*%
%TO.N,VCC*%
X77615000Y-69440000D03*
D10*
%TO.P,U1,2,GND*%
%TO.N,GND*%
X77615000Y-71980000D03*
%TO.P,U1,3,D15*%
%TO.N,unconnected-(U1-D15-Pad3)*%
X77615000Y-74520000D03*
%TO.P,U1,4,D2*%
%TO.N,unconnected-(U1-D2-Pad4)*%
X77615000Y-77060000D03*
%TO.P,U1,5,D4*%
%TO.N,unconnected-(U1-D4-Pad5)*%
X77615000Y-79600000D03*
%TO.P,U1,6,RX2*%
%TO.N,unconnected-(U1-RX2-Pad6)*%
X77615000Y-82140000D03*
%TO.P,U1,7,TX2*%
%TO.N,Net-(DHT22-Pin_3)*%
X77615000Y-84680000D03*
%TO.P,U1,8,D5*%
%TO.N,unconnected-(U1-D5-Pad8)*%
X77615000Y-87220000D03*
%TO.P,U1,9,D18*%
%TO.N,unconnected-(U1-D18-Pad9)*%
X77615000Y-89760000D03*
%TO.P,U1,10,D19*%
%TO.N,unconnected-(U1-D19-Pad10)*%
X77615000Y-92300000D03*
%TO.P,U1,11,D21*%
%TO.N,Net-(Lightsensor1-Pin_3)*%
X77615000Y-94840000D03*
%TO.P,U1,12,RX0*%
%TO.N,unconnected-(U1-RX0-Pad12)*%
X77615000Y-97380000D03*
%TO.P,U1,13,TX0*%
%TO.N,unconnected-(U1-TX0-Pad13)*%
X77615000Y-99920000D03*
%TO.P,U1,14,D22*%
%TO.N,Net-(Lightsensor1-Pin_2)*%
X77615000Y-102460000D03*
%TO.P,U1,15,D23*%
%TO.N,unconnected-(U1-D23-Pad15)*%
X77615000Y-105000000D03*
%TO.P,U1,16,EN*%
%TO.N,unconnected-(U1-EN-Pad16)*%
X103015000Y-105000000D03*
%TO.P,U1,17,VP*%
%TO.N,Net-(U1-VP)*%
X103015000Y-102460000D03*
%TO.P,U1,18,VN*%
%TO.N,Net-(J1-Pin_4)*%
X103015000Y-99920000D03*
%TO.P,U1,19,D34*%
%TO.N,Net-(J2-Pin_1)*%
X103015000Y-97380000D03*
%TO.P,U1,20,D35*%
%TO.N,unconnected-(U1-D35-Pad20)*%
X103015000Y-94840000D03*
%TO.P,U1,21,D32*%
%TO.N,unconnected-(U1-D32-Pad21)*%
X103015000Y-92300000D03*
%TO.P,U1,22,D33*%
%TO.N,unconnected-(U1-D33-Pad22)*%
X103015000Y-89760000D03*
%TO.P,U1,23,D25*%
%TO.N,Net-(U1-D25)*%
X103015000Y-87220000D03*
%TO.P,U1,24,D26*%
%TO.N,Net-(Relay1-Pin_5)*%
X103015000Y-84680000D03*
%TO.P,U1,25,D27*%
%TO.N,Net-(Relay1-Pin_4)*%
X103015000Y-82140000D03*
%TO.P,U1,26,D14*%
%TO.N,unconnected-(U1-D14-Pad26)*%
X103015000Y-79600000D03*
%TO.P,U1,27,D12*%
%TO.N,unconnected-(U1-D12-Pad27)*%
X103015000Y-77060000D03*
%TO.P,U1,28,D13*%
%TO.N,unconnected-(U1-D13-Pad28)*%
X103015000Y-74520000D03*
%TO.P,U1,29,GND*%
%TO.N,GND*%
X103015000Y-71980000D03*
%TO.P,U1,30,VIN*%
%TO.N,Net-(Relay1-Pin_1)*%
X103015000Y-69440000D03*
%TD*%
D12*
%TO.P,REF\u002A\u002A,1*%
%TO.N,N/C*%
X146700000Y-129900000D03*
%TD*%
D11*
%TO.P,DHT22,1,Pin_1*%
%TO.N,GND*%
X143375000Y-82525000D03*
D10*
%TO.P,DHT22,2,Pin_2*%
%TO.N,VCC*%
X143375000Y-79985000D03*
%TO.P,DHT22,3,Pin_3*%
%TO.N,Net-(DHT22-Pin_3)*%
X143375000Y-77445000D03*
%TD*%
D11*
%TO.P,OLED1,1,Pin_1*%
%TO.N,VCC*%
X72900000Y-119300000D03*
D10*
%TO.P,OLED1,2,Pin_2*%
%TO.N,GND*%
X75440000Y-119300000D03*
%TO.P,OLED1,3,Pin_3*%
%TO.N,Net-(Lightsensor1-Pin_2)*%
X77980000Y-119300000D03*
%TO.P,OLED1,4,Pin_4*%
%TO.N,Net-(Lightsensor1-Pin_3)*%
X80520000Y-119300000D03*
%TD*%
D11*
%TO.P,waterlevel,1,Pin_1*%
%TO.N,Net-(J2-Pin_1)*%
X125060000Y-89500000D03*
D10*
%TO.P,waterlevel,2,Pin_2*%
%TO.N,GND*%
X127600000Y-89500000D03*
%TO.P,waterlevel,3,Pin_3*%
%TO.N,VCC*%
X130140000Y-89500000D03*
%TO.P,waterlevel,4,Pin_4*%
%TO.N,GND*%
X132680000Y-89500000D03*
%TD*%
D12*
%TO.P,REF\u002A\u002A,1*%
%TO.N,N/C*%
X59400000Y-129800000D03*
%TD*%
D11*
%TO.P,Relay1,1,Pin_1*%
%TO.N,Net-(Relay1-Pin_1)*%
X108100000Y-72300000D03*
D10*
%TO.P,Relay1,2,Pin_2*%
%TO.N,unconnected-(Relay1-Pin_2-Pad2)*%
X110640000Y-72300000D03*
%TO.P,Relay1,3,Pin_3*%
%TO.N,unconnected-(Relay1-Pin_3-Pad3)*%
X113180000Y-72300000D03*
%TO.P,Relay1,4,Pin_4*%
%TO.N,Net-(Relay1-Pin_4)*%
X115720000Y-72300000D03*
%TO.P,Relay1,5,Pin_5*%
%TO.N,Net-(Relay1-Pin_5)*%
X118260000Y-72300000D03*
%TO.P,Relay1,6,Pin_6*%
%TO.N,GND*%
X120800000Y-72300000D03*
%TD*%
M02*
