M48
; DRILL file {KiCad 9.0.4} date 2025-11-06T19:22:00+0530
; FORMAT={-:-/ absolute / metric / decimal}
; #@! TF.CreationDate,2025-11-06T19:22:00+05:30
; #@! TF.GenerationSoftware,Kicad,Pcbnew,9.0.4
; #@! TF.FileFunction,Plated,1,2,PTH
FMAT,2
METRIC
; #@! TA.AperFunction,Plated,PTH,ComponentDrill
T1C1.000
; #@! TA.AperFunction,Plated,PTH,ComponentDrill
T2C1.020
; #@! TA.AperFunction,Plated,PTH,ComponentDrill
T3C3.200
%
G90
G05
T1
X61.38Y-85.4
X63.92Y-85.4
X66.46Y-85.4
X69.0Y-85.4
X71.54Y-85.4
X72.9Y-119.3
X75.44Y-119.3
X77.98Y-119.3
X80.52Y-119.3
X108.1Y-72.3
X108.92Y-120.7
X110.64Y-72.3
X111.46Y-120.7
X113.18Y-72.3
X114.0Y-120.7
X115.72Y-72.3
X116.0Y-84.6
X116.0Y-87.14
X116.54Y-120.7
X118.26Y-72.3
X120.8Y-72.3
X125.06Y-89.5
X127.6Y-89.5
X130.14Y-89.5
X132.68Y-89.5
X134.6Y-100.06
X134.6Y-102.6
X134.6Y-105.14
X134.6Y-107.68
X143.375Y-77.445
X143.375Y-79.985
X143.375Y-82.525
T2
X77.615Y-69.44
X77.615Y-71.98
X77.615Y-74.52
X77.615Y-77.06
X77.615Y-79.6
X77.615Y-82.14
X77.615Y-84.68
X77.615Y-87.22
X77.615Y-89.76
X77.615Y-92.3
X77.615Y-94.84
X77.615Y-97.38
X77.615Y-99.92
X77.615Y-102.46
X77.615Y-105.0
X103.015Y-69.44
X103.015Y-71.98
X103.015Y-74.52
X103.015Y-77.06
X103.015Y-79.6
X103.015Y-82.14
X103.015Y-84.68
X103.015Y-87.22
X103.015Y-89.76
X103.015Y-92.3
X103.015Y-94.84
X103.015Y-97.38
X103.015Y-99.92
X103.015Y-102.46
X103.015Y-105.0
T3
X59.1Y-57.7
X59.4Y-129.8
X146.0Y-58.1
X146.7Y-129.9
M30
