%TF.GenerationSoftware,KiCad,Pcbnew,9.0.4*%
%TF.CreationDate,2025-11-06T19:22:31+05:30*%
%TF.ProjectId,projectxxxxxxx,70726f6a-6563-4747-9878-78787878782e,rev?*%
%TF.SameCoordinates,Original*%
%TF.FileFunction,Copper,L2,Bot*%
%TF.FilePolarity,Positive*%
%FSLAX46Y46*%
G04 Gerber Fmt 4.6, Leading zero omitted, Abs format (unit mm)*
G04 Created by KiCad (PCBNEW 9.0.4) date 2025-11-06 19:22:31*
%MOMM*%
%LPD*%
G01*
G04 APERTURE LIST*
%TA.AperFunction,ComponentPad*%
%ADD10C,2.000000*%
%TD*%
%TA.AperFunction,ComponentPad*%
%ADD11R,2.000000X2.000000*%
%TD*%
%TA.AperFunction,ComponentPad*%
%ADD12C,6.400000*%
%TD*%
%TA.AperFunction,Conductor*%
%ADD13C,1.000000*%
%TD*%
G04 APERTURE END LIST*
D10*
%TO.P,buzzer1,2,Pin_2*%
%TO.N,Net-(U1-D25)*%
X116000000Y-87140000D03*
D11*
%TO.P,buzzer1,1,Pin_1*%
%TO.N,GND*%
X116000000Y-84600000D03*
%TD*%
D12*
%TO.P,REF\u002A\u002A,1*%
%TO.N,N/C*%
X59100000Y-57700000D03*
%TD*%
%TO.P,REF\u002A\u002A,1*%
%TO.N,N/C*%
X146000000Y-58100000D03*
%TD*%
D11*
%TO.P,Gas,1,Pin_1*%
%TO.N,VCC*%
X134600000Y-107680000D03*
D10*
%TO.P,Gas,2,Pin_2*%
%TO.N,GND*%
X134600000Y-105140000D03*
%TO.P,Gas,3,Pin_3*%
%TO.N,unconnected-(J1-Pin_3-Pad3)*%
X134600000Y-102600000D03*
%TO.P,Gas,4,Pin_4*%
%TO.N,Net-(J1-Pin_4)*%
X134600000Y-100060000D03*
%TD*%
D11*
%TO.P,Lightsensor1,1,Pin_1*%
%TO.N,VCC*%
X61380000Y-85400000D03*
D10*
%TO.P,Lightsensor1,2,Pin_2*%
%TO.N,Net-(Lightsensor1-Pin_2)*%
X63920000Y-85400000D03*
%TO.P,Lightsensor1,3,Pin_3*%
%TO.N,Net-(Lightsensor1-Pin_3)*%
X66460000Y-85400000D03*
%TO.P,Lightsensor1,4,Pin_4*%
%TO.N,GND*%
X69000000Y-85400000D03*
%TO.P,Lightsensor1,5,Pin_5*%
%TO.N,unconnected-(Lightsensor1-Pin_5-Pad5)*%
X71540000Y-85400000D03*
%TD*%
D11*
%TO.P,soilmoisture1,1,Pin_1*%
%TO.N,Net-(U1-VP)*%
X116540000Y-120700000D03*
D10*
%TO.P,soilmoisture1,2,Pin_2*%
%TO.N,unconnected-(soilmoisture1-Pin_2-Pad2)*%
X114000000Y-120700000D03*
%TO.P,soilmoisture1,3,Pin_3*%
%TO.N,GND*%
X111460000Y-120700000D03*
%TO.P,soilmoisture1,4,Pin_4*%
%TO.N,VCC*%
X108920000Y-120700000D03*
%TD*%
D11*
%TO.P,U1,1,3V3*%
%TO.N,VCC*%
X77615000Y-69440000D03*
D10*
%TO.P,U1,2,GND*%
%TO.N,GND*%
X77615000Y-71980000D03*
%TO.P,U1,3,D15*%
%TO.N,unconnected-(U1-D15-Pad3)*%
X77615000Y-74520000D03*
%TO.P,U1,4,D2*%
%TO.N,unconnected-(U1-D2-Pad4)*%
X77615000Y-77060000D03*
%TO.P,U1,5,D4*%
%TO.N,unconnected-(U1-D4-Pad5)*%
X77615000Y-79600000D03*
%TO.P,U1,6,RX2*%
%TO.N,unconnected-(U1-RX2-Pad6)*%
X77615000Y-82140000D03*
%TO.P,U1,7,TX2*%
%TO.N,Net-(DHT22-Pin_3)*%
X77615000Y-84680000D03*
%TO.P,U1,8,D5*%
%TO.N,unconnected-(U1-D5-Pad8)*%
X77615000Y-87220000D03*
%TO.P,U1,9,D18*%
%TO.N,unconnected-(U1-D18-Pad9)*%
X77615000Y-89760000D03*
%TO.P,U1,10,D19*%
%TO.N,unconnected-(U1-D19-Pad10)*%
X77615000Y-92300000D03*
%TO.P,U1,11,D21*%
%TO.N,Net-(Lightsensor1-Pin_3)*%
X77615000Y-94840000D03*
%TO.P,U1,12,RX0*%
%TO.N,unconnected-(U1-RX0-Pad12)*%
X77615000Y-97380000D03*
%TO.P,U1,13,TX0*%
%TO.N,unconnected-(U1-TX0-Pad13)*%
X77615000Y-99920000D03*
%TO.P,U1,14,D22*%
%TO.N,Net-(Lightsensor1-Pin_2)*%
X77615000Y-102460000D03*
%TO.P,U1,15,D23*%
%TO.N,unconnected-(U1-D23-Pad15)*%
X77615000Y-105000000D03*
%TO.P,U1,16,EN*%
%TO.N,unconnected-(U1-EN-Pad16)*%
X103015000Y-105000000D03*
%TO.P,U1,17,VP*%
%TO.N,Net-(U1-VP)*%
X103015000Y-102460000D03*
%TO.P,U1,18,VN*%
%TO.N,Net-(J1-Pin_4)*%
X103015000Y-99920000D03*
%TO.P,U1,19,D34*%
%TO.N,Net-(J2-Pin_1)*%
X103015000Y-97380000D03*
%TO.P,U1,20,D35*%
%TO.N,unconnected-(U1-D35-Pad20)*%
X103015000Y-94840000D03*
%TO.P,U1,21,D32*%
%TO.N,unconnected-(U1-D32-Pad21)*%
X103015000Y-92300000D03*
%TO.P,U1,22,D33*%
%TO.N,unconnected-(U1-D33-Pad22)*%
X103015000Y-89760000D03*
%TO.P,U1,23,D25*%
%TO.N,Net-(U1-D25)*%
X103015000Y-87220000D03*
%TO.P,U1,24,D26*%
%TO.N,Net-(Relay1-Pin_5)*%
X103015000Y-84680000D03*
%TO.P,U1,25,D27*%
%TO.N,Net-(Relay1-Pin_4)*%
X103015000Y-82140000D03*
%TO.P,U1,26,D14*%
%TO.N,unconnected-(U1-D14-Pad26)*%
X103015000Y-79600000D03*
%TO.P,U1,27,D12*%
%TO.N,unconnected-(U1-D12-Pad27)*%
X103015000Y-77060000D03*
%TO.P,U1,28,D13*%
%TO.N,unconnected-(U1-D13-Pad28)*%
X103015000Y-74520000D03*
%TO.P,U1,29,GND*%
%TO.N,GND*%
X103015000Y-71980000D03*
%TO.P,U1,30,VIN*%
%TO.N,Net-(Relay1-Pin_1)*%
X103015000Y-69440000D03*
%TD*%
D12*
%TO.P,REF\u002A\u002A,1*%
%TO.N,N/C*%
X146700000Y-129900000D03*
%TD*%
D11*
%TO.P,DHT22,1,Pin_1*%
%TO.N,GND*%
X143375000Y-82525000D03*
D10*
%TO.P,DHT22,2,Pin_2*%
%TO.N,VCC*%
X143375000Y-79985000D03*
%TO.P,DHT22,3,Pin_3*%
%TO.N,Net-(DHT22-Pin_3)*%
X143375000Y-77445000D03*
%TD*%
D11*
%TO.P,OLED1,1,Pin_1*%
%TO.N,VCC*%
X72900000Y-119300000D03*
D10*
%TO.P,OLED1,2,Pin_2*%
%TO.N,GND*%
X75440000Y-119300000D03*
%TO.P,OLED1,3,Pin_3*%
%TO.N,Net-(Lightsensor1-Pin_2)*%
X77980000Y-119300000D03*
%TO.P,OLED1,4,Pin_4*%
%TO.N,Net-(Lightsensor1-Pin_3)*%
X80520000Y-119300000D03*
%TD*%
D11*
%TO.P,waterlevel,1,Pin_1*%
%TO.N,Net-(J2-Pin_1)*%
X125060000Y-89500000D03*
D10*
%TO.P,waterlevel,2,Pin_2*%
%TO.N,GND*%
X127600000Y-89500000D03*
%TO.P,waterlevel,3,Pin_3*%
%TO.N,VCC*%
X130140000Y-89500000D03*
%TO.P,waterlevel,4,Pin_4*%
%TO.N,GND*%
X132680000Y-89500000D03*
%TD*%
D12*
%TO.P,REF\u002A\u002A,1*%
%TO.N,N/C*%
X59400000Y-129800000D03*
%TD*%
D11*
%TO.P,Relay1,1,Pin_1*%
%TO.N,Net-(Relay1-Pin_1)*%
X108100000Y-72300000D03*
D10*
%TO.P,Relay1,2,Pin_2*%
%TO.N,unconnected-(Relay1-Pin_2-Pad2)*%
X110640000Y-72300000D03*
%TO.P,Relay1,3,Pin_3*%
%TO.N,unconnected-(Relay1-Pin_3-Pad3)*%
X113180000Y-72300000D03*
%TO.P,Relay1,4,Pin_4*%
%TO.N,Net-(Relay1-Pin_4)*%
X115720000Y-72300000D03*
%TO.P,Relay1,5,Pin_5*%
%TO.N,Net-(Relay1-Pin_5)*%
X118260000Y-72300000D03*
%TO.P,Relay1,6,Pin_6*%
%TO.N,GND*%
X120800000Y-72300000D03*
%TD*%
D13*
%TO.N,GND*%
X120800000Y-70300000D02*
X120800000Y-72300000D01*
X101000000Y-65500000D02*
X116000000Y-65500000D01*
X98300000Y-70500000D02*
X98300000Y-68200000D01*
X98300000Y-68200000D02*
X101000000Y-65500000D01*
X99780000Y-71980000D02*
X98300000Y-70500000D01*
X103015000Y-71980000D02*
X99780000Y-71980000D01*
X116000000Y-65500000D02*
X120800000Y-70300000D01*
X137800000Y-89500000D02*
X143375000Y-83925000D01*
X143375000Y-83925000D02*
X143375000Y-82525000D01*
X132680000Y-89500000D02*
X137800000Y-89500000D01*
%TO.N,VCC*%
X137915000Y-79985000D02*
X143375000Y-79985000D01*
X130140000Y-87760000D02*
X137915000Y-79985000D01*
X130140000Y-89500000D02*
X130140000Y-87760000D01*
X136600000Y-107680000D02*
X134600000Y-107680000D01*
X146600000Y-97680000D02*
X136600000Y-107680000D01*
X146600000Y-82348000D02*
X146600000Y-97680000D01*
X144237000Y-79985000D02*
X146600000Y-82348000D01*
X143375000Y-79985000D02*
X144237000Y-79985000D01*
%TO.N,Net-(DHT22-Pin_3)*%
X94400000Y-57000000D02*
X122930000Y-57000000D01*
X85500000Y-65900000D02*
X94400000Y-57000000D01*
X85500000Y-78700000D02*
X85500000Y-65900000D01*
X122930000Y-57000000D02*
X143375000Y-77445000D01*
X79520000Y-84680000D02*
X85500000Y-78700000D01*
X77615000Y-84680000D02*
X79520000Y-84680000D01*
%TO.N,GND*%
X78200000Y-123400000D02*
X86400000Y-123400000D01*
X127600000Y-89500000D02*
X127600000Y-92200000D01*
X127400000Y-110000000D02*
X132260000Y-105140000D01*
X138400000Y-95220000D02*
X138400000Y-102500000D01*
X130620000Y-95220000D02*
X138400000Y-95220000D01*
X109100000Y-117200000D02*
X111460000Y-119560000D01*
X124900000Y-84600000D02*
X127600000Y-87300000D01*
X120800000Y-72300000D02*
X120800000Y-79800000D01*
X75440000Y-119300000D02*
X75500000Y-119360000D01*
X74820000Y-71980000D02*
X69000000Y-77800000D01*
X127400000Y-120100000D02*
X127400000Y-110000000D01*
X111460000Y-119560000D02*
X111460000Y-120700000D01*
X86400000Y-123400000D02*
X92600000Y-117200000D01*
X75500000Y-120700000D02*
X78200000Y-123400000D01*
X127600000Y-87300000D02*
X127600000Y-89500000D01*
X120800000Y-79800000D02*
X116000000Y-84600000D01*
X92600000Y-117200000D02*
X109100000Y-117200000D01*
X122400000Y-125100000D02*
X127400000Y-120100000D01*
X116000000Y-84600000D02*
X124900000Y-84600000D01*
X69000000Y-77800000D02*
X69000000Y-85400000D01*
X132680000Y-89500000D02*
X138400000Y-95220000D01*
X115860000Y-125100000D02*
X122400000Y-125100000D01*
X138400000Y-102500000D02*
X135760000Y-105140000D01*
X77615000Y-71980000D02*
X74820000Y-71980000D01*
X127600000Y-92200000D02*
X130620000Y-95220000D01*
X132260000Y-105140000D02*
X134600000Y-105140000D01*
X75500000Y-119360000D02*
X75500000Y-120700000D01*
X111460000Y-120700000D02*
X115860000Y-125100000D01*
X135760000Y-105140000D02*
X134600000Y-105140000D01*
%TO.N,Net-(U1-D25)*%
X115920000Y-87220000D02*
X116000000Y-87140000D01*
X103015000Y-87220000D02*
X115920000Y-87220000D01*
%TO.N,VCC*%
X108920000Y-120700000D02*
X108920000Y-123320000D01*
X79000000Y-128400000D02*
X101220000Y-128400000D01*
X72900000Y-119240000D02*
X72900000Y-119300000D01*
X72900000Y-119300000D02*
X72900000Y-122300000D01*
X77615000Y-69440000D02*
X70560000Y-69440000D01*
X113800000Y-128200000D02*
X127100000Y-128200000D01*
X61380000Y-85400000D02*
X61380000Y-107720000D01*
X101220000Y-128400000D02*
X108920000Y-120700000D01*
X61380000Y-78620000D02*
X61380000Y-85400000D01*
X72900000Y-122300000D02*
X79000000Y-128400000D01*
X61380000Y-107720000D02*
X72900000Y-119240000D01*
X134600000Y-120700000D02*
X134600000Y-107680000D01*
X127100000Y-128200000D02*
X134600000Y-120700000D01*
X70560000Y-69440000D02*
X61380000Y-78620000D01*
X108920000Y-123320000D02*
X113800000Y-128200000D01*
%TO.N,Net-(J1-Pin_4)*%
X134460000Y-99920000D02*
X134600000Y-100060000D01*
X103015000Y-99920000D02*
X134460000Y-99920000D01*
%TO.N,Net-(Lightsensor1-Pin_3)*%
X78540000Y-94840000D02*
X77615000Y-94840000D01*
X80520000Y-119300000D02*
X80520000Y-119240000D01*
X80500000Y-119220000D02*
X80500000Y-96800000D01*
X71540000Y-94840000D02*
X77615000Y-94840000D01*
X66460000Y-89760000D02*
X71540000Y-94840000D01*
X66460000Y-85400000D02*
X66460000Y-89760000D01*
X80500000Y-96800000D02*
X78540000Y-94840000D01*
X80520000Y-119240000D02*
X80500000Y-119220000D01*
%TO.N,Net-(Lightsensor1-Pin_2)*%
X73160000Y-102460000D02*
X63920000Y-93220000D01*
X73700000Y-105200000D02*
X76440000Y-102460000D01*
X77980000Y-119240000D02*
X73700000Y-114960000D01*
X77615000Y-102460000D02*
X73160000Y-102460000D01*
X63920000Y-93220000D02*
X63920000Y-85400000D01*
X77980000Y-119300000D02*
X77980000Y-119240000D01*
X76440000Y-102460000D02*
X77615000Y-102460000D01*
X73700000Y-114960000D02*
X73700000Y-105200000D01*
%TO.N,Net-(Relay1-Pin_5)*%
X103015000Y-84680000D02*
X107820000Y-84680000D01*
X107820000Y-84680000D02*
X118260000Y-74240000D01*
X118260000Y-74240000D02*
X118260000Y-72300000D01*
%TO.N,Net-(Relay1-Pin_1)*%
X103015000Y-69440000D02*
X105240000Y-69440000D01*
X105240000Y-69440000D02*
X108100000Y-72300000D01*
%TO.N,Net-(Relay1-Pin_4)*%
X106070000Y-82140000D02*
X115720000Y-72490000D01*
X103015000Y-82140000D02*
X106070000Y-82140000D01*
X115720000Y-72490000D02*
X115720000Y-72300000D01*
%TO.N,Net-(U1-VP)*%
X103015000Y-102460000D02*
X104960000Y-102460000D01*
X116540000Y-114040000D02*
X116540000Y-120700000D01*
X104960000Y-102460000D02*
X116540000Y-114040000D01*
%TO.N,Net-(J2-Pin_1)*%
X117560000Y-97000000D02*
X125060000Y-89500000D01*
X103015000Y-97380000D02*
X103395000Y-97000000D01*
X103395000Y-97000000D02*
X117560000Y-97000000D01*
%TD*%
%TA.AperFunction,Conductor*%
%TO.N,GND*%
G36*
X122324150Y-58520185D02*
G01*
X122344792Y-58536819D01*
X141343281Y-77535308D01*
X141376766Y-77596631D01*
X141378539Y-77606803D01*
X141399490Y-77765938D01*
X141408730Y-77836116D01*
X141473669Y-78078473D01*
X141476602Y-78089418D01*
X141476605Y-78089428D01*
X141569232Y-78313047D01*
X141576701Y-78382516D01*
X141545426Y-78444996D01*
X141485337Y-78480648D01*
X141454671Y-78484500D01*
X137796903Y-78484500D01*
X137563631Y-78521446D01*
X137450349Y-78558255D01*
X137422567Y-78567282D01*
X137422566Y-78567282D01*
X137339012Y-78594429D01*
X137339006Y-78594431D01*
X137128565Y-78701657D01*
X136937488Y-78840484D01*
X128995484Y-86782488D01*
X128856659Y-86973562D01*
X128856652Y-86973574D01*
X128838663Y-87008879D01*
X128838664Y-87008880D01*
X128749433Y-87184003D01*
X128676446Y-87408631D01*
X128639500Y-87641902D01*
X128639500Y-88127218D01*
X128633059Y-88149150D01*
X128631157Y-88171934D01*
X128621124Y-88189797D01*
X128619815Y-88194257D01*
X128613874Y-88202707D01*
X128598819Y-88222326D01*
X128542390Y-88263527D01*
X128472644Y-88267680D01*
X128427560Y-88247155D01*
X128386174Y-88217087D01*
X128175802Y-88109897D01*
X127951247Y-88036934D01*
X127951248Y-88036934D01*
X127718052Y-88000000D01*
X127481948Y-88000000D01*
X127248751Y-88036934D01*
X127090381Y-88088392D01*
X127020540Y-88090387D01*
X126960707Y-88054307D01*
X126942156Y-88027874D01*
X126899698Y-87946593D01*
X126875958Y-87917479D01*
X126771109Y-87788890D01*
X126613409Y-87660304D01*
X126613410Y-87660304D01*
X126613407Y-87660302D01*
X126433049Y-87566091D01*
X126433048Y-87566090D01*
X126433045Y-87566089D01*
X126310810Y-87531114D01*
X126237418Y-87510114D01*
X126237415Y-87510113D01*
X126237413Y-87510113D01*
X126171102Y-87504217D01*
X126118037Y-87499500D01*
X126118032Y-87499500D01*
X124001971Y-87499500D01*
X124001965Y-87499500D01*
X124001964Y-87499501D01*
X123990316Y-87500536D01*
X123882584Y-87510113D01*
X123686954Y-87566089D01*
X123600759Y-87611114D01*
X123506593Y-87660302D01*
X123506591Y-87660303D01*
X123506590Y-87660304D01*
X123348890Y-87788890D01*
X123220304Y-87946590D01*
X123220302Y-87946593D01*
X123173196Y-88036772D01*
X123126089Y-88126954D01*
X123070114Y-88322583D01*
X123070113Y-88322586D01*
X123069116Y-88333802D01*
X123061941Y-88414514D01*
X123059500Y-88441966D01*
X123059500Y-89327109D01*
X123039815Y-89394148D01*
X123023181Y-89414790D01*
X121483460Y-90954512D01*
X118484664Y-93953309D01*
X116974792Y-95463181D01*
X116913469Y-95496666D01*
X116887111Y-95499500D01*
X105070957Y-95499500D01*
X105003918Y-95479815D01*
X104958163Y-95427011D01*
X104948219Y-95357853D01*
X104951182Y-95343407D01*
X104954068Y-95332632D01*
X104981270Y-95231116D01*
X105015500Y-94971120D01*
X105015500Y-94708880D01*
X104981270Y-94448884D01*
X104913398Y-94195581D01*
X104913394Y-94195571D01*
X104813046Y-93953309D01*
X104813041Y-93953299D01*
X104681927Y-93726203D01*
X104681924Y-93726197D01*
X104619991Y-93645485D01*
X104594797Y-93580319D01*
X104608835Y-93511874D01*
X104619991Y-93494514D01*
X104681924Y-93413803D01*
X104813043Y-93186697D01*
X104913398Y-92944419D01*
X104981270Y-92691116D01*
X105015500Y-92431120D01*
X105015500Y-92168880D01*
X104981270Y-91908884D01*
X104913398Y-91655581D01*
X104850335Y-91503333D01*
X104813046Y-91413309D01*
X104813041Y-91413299D01*
X104746497Y-91298041D01*
X104681924Y-91186197D01*
X104619991Y-91105485D01*
X104594797Y-91040319D01*
X104608835Y-90971874D01*
X104619991Y-90954514D01*
X104681924Y-90873803D01*
X104813043Y-90646697D01*
X104913398Y-90404419D01*
X104981270Y-90151116D01*
X105015500Y-89891120D01*
X105015500Y-89628880D01*
X104981270Y-89368884D01*
X104913398Y-89115581D01*
X104820767Y-88891952D01*
X104813299Y-88822484D01*
X104844574Y-88760004D01*
X104904663Y-88724352D01*
X104935329Y-88720500D01*
X114731475Y-88720500D01*
X114798514Y-88740185D01*
X114806956Y-88746120D01*
X114886197Y-88806924D01*
X114886201Y-88806927D01*
X115113299Y-88938041D01*
X115113309Y-88938046D01*
X115345144Y-89034075D01*
X115355581Y-89038398D01*
X115608884Y-89106270D01*
X115868880Y-89140500D01*
X115868887Y-89140500D01*
X116131113Y-89140500D01*
X116131120Y-89140500D01*
X116391116Y-89106270D01*
X116644419Y-89038398D01*
X116886697Y-88938043D01*
X117113803Y-88806924D01*
X117321851Y-88647282D01*
X117321855Y-88647277D01*
X117321860Y-88647274D01*
X117507274Y-88461860D01*
X117507277Y-88461855D01*
X117507282Y-88461851D01*
X117666924Y-88253803D01*
X117798043Y-88026697D01*
X117898398Y-87784419D01*
X117966270Y-87531116D01*
X118000500Y-87271120D01*
X118000500Y-87008880D01*
X117966270Y-86748884D01*
X117898398Y-86495581D01*
X117898394Y-86495571D01*
X117798046Y-86253309D01*
X117798041Y-86253299D01*
X117666924Y-86026196D01*
X117512076Y-85824397D01*
X117486881Y-85759228D01*
X117492945Y-85715200D01*
X117491813Y-85714933D01*
X117493597Y-85707377D01*
X117499999Y-85647844D01*
X117500000Y-85647827D01*
X117500000Y-84850000D01*
X116433012Y-84850000D01*
X116465925Y-84792993D01*
X116500000Y-84665826D01*
X116500000Y-84534174D01*
X116465925Y-84407007D01*
X116433012Y-84350000D01*
X117500000Y-84350000D01*
X117500000Y-83552172D01*
X117499999Y-83552155D01*
X117493598Y-83492627D01*
X117493596Y-83492620D01*
X117443354Y-83357913D01*
X117443350Y-83357906D01*
X117357190Y-83242812D01*
X117357187Y-83242809D01*
X117242093Y-83156649D01*
X117242086Y-83156645D01*
X117107379Y-83106403D01*
X117107372Y-83106401D01*
X117047844Y-83100000D01*
X116250000Y-83100000D01*
X116250000Y-84166988D01*
X116192993Y-84134075D01*
X116065826Y-84100000D01*
X115934174Y-84100000D01*
X115807007Y-84134075D01*
X115750000Y-84166988D01*
X115750000Y-83100000D01*
X114952155Y-83100000D01*
X114892627Y-83106401D01*
X114892620Y-83106403D01*
X114757913Y-83156645D01*
X114757906Y-83156649D01*
X114642812Y-83242809D01*
X114642809Y-83242812D01*
X114556649Y-83357906D01*
X114556645Y-83357913D01*
X114506403Y-83492620D01*
X114506401Y-83492627D01*
X114500000Y-83552155D01*
X114500000Y-84350000D01*
X115566988Y-84350000D01*
X115534075Y-84407007D01*
X115500000Y-84534174D01*
X115500000Y-84665826D01*
X115534075Y-84792993D01*
X115566988Y-84850000D01*
X114500000Y-84850000D01*
X114500000Y-85595500D01*
X114480315Y-85662539D01*
X114427511Y-85708294D01*
X114376000Y-85719500D01*
X109201889Y-85719500D01*
X109134850Y-85699815D01*
X109089095Y-85647011D01*
X109079151Y-85577853D01*
X109108176Y-85514297D01*
X109114208Y-85507819D01*
X114135337Y-80486690D01*
X119404518Y-75217510D01*
X119543343Y-75026433D01*
X119650568Y-74815992D01*
X119723553Y-74591368D01*
X119755624Y-74388880D01*
X119760500Y-74358096D01*
X119760500Y-73672782D01*
X119766939Y-73650851D01*
X119768841Y-73628073D01*
X119778874Y-73610204D01*
X119780185Y-73605743D01*
X119786122Y-73597299D01*
X119792507Y-73588976D01*
X119801177Y-73577677D01*
X119857602Y-73536474D01*
X119927348Y-73532317D01*
X119972440Y-73552844D01*
X120013828Y-73582914D01*
X120224197Y-73690102D01*
X120448752Y-73763065D01*
X120448751Y-73763065D01*
X120681948Y-73800000D01*
X120918052Y-73800000D01*
X121151247Y-73763065D01*
X121375802Y-73690102D01*
X121586163Y-73582918D01*
X121586169Y-73582914D01*
X121669104Y-73522658D01*
X121669105Y-73522658D01*
X120929409Y-72782962D01*
X120992993Y-72765925D01*
X121107007Y-72700099D01*
X121200099Y-72607007D01*
X121265925Y-72492993D01*
X121282962Y-72429409D01*
X122022658Y-73169105D01*
X122022658Y-73169104D01*
X122082914Y-73086169D01*
X122082918Y-73086163D01*
X122190102Y-72875802D01*
X122263065Y-72651247D01*
X122300000Y-72418052D01*
X122300000Y-72181947D01*
X122263065Y-71948752D01*
X122190102Y-71724197D01*
X122082914Y-71513828D01*
X122022658Y-71430894D01*
X122022658Y-71430893D01*
X121282962Y-72170590D01*
X121265925Y-72107007D01*
X121200099Y-71992993D01*
X121107007Y-71899901D01*
X120992993Y-71834075D01*
X120929408Y-71817037D01*
X121669105Y-71077340D01*
X121669104Y-71077338D01*
X121586174Y-71017087D01*
X121375802Y-70909897D01*
X121151247Y-70836934D01*
X121151248Y-70836934D01*
X120918052Y-70800000D01*
X120681948Y-70800000D01*
X120448752Y-70836934D01*
X120224197Y-70909897D01*
X120013830Y-71017084D01*
X119972437Y-71047157D01*
X119906630Y-71070635D01*
X119838577Y-71054808D01*
X119801178Y-71022323D01*
X119767283Y-70978150D01*
X119767277Y-70978143D01*
X119581860Y-70792726D01*
X119581851Y-70792718D01*
X119373803Y-70633075D01*
X119146700Y-70501958D01*
X119146690Y-70501953D01*
X118904428Y-70401605D01*
X118904421Y-70401603D01*
X118904419Y-70401602D01*
X118651116Y-70333730D01*
X118593339Y-70326123D01*
X118391127Y-70299500D01*
X118391120Y-70299500D01*
X118128880Y-70299500D01*
X118128872Y-70299500D01*
X117897772Y-70329926D01*
X117868884Y-70333730D01*
X117748118Y-70366089D01*
X117615581Y-70401602D01*
X117615571Y-70401605D01*
X117373309Y-70501953D01*
X117373299Y-70501958D01*
X117146197Y-70633075D01*
X117065486Y-70695007D01*
X117000317Y-70720201D01*
X116931872Y-70706162D01*
X116914514Y-70695007D01*
X116833802Y-70633075D01*
X116606700Y-70501958D01*
X116606690Y-70501953D01*
X116364428Y-70401605D01*
X116364421Y-70401603D01*
X116364419Y-70401602D01*
X116111116Y-70333730D01*
X116053339Y-70326123D01*
X115851127Y-70299500D01*
X115851120Y-70299500D01*
X115588880Y-70299500D01*
X115588872Y-70299500D01*
X115357772Y-70329926D01*
X115328884Y-70333730D01*
X115208118Y-70366089D01*
X115075581Y-70401602D01*
X115075571Y-70401605D01*
X114833309Y-70501953D01*
X114833299Y-70501958D01*
X114606197Y-70633075D01*
X114525486Y-70695007D01*
X114460317Y-70720201D01*
X114391872Y-70706162D01*
X114374514Y-70695007D01*
X114293802Y-70633075D01*
X114066700Y-70501958D01*
X114066690Y-70501953D01*
X113824428Y-70401605D01*
X113824421Y-70401603D01*
X113824419Y-70401602D01*
X113571116Y-70333730D01*
X113513339Y-70326123D01*
X113311127Y-70299500D01*
X113311120Y-70299500D01*
X113048880Y-70299500D01*
X113048872Y-70299500D01*
X112817772Y-70329926D01*
X112788884Y-70333730D01*
X112668118Y-70366089D01*
X112535581Y-70401602D01*
X112535571Y-70401605D01*
X112293309Y-70501953D01*
X112293299Y-70501958D01*
X112066197Y-70633075D01*
X111985486Y-70695007D01*
X111920317Y-70720201D01*
X111851872Y-70706162D01*
X111834514Y-70695007D01*
X111753802Y-70633075D01*
X111526700Y-70501958D01*
X111526690Y-70501953D01*
X111284428Y-70401605D01*
X111284421Y-70401603D01*
X111284419Y-70401602D01*
X111031116Y-70333730D01*
X110973339Y-70326123D01*
X110771127Y-70299500D01*
X110771120Y-70299500D01*
X110508880Y-70299500D01*
X110508872Y-70299500D01*
X110277772Y-70329926D01*
X110248884Y-70333730D01*
X110128118Y-70366089D01*
X109995581Y-70401602D01*
X109995565Y-70401607D01*
X109789353Y-70487023D01*
X109719884Y-70494492D01*
X109663542Y-70468566D01*
X109653408Y-70460303D01*
X109653407Y-70460302D01*
X109473049Y-70366091D01*
X109473048Y-70366090D01*
X109473045Y-70366089D01*
X109355829Y-70332550D01*
X109277418Y-70310114D01*
X109277415Y-70310113D01*
X109277413Y-70310113D01*
X109204631Y-70303642D01*
X109158037Y-70299500D01*
X109158033Y-70299500D01*
X108272890Y-70299500D01*
X108205851Y-70279815D01*
X108185209Y-70263181D01*
X106217512Y-68295485D01*
X106217511Y-68295484D01*
X106217508Y-68295482D01*
X106026434Y-68156657D01*
X105815996Y-68049433D01*
X105591368Y-67976446D01*
X105358097Y-67939500D01*
X105358092Y-67939500D01*
X104387781Y-67939500D01*
X104320742Y-67919815D01*
X104312299Y-67913879D01*
X104261272Y-67874724D01*
X104128803Y-67773075D01*
X103901700Y-67641958D01*
X103901690Y-67641953D01*
X103659428Y-67541605D01*
X103659421Y-67541603D01*
X103659419Y-67541602D01*
X103406116Y-67473730D01*
X103348339Y-67466123D01*
X103146127Y-67439500D01*
X103146120Y-67439500D01*
X102883880Y-67439500D01*
X102883872Y-67439500D01*
X102652772Y-67469926D01*
X102623884Y-67473730D01*
X102503118Y-67506089D01*
X102370581Y-67541602D01*
X102370571Y-67541605D01*
X102128309Y-67641953D01*
X102128299Y-67641958D01*
X101901196Y-67773075D01*
X101693148Y-67932718D01*
X101507718Y-68118148D01*
X101348075Y-68326196D01*
X101216958Y-68553299D01*
X101216953Y-68553309D01*
X101116605Y-68795571D01*
X101116602Y-68795581D01*
X101048730Y-69048885D01*
X101014500Y-69308872D01*
X101014500Y-69571127D01*
X101041123Y-69773339D01*
X101048730Y-69831116D01*
X101116602Y-70084418D01*
X101116605Y-70084428D01*
X101216953Y-70326690D01*
X101216958Y-70326700D01*
X101348075Y-70553803D01*
X101507718Y-70761851D01*
X101507726Y-70761860D01*
X101693143Y-70947277D01*
X101693149Y-70947282D01*
X101733375Y-70978149D01*
X101737323Y-70981178D01*
X101778526Y-71037605D01*
X101782681Y-71107351D01*
X101762157Y-71152437D01*
X101732084Y-71193830D01*
X101624897Y-71404197D01*
X101551934Y-71628752D01*
X101515000Y-71861947D01*
X101515000Y-72098052D01*
X101551934Y-72331247D01*
X101624897Y-72555802D01*
X101732087Y-72766174D01*
X101762155Y-72807560D01*
X101785635Y-72873366D01*
X101769809Y-72941420D01*
X101737325Y-72978819D01*
X101693151Y-73012716D01*
X101693140Y-73012726D01*
X101507718Y-73198148D01*
X101348075Y-73406196D01*
X101216958Y-73633299D01*
X101216953Y-73633309D01*
X101116605Y-73875571D01*
X101116602Y-73875581D01*
X101056995Y-74098041D01*
X101048730Y-74128885D01*
X101014500Y-74388872D01*
X101014500Y-74651127D01*
X101036206Y-74815992D01*
X101048730Y-74911116D01*
X101079629Y-75026433D01*
X101116602Y-75164418D01*
X101116605Y-75164428D01*
X101216953Y-75406690D01*
X101216958Y-75406700D01*
X101348075Y-75633802D01*
X101410007Y-75714514D01*
X101435201Y-75779683D01*
X101421162Y-75848128D01*
X101410007Y-75865486D01*
X101348075Y-75946197D01*
X101216958Y-76173299D01*
X101216953Y-76173309D01*
X101116605Y-76415571D01*
X101116602Y-76415581D01*
X101048730Y-76668885D01*
X101014500Y-76928872D01*
X101014500Y-77191127D01*
X101030661Y-77313872D01*
X101048730Y-77451116D01*
X101116602Y-77704418D01*
X101116605Y-77704428D01*
X101216953Y-77946690D01*
X101216957Y-77946697D01*
X101348075Y-78173802D01*
X101410007Y-78254514D01*
X101435201Y-78319683D01*
X101421162Y-78388128D01*
X101410007Y-78405486D01*
X101348075Y-78486197D01*
X101216958Y-78713299D01*
X101216953Y-78713309D01*
X101116605Y-78955571D01*
X101116602Y-78955581D01*
X101048730Y-79208885D01*
X101014500Y-79468872D01*
X101014500Y-79731127D01*
X101041123Y-79933339D01*
X101048730Y-79991116D01*
X101116602Y-80244418D01*
X101116605Y-80244428D01*
X101216953Y-80486690D01*
X101216958Y-80486700D01*
X101348075Y-80713802D01*
X101410007Y-80794514D01*
X101435201Y-80859683D01*
X101421162Y-80928128D01*
X101410007Y-80945486D01*
X101348075Y-81026197D01*
X101216958Y-81253299D01*
X101216953Y-81253309D01*
X101116605Y-81495571D01*
X101116602Y-81495581D01*
X101098922Y-81561566D01*
X101048730Y-81748885D01*
X101014500Y-82008872D01*
X101014500Y-82271127D01*
X101024554Y-82347489D01*
X101048730Y-82531116D01*
X101114078Y-82775000D01*
X101116602Y-82784418D01*
X101116605Y-82784428D01*
X101216953Y-83026690D01*
X101216958Y-83026700D01*
X101348075Y-83253802D01*
X101410007Y-83334514D01*
X101435201Y-83399683D01*
X101421162Y-83468128D01*
X101410007Y-83485486D01*
X101348075Y-83566197D01*
X101216958Y-83793299D01*
X101216953Y-83793309D01*
X101116605Y-84035571D01*
X101116602Y-84035581D01*
X101049451Y-84286196D01*
X101048730Y-84288885D01*
X101014500Y-84548872D01*
X101014500Y-84811127D01*
X101039354Y-84999901D01*
X101048730Y-85071116D01*
X101101722Y-85268886D01*
X101116602Y-85324418D01*
X101116605Y-85324428D01*
X101216953Y-85566690D01*
X101216958Y-85566700D01*
X101348075Y-85793802D01*
X101410007Y-85874514D01*
X101435201Y-85939683D01*
X101421162Y-86008128D01*
X101410007Y-86025486D01*
X101348075Y-86106197D01*
X101216958Y-86333299D01*
X101216953Y-86333309D01*
X101116605Y-86575571D01*
X101116602Y-86575581D01*
X101063763Y-86772782D01*
X101048730Y-86828885D01*
X101014500Y-87088872D01*
X101014500Y-87351127D01*
X101041123Y-87553339D01*
X101048730Y-87611116D01*
X101109288Y-87837121D01*
X101116602Y-87864418D01*
X101116605Y-87864428D01*
X101216953Y-88106690D01*
X101216958Y-88106700D01*
X101348075Y-88333802D01*
X101410007Y-88414514D01*
X101435201Y-88479683D01*
X101421162Y-88548128D01*
X101410007Y-88565486D01*
X101348075Y-88646197D01*
X101216958Y-88873299D01*
X101216953Y-88873309D01*
X101116605Y-89115571D01*
X101116602Y-89115581D01*
X101048730Y-89368885D01*
X101014500Y-89628872D01*
X101014500Y-89891127D01*
X101038814Y-90075802D01*
X101048730Y-90151116D01*
X101116602Y-90404418D01*
X101116605Y-90404428D01*
X101216953Y-90646690D01*
X101216958Y-90646700D01*
X101348075Y-90873802D01*
X101410007Y-90954514D01*
X101435201Y-91019683D01*
X101421162Y-91088128D01*
X101410007Y-91105486D01*
X101348075Y-91186197D01*
X101216958Y-91413299D01*
X101216953Y-91413309D01*
X101116605Y-91655571D01*
X101116602Y-91655581D01*
X101048730Y-91908885D01*
X101014500Y-92168872D01*
X101014500Y-92431127D01*
X101029771Y-92547111D01*
X101048730Y-92691116D01*
X101116602Y-92944418D01*
X101116605Y-92944428D01*
X101216953Y-93186690D01*
X101216958Y-93186700D01*
X101348075Y-93413802D01*
X101410007Y-93494514D01*
X101435201Y-93559683D01*
X101421162Y-93628128D01*
X101410007Y-93645486D01*
X101348075Y-93726197D01*
X101216958Y-93953299D01*
X101216953Y-93953309D01*
X101116605Y-94195571D01*
X101116602Y-94195581D01*
X101048730Y-94448885D01*
X101014500Y-94708872D01*
X101014500Y-94971127D01*
X101041123Y-95173339D01*
X101048730Y-95231116D01*
X101116602Y-95484418D01*
X101116605Y-95484428D01*
X101216953Y-95726690D01*
X101216958Y-95726700D01*
X101348075Y-95953802D01*
X101410007Y-96034514D01*
X101435201Y-96099683D01*
X101421162Y-96168128D01*
X101410007Y-96185486D01*
X101348075Y-96266197D01*
X101216958Y-96493299D01*
X101216953Y-96493309D01*
X101116605Y-96735571D01*
X101116602Y-96735581D01*
X101048730Y-96988885D01*
X101014500Y-97248872D01*
X101014500Y-97511127D01*
X101041123Y-97713339D01*
X101048730Y-97771116D01*
X101055960Y-97798097D01*
X101116602Y-98024418D01*
X101116605Y-98024428D01*
X101216953Y-98266690D01*
X101216958Y-98266700D01*
X101348075Y-98493802D01*
X101410007Y-98574514D01*
X101435201Y-98639683D01*
X101421162Y-98708128D01*
X101410007Y-98725486D01*
X101348075Y-98806197D01*
X101216958Y-99033299D01*
X101216953Y-99033309D01*
X101116605Y-99275571D01*
X101116602Y-99275581D01*
X101048730Y-99528885D01*
X101014500Y-99788872D01*
X101014500Y-100051127D01*
X101041123Y-100253339D01*
X101048730Y-100311116D01*
X101086243Y-100451116D01*
X101116602Y-100564418D01*
X101116605Y-100564428D01*
X101216953Y-100806690D01*
X101216958Y-100806700D01*
X101348075Y-101033802D01*
X101410007Y-101114514D01*
X101435201Y-101179683D01*
X101421162Y-101248128D01*
X101410007Y-101265486D01*
X101348075Y-101346197D01*
X101216958Y-101573299D01*
X101216953Y-101573309D01*
X101116605Y-101815571D01*
X101116602Y-101815581D01*
X101048730Y-102068885D01*
X101014500Y-102328872D01*
X101014500Y-102591127D01*
X101041123Y-102793339D01*
X101048730Y-102851116D01*
X101086243Y-102991116D01*
X101116602Y-103104418D01*
X101116605Y-103104428D01*
X101216953Y-103346690D01*
X101216958Y-103346700D01*
X101348075Y-103573802D01*
X101410007Y-103654514D01*
X101435201Y-103719683D01*
X101421162Y-103788128D01*
X101410007Y-103805486D01*
X101348075Y-103886197D01*
X101216958Y-104113299D01*
X101216953Y-104113309D01*
X101116605Y-104355571D01*
X101116602Y-104355581D01*
X101048730Y-104608884D01*
X101046739Y-104624008D01*
X101014500Y-104868872D01*
X101014500Y-105131127D01*
X101024335Y-105205826D01*
X101048730Y-105391116D01*
X101085657Y-105528930D01*
X101116602Y-105644418D01*
X101116605Y-105644428D01*
X101216953Y-105886690D01*
X101216958Y-105886700D01*
X101348075Y-106113803D01*
X101507718Y-106321851D01*
X101507726Y-106321860D01*
X101693140Y-106507274D01*
X101693148Y-106507281D01*
X101845080Y-106623864D01*
X101886282Y-106680292D01*
X101890437Y-106750038D01*
X101856224Y-106810958D01*
X101817047Y-106836799D01*
X101769126Y-106856648D01*
X101769109Y-106856657D01*
X101570382Y-106971392D01*
X101388338Y-107111081D01*
X101226081Y-107273338D01*
X101086392Y-107455382D01*
X100971657Y-107654109D01*
X100971650Y-107654123D01*
X100883842Y-107866112D01*
X100824453Y-108087759D01*
X100824451Y-108087770D01*
X100794500Y-108315258D01*
X100794500Y-108544741D01*
X100814614Y-108697510D01*
X100824452Y-108772238D01*
X100838460Y-108824517D01*
X100883842Y-108993887D01*
X100971650Y-109205876D01*
X100971657Y-109205890D01*
X101086392Y-109404617D01*
X101226081Y-109586661D01*
X101226089Y-109586670D01*
X101388330Y-109748911D01*
X101388338Y-109748918D01*
X101570382Y-109888607D01*
X101570385Y-109888608D01*
X101570388Y-109888611D01*
X101769112Y-110003344D01*
X101769117Y-110003346D01*
X101769123Y-110003349D01*
X101860480Y-110041190D01*
X101981113Y-110091158D01*
X102202762Y-110150548D01*
X102430266Y-110180500D01*
X102430273Y-110180500D01*
X102659727Y-110180500D01*
X102659734Y-110180500D01*
X102887238Y-110150548D01*
X103108887Y-110091158D01*
X103320888Y-110003344D01*
X103519612Y-109888611D01*
X103701661Y-109748919D01*
X103701665Y-109748914D01*
X103701670Y-109748911D01*
X103863911Y-109586670D01*
X103863914Y-109586665D01*
X103863919Y-109586661D01*
X104003611Y-109404612D01*
X104118344Y-109205888D01*
X104206158Y-108993887D01*
X104265548Y-108772238D01*
X104295500Y-108544734D01*
X104295500Y-108315266D01*
X104265548Y-108087762D01*
X104206158Y-107866113D01*
X104118344Y-107654112D01*
X104003611Y-107455388D01*
X104003608Y-107455385D01*
X104003607Y-107455382D01*
X103863918Y-107273338D01*
X103863911Y-107273330D01*
X103701664Y-107111083D01*
X103694840Y-107105847D01*
X103677237Y-107092340D01*
X103636036Y-107035915D01*
X103631881Y-106966169D01*
X103666093Y-106905248D01*
X103705272Y-106879405D01*
X103901697Y-106798043D01*
X104128803Y-106666924D01*
X104336851Y-106507282D01*
X104336855Y-106507277D01*
X104336860Y-106507274D01*
X104522274Y-106321860D01*
X104522277Y-106321855D01*
X104522282Y-106321851D01*
X104681924Y-106113803D01*
X104813043Y-105886697D01*
X104913398Y-105644419D01*
X104981270Y-105391116D01*
X105015500Y-105131120D01*
X105015500Y-104936889D01*
X105035185Y-104869850D01*
X105087989Y-104824095D01*
X105157147Y-104814151D01*
X105220703Y-104843176D01*
X105227181Y-104849208D01*
X115003181Y-114625208D01*
X115036666Y-114686531D01*
X115039500Y-114712889D01*
X115039500Y-118758648D01*
X115038721Y-118761300D01*
X115039385Y-118763983D01*
X115028935Y-118794625D01*
X115019815Y-118825687D01*
X115017453Y-118828296D01*
X115016834Y-118830114D01*
X115008510Y-118838179D01*
X114992595Y-118855768D01*
X114987442Y-118859858D01*
X114986593Y-118860302D01*
X114975904Y-118869017D01*
X114975193Y-118869582D01*
X114943546Y-118882418D01*
X114912056Y-118895674D01*
X114911175Y-118895549D01*
X114910448Y-118895845D01*
X114902012Y-118894259D01*
X114850645Y-118887023D01*
X114644428Y-118801605D01*
X114644421Y-118801603D01*
X114644419Y-118801602D01*
X114391116Y-118733730D01*
X114333339Y-118726123D01*
X114131127Y-118699500D01*
X114131120Y-118699500D01*
X113868880Y-118699500D01*
X113868872Y-118699500D01*
X113637772Y-118729926D01*
X113608884Y-118733730D01*
X113505991Y-118761300D01*
X113355581Y-118801602D01*
X113355571Y-118801605D01*
X113113309Y-118901953D01*
X113113299Y-118901958D01*
X112886196Y-119033075D01*
X112678148Y-119192718D01*
X112492726Y-119378140D01*
X112492716Y-119378151D01*
X112458819Y-119422325D01*
X112402391Y-119463527D01*
X112332644Y-119467680D01*
X112287560Y-119447155D01*
X112246174Y-119417087D01*
X112035802Y-119309897D01*
X111811247Y-119236934D01*
X111811248Y-119236934D01*
X111578052Y-119200000D01*
X111341948Y-119200000D01*
X111108752Y-119236934D01*
X110884197Y-119309897D01*
X110673830Y-119417084D01*
X110632437Y-119447157D01*
X110566630Y-119470635D01*
X110498577Y-119454808D01*
X110461178Y-119422323D01*
X110427283Y-119378150D01*
X110427277Y-119378143D01*
X110241860Y-119192726D01*
X110241851Y-119192718D01*
X110033803Y-119033075D01*
X109806700Y-118901958D01*
X109806690Y-118901953D01*
X109564428Y-118801605D01*
X109564421Y-118801603D01*
X109564419Y-118801602D01*
X109311116Y-118733730D01*
X109253339Y-118726123D01*
X109051127Y-118699500D01*
X109051120Y-118699500D01*
X108788880Y-118699500D01*
X108788872Y-118699500D01*
X108557772Y-118729926D01*
X108528884Y-118733730D01*
X108425991Y-118761300D01*
X108275581Y-118801602D01*
X108275571Y-118801605D01*
X108033309Y-118901953D01*
X108033299Y-118901958D01*
X107806196Y-119033075D01*
X107598148Y-119192718D01*
X107412718Y-119378148D01*
X107253075Y-119586196D01*
X107121958Y-119813299D01*
X107121953Y-119813309D01*
X107021605Y-120055571D01*
X107021602Y-120055581D01*
X106953730Y-120308885D01*
X106923539Y-120538196D01*
X106895272Y-120602093D01*
X106888281Y-120609691D01*
X100634792Y-126863181D01*
X100573469Y-126896666D01*
X100547111Y-126899500D01*
X79672890Y-126899500D01*
X79605851Y-126879815D01*
X79585209Y-126863181D01*
X74436819Y-121714791D01*
X74403334Y-121653468D01*
X74400500Y-121627110D01*
X74400500Y-121241351D01*
X74420185Y-121174312D01*
X74449413Y-121144751D01*
X74448533Y-121143672D01*
X74611109Y-121011109D01*
X74614454Y-121007007D01*
X74739698Y-120853407D01*
X74782156Y-120772124D01*
X74830640Y-120721820D01*
X74898628Y-120705712D01*
X74930382Y-120711607D01*
X75088754Y-120763065D01*
X75321948Y-120800000D01*
X75558052Y-120800000D01*
X75791247Y-120763065D01*
X76015802Y-120690102D01*
X76226172Y-120582914D01*
X76267558Y-120552845D01*
X76333365Y-120529364D01*
X76401419Y-120545189D01*
X76438821Y-120577676D01*
X76472716Y-120621849D01*
X76472722Y-120621856D01*
X76658140Y-120807274D01*
X76658148Y-120807281D01*
X76866196Y-120966924D01*
X77093299Y-121098041D01*
X77093309Y-121098046D01*
X77335571Y-121198394D01*
X77335581Y-121198398D01*
X77588884Y-121266270D01*
X77848880Y-121300500D01*
X77848887Y-121300500D01*
X78111113Y-121300500D01*
X78111120Y-121300500D01*
X78371116Y-121266270D01*
X78624419Y-121198398D01*
X78801340Y-121125114D01*
X78866690Y-121098046D01*
X78866691Y-121098045D01*
X78866697Y-121098043D01*
X79093803Y-120966924D01*
X79174514Y-120904991D01*
X79239681Y-120879797D01*
X79308126Y-120893835D01*
X79325481Y-120904987D01*
X79406197Y-120966924D01*
X79482728Y-121011109D01*
X79633299Y-121098041D01*
X79633309Y-121098046D01*
X79875571Y-121198394D01*
X79875581Y-121198398D01*
X80128884Y-121266270D01*
X80388880Y-121300500D01*
X80388887Y-121300500D01*
X80651113Y-121300500D01*
X80651120Y-121300500D01*
X80911116Y-121266270D01*
X81164419Y-121198398D01*
X81341340Y-121125114D01*
X81406690Y-121098046D01*
X81406691Y-121098045D01*
X81406697Y-121098043D01*
X81633803Y-120966924D01*
X81841851Y-120807282D01*
X81841855Y-120807277D01*
X81841860Y-120807274D01*
X82027274Y-120621860D01*
X82027277Y-120621855D01*
X82027282Y-120621851D01*
X82186924Y-120413803D01*
X82318043Y-120186697D01*
X82418398Y-119944419D01*
X82486270Y-119691116D01*
X82520500Y-119431120D01*
X82520500Y-119168880D01*
X82486270Y-118908884D01*
X82418398Y-118655581D01*
X82418394Y-118655571D01*
X82318046Y-118413309D01*
X82318041Y-118413299D01*
X82186924Y-118186196D01*
X82026125Y-117976641D01*
X82000930Y-117911472D01*
X82000500Y-117901154D01*
X82000500Y-110554000D01*
X82020185Y-110486961D01*
X82072989Y-110441206D01*
X82124500Y-110430000D01*
X99095000Y-110430000D01*
X99095000Y-103940000D01*
X82124500Y-103940000D01*
X82057461Y-103920315D01*
X82011706Y-103867511D01*
X82000500Y-103816000D01*
X82000500Y-96681902D01*
X81963553Y-96448631D01*
X81892699Y-96230568D01*
X81890568Y-96224008D01*
X81890566Y-96224005D01*
X81890566Y-96224003D01*
X81783342Y-96013566D01*
X81739922Y-95953803D01*
X81644518Y-95822490D01*
X79517510Y-93695483D01*
X79344799Y-93570000D01*
X79327299Y-93557285D01*
X79284634Y-93501954D01*
X79278655Y-93432341D01*
X79292796Y-93394971D01*
X79413043Y-93186697D01*
X79513398Y-92944419D01*
X79581270Y-92691116D01*
X79615500Y-92431120D01*
X79615500Y-92168880D01*
X79581270Y-91908884D01*
X79513398Y-91655581D01*
X79450335Y-91503333D01*
X79413046Y-91413309D01*
X79413041Y-91413299D01*
X79346497Y-91298041D01*
X79281924Y-91186197D01*
X79219991Y-91105485D01*
X79194797Y-91040319D01*
X79208835Y-90971874D01*
X79219991Y-90954514D01*
X79281924Y-90873803D01*
X79413043Y-90646697D01*
X79513398Y-90404419D01*
X79581270Y-90151116D01*
X79615500Y-89891120D01*
X79615500Y-89628880D01*
X79581270Y-89368884D01*
X79513398Y-89115581D01*
X79506903Y-89099901D01*
X79413046Y-88873309D01*
X79413041Y-88873299D01*
X79347630Y-88760004D01*
X79281924Y-88646197D01*
X79219991Y-88565485D01*
X79194797Y-88500319D01*
X79208835Y-88431874D01*
X79219991Y-88414514D01*
X79281924Y-88333803D01*
X79413043Y-88106697D01*
X79513398Y-87864419D01*
X79581270Y-87611116D01*
X79615500Y-87351120D01*
X79615500Y-87088880D01*
X79581270Y-86828884D01*
X79513398Y-86575581D01*
X79420767Y-86351952D01*
X79413299Y-86282484D01*
X79444574Y-86220004D01*
X79504663Y-86184352D01*
X79535329Y-86180500D01*
X79638097Y-86180500D01*
X79871368Y-86143553D01*
X80095992Y-86070568D01*
X80306434Y-85963343D01*
X80497510Y-85824517D01*
X86644517Y-79677510D01*
X86783343Y-79486434D01*
X86890568Y-79275992D01*
X86963553Y-79051369D01*
X86979973Y-78947690D01*
X87000500Y-78818097D01*
X87000500Y-66572889D01*
X87020185Y-66505850D01*
X87036819Y-66485208D01*
X92156770Y-61365258D01*
X100794500Y-61365258D01*
X100794500Y-61594741D01*
X100809311Y-61707234D01*
X100824452Y-61822238D01*
X100845767Y-61901787D01*
X100883842Y-62043887D01*
X100971650Y-62255876D01*
X100971657Y-62255890D01*
X101086392Y-62454617D01*
X101226081Y-62636661D01*
X101226089Y-62636670D01*
X101388330Y-62798911D01*
X101388338Y-62798918D01*
X101570382Y-62938607D01*
X101570385Y-62938608D01*
X101570388Y-62938611D01*
X101769112Y-63053344D01*
X101769117Y-63053346D01*
X101769123Y-63053349D01*
X101860480Y-63091190D01*
X101981113Y-63141158D01*
X102202762Y-63200548D01*
X102430266Y-63230500D01*
X102430273Y-63230500D01*
X102659727Y-63230500D01*
X102659734Y-63230500D01*
X102887238Y-63200548D01*
X103108887Y-63141158D01*
X103320888Y-63053344D01*
X103519612Y-62938611D01*
X103701661Y-62798919D01*
X103701665Y-62798914D01*
X103701670Y-62798911D01*
X103863911Y-62636670D01*
X103863914Y-62636665D01*
X103863919Y-62636661D01*
X104003611Y-62454612D01*
X104118344Y-62255888D01*
X104206158Y-62043887D01*
X104265548Y-61822238D01*
X104295500Y-61594734D01*
X104295500Y-61365266D01*
X104265548Y-61137762D01*
X104206158Y-60916113D01*
X104118344Y-60704112D01*
X104003611Y-60505388D01*
X104003608Y-60505385D01*
X104003607Y-60505382D01*
X103863918Y-60323338D01*
X103863911Y-60323330D01*
X103701670Y-60161089D01*
X103701661Y-60161081D01*
X103519617Y-60021392D01*
X103320890Y-59906657D01*
X103320876Y-59906650D01*
X103108887Y-59818842D01*
X102887238Y-59759452D01*
X102849215Y-59754446D01*
X102659741Y-59729500D01*
X102659734Y-59729500D01*
X102430266Y-59729500D01*
X102430258Y-59729500D01*
X102213715Y-59758009D01*
X102202762Y-59759452D01*
X102109076Y-59784554D01*
X101981112Y-59818842D01*
X101769123Y-59906650D01*
X101769109Y-59906657D01*
X101570382Y-60021392D01*
X101388338Y-60161081D01*
X101226081Y-60323338D01*
X101086392Y-60505382D01*
X100971657Y-60704109D01*
X100971650Y-60704123D01*
X100883842Y-60916112D01*
X100824453Y-61137759D01*
X100824451Y-61137770D01*
X100794500Y-61365258D01*
X92156770Y-61365258D01*
X92248502Y-61273526D01*
X94985209Y-58536819D01*
X95046532Y-58503334D01*
X95072890Y-58500500D01*
X122257111Y-58500500D01*
X122324150Y-58520185D01*
G37*
%TD.AperFunction*%
%TA.AperFunction,Conductor*%
G36*
X132762056Y-101422210D02*
G01*
X132768018Y-101421061D01*
X132795193Y-101431940D01*
X132823271Y-101440185D01*
X132827245Y-101444772D01*
X132832883Y-101447029D01*
X132849863Y-101470874D01*
X132869026Y-101492989D01*
X132869889Y-101498996D01*
X132873412Y-101503943D01*
X132874804Y-101533179D01*
X132878970Y-101562147D01*
X132876521Y-101569219D01*
X132876737Y-101573734D01*
X132863619Y-101606499D01*
X132801962Y-101713292D01*
X132801953Y-101713309D01*
X132701605Y-101955571D01*
X132701602Y-101955581D01*
X132671243Y-102068885D01*
X132633730Y-102208885D01*
X132599500Y-102468872D01*
X132599500Y-102731127D01*
X132615298Y-102851114D01*
X132633730Y-102991116D01*
X132664092Y-103104428D01*
X132701602Y-103244418D01*
X132701605Y-103244428D01*
X132801953Y-103486690D01*
X132801958Y-103486700D01*
X132933075Y-103713803D01*
X133092718Y-103921851D01*
X133092726Y-103921860D01*
X133278143Y-104107277D01*
X133278150Y-104107283D01*
X133322323Y-104141178D01*
X133363526Y-104197605D01*
X133367681Y-104267351D01*
X133347157Y-104312437D01*
X133317084Y-104353830D01*
X133209897Y-104564197D01*
X133136934Y-104788752D01*
X133100000Y-105021947D01*
X133100000Y-105258052D01*
X133136934Y-105491248D01*
X133188391Y-105649618D01*
X133190386Y-105719460D01*
X133154305Y-105779292D01*
X133127872Y-105797844D01*
X133046595Y-105840299D01*
X132888890Y-105968890D01*
X132760304Y-106126590D01*
X132666089Y-106306954D01*
X132610114Y-106502583D01*
X132610113Y-106502586D01*
X132599500Y-106621966D01*
X132599500Y-108738028D01*
X132599501Y-108738034D01*
X132610113Y-108857415D01*
X132666089Y-109053045D01*
X132666090Y-109053048D01*
X132666091Y-109053049D01*
X132760302Y-109233407D01*
X132760304Y-109233409D01*
X132888890Y-109391109D01*
X133051467Y-109523672D01*
X133050103Y-109525344D01*
X133088869Y-109571116D01*
X133099500Y-109621351D01*
X133099500Y-120027110D01*
X133079815Y-120094149D01*
X133063181Y-120114791D01*
X126514792Y-126663181D01*
X126453469Y-126696666D01*
X126427111Y-126699500D01*
X114472889Y-126699500D01*
X114405850Y-126679815D01*
X114385208Y-126663181D01*
X110456819Y-122734792D01*
X110423334Y-122673469D01*
X110420500Y-122647111D01*
X110420500Y-122072782D01*
X110426939Y-122050851D01*
X110428841Y-122028073D01*
X110438874Y-122010204D01*
X110440185Y-122005743D01*
X110446122Y-121997299D01*
X110452507Y-121988976D01*
X110461177Y-121977677D01*
X110517602Y-121936474D01*
X110587348Y-121932317D01*
X110632440Y-121952844D01*
X110673828Y-121982914D01*
X110884197Y-122090102D01*
X111108752Y-122163065D01*
X111108751Y-122163065D01*
X111341948Y-122200000D01*
X111578052Y-122200000D01*
X111811247Y-122163065D01*
X112035802Y-122090102D01*
X112246172Y-121982914D01*
X112287558Y-121952845D01*
X112353365Y-121929364D01*
X112421419Y-121945189D01*
X112458821Y-121977676D01*
X112492716Y-122021849D01*
X112492722Y-122021856D01*
X112678140Y-122207274D01*
X112678148Y-122207281D01*
X112886196Y-122366924D01*
X113113299Y-122498041D01*
X113113309Y-122498046D01*
X113355571Y-122598394D01*
X113355581Y-122598398D01*
X113608884Y-122666270D01*
X113853484Y-122698473D01*
X113868864Y-122700498D01*
X113868880Y-122700500D01*
X113868887Y-122700500D01*
X114131113Y-122700500D01*
X114131120Y-122700500D01*
X114391116Y-122666270D01*
X114644419Y-122598398D01*
X114850649Y-122512974D01*
X114920114Y-122505506D01*
X114976459Y-122531435D01*
X114986593Y-122539698D01*
X115166951Y-122633909D01*
X115362582Y-122689886D01*
X115481963Y-122700500D01*
X117598036Y-122700499D01*
X117717418Y-122689886D01*
X117913049Y-122633909D01*
X118093407Y-122539698D01*
X118251109Y-122411109D01*
X118379698Y-122253407D01*
X118473909Y-122073049D01*
X118529886Y-121877418D01*
X118540500Y-121758037D01*
X118540499Y-119641964D01*
X118529886Y-119522582D01*
X118473909Y-119326951D01*
X118379698Y-119146593D01*
X118327684Y-119082803D01*
X118251109Y-118988890D01*
X118088533Y-118856328D01*
X118089892Y-118854660D01*
X118051117Y-118808850D01*
X118040500Y-118758648D01*
X118040500Y-113921902D01*
X118003553Y-113688631D01*
X117979838Y-113615646D01*
X117930568Y-113464008D01*
X117928271Y-113459500D01*
X117823343Y-113253566D01*
X117684517Y-113062490D01*
X106254208Y-101632181D01*
X106220723Y-101570858D01*
X106225707Y-101501166D01*
X106267579Y-101445233D01*
X106333043Y-101420816D01*
X106341889Y-101420500D01*
X132756232Y-101420500D01*
X132762056Y-101422210D01*
G37*
%TD.AperFunction*%
%TA.AperFunction,Conductor*%
G36*
X141818039Y-81505185D02*
G01*
X141863794Y-81557989D01*
X141875000Y-81609500D01*
X141875000Y-82275000D01*
X142941988Y-82275000D01*
X142909075Y-82332007D01*
X142875000Y-82459174D01*
X142875000Y-82590826D01*
X142909075Y-82717993D01*
X142941988Y-82775000D01*
X141875000Y-82775000D01*
X141875000Y-83572844D01*
X141881401Y-83632372D01*
X141881403Y-83632379D01*
X141931645Y-83767086D01*
X141931649Y-83767093D01*
X142017809Y-83882187D01*
X142017812Y-83882190D01*
X142132906Y-83968350D01*
X142132913Y-83968354D01*
X142267620Y-84018596D01*
X142267627Y-84018598D01*
X142327155Y-84024999D01*
X142327172Y-84025000D01*
X143125000Y-84025000D01*
X143125000Y-82958012D01*
X143182007Y-82990925D01*
X143309174Y-83025000D01*
X143440826Y-83025000D01*
X143567993Y-82990925D01*
X143625000Y-82958012D01*
X143625000Y-84025000D01*
X144422828Y-84025000D01*
X144422844Y-84024999D01*
X144482372Y-84018598D01*
X144482379Y-84018596D01*
X144617086Y-83968354D01*
X144617093Y-83968350D01*
X144732187Y-83882190D01*
X144732190Y-83882187D01*
X144818350Y-83767093D01*
X144818354Y-83767086D01*
X144859318Y-83657257D01*
X144901189Y-83601323D01*
X144966653Y-83576906D01*
X145034926Y-83591758D01*
X145084332Y-83641163D01*
X145099500Y-83700590D01*
X145099500Y-97007109D01*
X145079815Y-97074148D01*
X145063181Y-97094790D01*
X136323107Y-105834863D01*
X136261784Y-105868348D01*
X136192092Y-105863364D01*
X136174878Y-105855395D01*
X136165442Y-105850115D01*
X136153407Y-105840302D01*
X136070558Y-105797025D01*
X136068990Y-105796148D01*
X136045724Y-105772396D01*
X136021819Y-105749356D01*
X136021392Y-105747556D01*
X136020098Y-105746235D01*
X136013371Y-105713699D01*
X136005712Y-105681369D01*
X136006173Y-105678883D01*
X136005952Y-105677812D01*
X136006764Y-105675701D01*
X136011607Y-105649616D01*
X136063065Y-105491245D01*
X136100000Y-105258052D01*
X136100000Y-105021947D01*
X136063065Y-104788752D01*
X135990102Y-104564197D01*
X135882914Y-104353828D01*
X135852844Y-104312440D01*
X135829364Y-104246633D01*
X135845189Y-104178579D01*
X135877674Y-104141180D01*
X135921851Y-104107282D01*
X136012495Y-104016638D01*
X136107274Y-103921860D01*
X136107277Y-103921855D01*
X136107282Y-103921851D01*
X136266924Y-103713803D01*
X136398043Y-103486697D01*
X136498398Y-103244419D01*
X136566270Y-102991116D01*
X136600500Y-102731120D01*
X136600500Y-102468880D01*
X136566270Y-102208884D01*
X136498398Y-101955581D01*
X136440404Y-101815571D01*
X136398046Y-101713309D01*
X136398041Y-101713299D01*
X136315803Y-101570858D01*
X136266924Y-101486197D01*
X136204991Y-101405485D01*
X136179797Y-101340319D01*
X136193835Y-101271874D01*
X136204987Y-101254518D01*
X136266924Y-101173803D01*
X136398043Y-100946697D01*
X136498398Y-100704419D01*
X136566270Y-100451116D01*
X136600500Y-100191120D01*
X136600500Y-99928880D01*
X136566270Y-99668884D01*
X136498398Y-99415581D01*
X136440404Y-99275571D01*
X136398046Y-99173309D01*
X136398041Y-99173299D01*
X136266924Y-98946196D01*
X136107281Y-98738148D01*
X136107274Y-98738140D01*
X135921860Y-98552726D01*
X135921851Y-98552718D01*
X135713803Y-98393075D01*
X135486700Y-98261958D01*
X135486690Y-98261953D01*
X135244428Y-98161605D01*
X135244421Y-98161603D01*
X135244419Y-98161602D01*
X134991116Y-98093730D01*
X134933339Y-98086123D01*
X134731127Y-98059500D01*
X134731120Y-98059500D01*
X134468880Y-98059500D01*
X134468872Y-98059500D01*
X134237772Y-98089926D01*
X134208884Y-98093730D01*
X133955581Y-98161602D01*
X133955571Y-98161605D01*
X133713309Y-98261953D01*
X133713299Y-98261958D01*
X133486198Y-98393074D01*
X133485153Y-98393877D01*
X133484784Y-98394019D01*
X133482823Y-98395330D01*
X133482529Y-98394891D01*
X133419983Y-98419070D01*
X133409668Y-98419500D01*
X118540662Y-98419500D01*
X118473623Y-98399815D01*
X118427868Y-98347011D01*
X118417924Y-98277853D01*
X118446949Y-98214297D01*
X118467776Y-98195183D01*
X118498593Y-98172791D01*
X118537510Y-98144517D01*
X125145209Y-91536818D01*
X125206532Y-91503333D01*
X125232890Y-91500499D01*
X126118028Y-91500499D01*
X126118036Y-91500499D01*
X126237418Y-91489886D01*
X126433049Y-91433909D01*
X126613407Y-91339698D01*
X126771109Y-91211109D01*
X126899698Y-91053407D01*
X126942156Y-90972124D01*
X126990640Y-90921820D01*
X127058628Y-90905712D01*
X127090382Y-90911607D01*
X127248754Y-90963065D01*
X127481948Y-91000000D01*
X127718052Y-91000000D01*
X127951247Y-90963065D01*
X128175802Y-90890102D01*
X128386172Y-90782914D01*
X128427558Y-90752845D01*
X128493365Y-90729364D01*
X128561419Y-90745189D01*
X128598821Y-90777676D01*
X128632716Y-90821849D01*
X128632722Y-90821856D01*
X128818140Y-91007274D01*
X128818148Y-91007281D01*
X128818149Y-91007282D01*
X128861203Y-91040319D01*
X129026196Y-91166924D01*
X129253299Y-91298041D01*
X129253309Y-91298046D01*
X129495571Y-91398394D01*
X129495581Y-91398398D01*
X129748884Y-91466270D01*
X129997188Y-91498960D01*
X130008864Y-91500498D01*
X130008880Y-91500500D01*
X130008887Y-91500500D01*
X130271113Y-91500500D01*
X130271120Y-91500500D01*
X130531116Y-91466270D01*
X130784419Y-91398398D01*
X131026697Y-91298043D01*
X131253803Y-91166924D01*
X131461851Y-91007282D01*
X131461855Y-91007277D01*
X131461860Y-91007274D01*
X131647277Y-90821856D01*
X131647281Y-90821852D01*
X131647282Y-90821851D01*
X131681179Y-90777675D01*
X131737604Y-90736473D01*
X131807350Y-90732318D01*
X131852440Y-90752844D01*
X131893828Y-90782914D01*
X132104197Y-90890102D01*
X132328752Y-90963065D01*
X132328751Y-90963065D01*
X132561948Y-91000000D01*
X132798052Y-91000000D01*
X133031247Y-90963065D01*
X133255802Y-90890102D01*
X133466163Y-90782918D01*
X133466169Y-90782914D01*
X133549104Y-90722658D01*
X133549105Y-90722658D01*
X132809409Y-89982962D01*
X132872993Y-89965925D01*
X132987007Y-89900099D01*
X133080099Y-89807007D01*
X133145925Y-89692993D01*
X133162962Y-89629409D01*
X133902658Y-90369105D01*
X133902658Y-90369104D01*
X133962914Y-90286169D01*
X133962918Y-90286163D01*
X134070102Y-90075802D01*
X134143065Y-89851247D01*
X134180000Y-89618052D01*
X134180000Y-89381947D01*
X134143065Y-89148752D01*
X134070102Y-88924197D01*
X133962914Y-88713828D01*
X133902658Y-88630894D01*
X133902658Y-88630893D01*
X133162962Y-89370590D01*
X133145925Y-89307007D01*
X133080099Y-89192993D01*
X132987007Y-89099901D01*
X132872993Y-89034075D01*
X132809408Y-89017037D01*
X133549105Y-88277340D01*
X133549104Y-88277338D01*
X133466174Y-88217087D01*
X133255802Y-88109897D01*
X133031247Y-88036934D01*
X133031248Y-88036934D01*
X132798052Y-88000000D01*
X132561948Y-88000000D01*
X132328751Y-88036934D01*
X132328746Y-88036935D01*
X132310899Y-88042734D01*
X132241058Y-88044727D01*
X132181226Y-88008644D01*
X132150400Y-87945942D01*
X132158367Y-87876529D01*
X132184901Y-87837124D01*
X138500208Y-81521819D01*
X138561531Y-81488334D01*
X138587889Y-81485500D01*
X141751000Y-81485500D01*
X141818039Y-81505185D01*
G37*
%TD.AperFunction*%
%TA.AperFunction,Conductor*%
G36*
X75681641Y-70942847D02*
G01*
X75689873Y-70941566D01*
X75714671Y-70952545D01*
X75740687Y-70960185D01*
X75747796Y-70967212D01*
X75753760Y-70969853D01*
X75770748Y-70989005D01*
X75771328Y-70988533D01*
X75903890Y-71151109D01*
X75956284Y-71193830D01*
X76061593Y-71279698D01*
X76142873Y-71322155D01*
X76193180Y-71370641D01*
X76209287Y-71438628D01*
X76203392Y-71470381D01*
X76151934Y-71628751D01*
X76115000Y-71861947D01*
X76115000Y-72098052D01*
X76151934Y-72331247D01*
X76224897Y-72555802D01*
X76332087Y-72766174D01*
X76362155Y-72807560D01*
X76385635Y-72873366D01*
X76369809Y-72941420D01*
X76337325Y-72978819D01*
X76293151Y-73012716D01*
X76293140Y-73012726D01*
X76107718Y-73198148D01*
X75948075Y-73406196D01*
X75816958Y-73633299D01*
X75816953Y-73633309D01*
X75716605Y-73875571D01*
X75716602Y-73875581D01*
X75656995Y-74098041D01*
X75648730Y-74128885D01*
X75614500Y-74388872D01*
X75614500Y-74651127D01*
X75636206Y-74815992D01*
X75648730Y-74911116D01*
X75679629Y-75026433D01*
X75716602Y-75164418D01*
X75716605Y-75164428D01*
X75816953Y-75406690D01*
X75816958Y-75406700D01*
X75948075Y-75633802D01*
X76010007Y-75714514D01*
X76035201Y-75779683D01*
X76021162Y-75848128D01*
X76010007Y-75865486D01*
X75948075Y-75946197D01*
X75816958Y-76173299D01*
X75816953Y-76173309D01*
X75716605Y-76415571D01*
X75716602Y-76415581D01*
X75648730Y-76668885D01*
X75614500Y-76928872D01*
X75614500Y-77191127D01*
X75630661Y-77313872D01*
X75648730Y-77451116D01*
X75716602Y-77704418D01*
X75716605Y-77704428D01*
X75816953Y-77946690D01*
X75816957Y-77946697D01*
X75948075Y-78173802D01*
X76010007Y-78254514D01*
X76035201Y-78319683D01*
X76021162Y-78388128D01*
X76010007Y-78405486D01*
X75948075Y-78486197D01*
X75816958Y-78713299D01*
X75816953Y-78713309D01*
X75716605Y-78955571D01*
X75716602Y-78955581D01*
X75648730Y-79208885D01*
X75614500Y-79468872D01*
X75614500Y-79731127D01*
X75641123Y-79933339D01*
X75648730Y-79991116D01*
X75716602Y-80244418D01*
X75716605Y-80244428D01*
X75816953Y-80486690D01*
X75816958Y-80486700D01*
X75948075Y-80713802D01*
X76010007Y-80794514D01*
X76035201Y-80859683D01*
X76021162Y-80928128D01*
X76010007Y-80945486D01*
X75948075Y-81026197D01*
X75816958Y-81253299D01*
X75816953Y-81253309D01*
X75716605Y-81495571D01*
X75716602Y-81495581D01*
X75698922Y-81561566D01*
X75648730Y-81748885D01*
X75614500Y-82008872D01*
X75614500Y-82271127D01*
X75624554Y-82347489D01*
X75648730Y-82531116D01*
X75714078Y-82775000D01*
X75716602Y-82784418D01*
X75716605Y-82784428D01*
X75816953Y-83026690D01*
X75816958Y-83026700D01*
X75948075Y-83253802D01*
X76010007Y-83334514D01*
X76035201Y-83399683D01*
X76021162Y-83468128D01*
X76010007Y-83485486D01*
X75948075Y-83566197D01*
X75816958Y-83793299D01*
X75816953Y-83793309D01*
X75716605Y-84035571D01*
X75716602Y-84035581D01*
X75649451Y-84286196D01*
X75648730Y-84288885D01*
X75614500Y-84548872D01*
X75614500Y-84811127D01*
X75639354Y-84999901D01*
X75648730Y-85071116D01*
X75701722Y-85268886D01*
X75716602Y-85324418D01*
X75716605Y-85324428D01*
X75816953Y-85566690D01*
X75816958Y-85566700D01*
X75948075Y-85793802D01*
X76010007Y-85874514D01*
X76035201Y-85939683D01*
X76021162Y-86008128D01*
X76010007Y-86025486D01*
X75948075Y-86106197D01*
X75816958Y-86333299D01*
X75816953Y-86333309D01*
X75716605Y-86575571D01*
X75716602Y-86575581D01*
X75663763Y-86772782D01*
X75648730Y-86828885D01*
X75614500Y-87088872D01*
X75614500Y-87351127D01*
X75641123Y-87553339D01*
X75648730Y-87611116D01*
X75709288Y-87837121D01*
X75716602Y-87864418D01*
X75716605Y-87864428D01*
X75816953Y-88106690D01*
X75816958Y-88106700D01*
X75948075Y-88333802D01*
X76010007Y-88414514D01*
X76035201Y-88479683D01*
X76021162Y-88548128D01*
X76010007Y-88565486D01*
X75948075Y-88646197D01*
X75816958Y-88873299D01*
X75816953Y-88873309D01*
X75716605Y-89115571D01*
X75716602Y-89115581D01*
X75648730Y-89368885D01*
X75614500Y-89628872D01*
X75614500Y-89891127D01*
X75638814Y-90075802D01*
X75648730Y-90151116D01*
X75716602Y-90404418D01*
X75716605Y-90404428D01*
X75816953Y-90646690D01*
X75816958Y-90646700D01*
X75948075Y-90873802D01*
X76010007Y-90954514D01*
X76035201Y-91019683D01*
X76021162Y-91088128D01*
X76010007Y-91105486D01*
X75948075Y-91186197D01*
X75816958Y-91413299D01*
X75816953Y-91413309D01*
X75716605Y-91655571D01*
X75716602Y-91655581D01*
X75648730Y-91908885D01*
X75614500Y-92168872D01*
X75614500Y-92431127D01*
X75629771Y-92547111D01*
X75648730Y-92691116D01*
X75716602Y-92944418D01*
X75716605Y-92944428D01*
X75809232Y-93168047D01*
X75816701Y-93237516D01*
X75785426Y-93299996D01*
X75725337Y-93335648D01*
X75694671Y-93339500D01*
X72212889Y-93339500D01*
X72145850Y-93319815D01*
X72125208Y-93303181D01*
X67996819Y-89174792D01*
X67963334Y-89113469D01*
X67960500Y-89087111D01*
X67960500Y-86772782D01*
X67966939Y-86750851D01*
X67968841Y-86728073D01*
X67978874Y-86710204D01*
X67980185Y-86705743D01*
X67986122Y-86697299D01*
X67992507Y-86688976D01*
X68001177Y-86677677D01*
X68057602Y-86636474D01*
X68127348Y-86632317D01*
X68172440Y-86652844D01*
X68213828Y-86682914D01*
X68424197Y-86790102D01*
X68648752Y-86863065D01*
X68648751Y-86863065D01*
X68881948Y-86900000D01*
X69118052Y-86900000D01*
X69351247Y-86863065D01*
X69575802Y-86790102D01*
X69786172Y-86682914D01*
X69827558Y-86652845D01*
X69893365Y-86629364D01*
X69961419Y-86645189D01*
X69998821Y-86677676D01*
X70032716Y-86721849D01*
X70032722Y-86721856D01*
X70218140Y-86907274D01*
X70218148Y-86907281D01*
X70426196Y-87066924D01*
X70653299Y-87198041D01*
X70653309Y-87198046D01*
X70895571Y-87298394D01*
X70895581Y-87298398D01*
X71148884Y-87366270D01*
X71408880Y-87400500D01*
X71408887Y-87400500D01*
X71671113Y-87400500D01*
X71671120Y-87400500D01*
X71931116Y-87366270D01*
X72184419Y-87298398D01*
X72426697Y-87198043D01*
X72653803Y-87066924D01*
X72861851Y-86907282D01*
X72861855Y-86907277D01*
X72861860Y-86907274D01*
X73047274Y-86721860D01*
X73047277Y-86721855D01*
X73047282Y-86721851D01*
X73206924Y-86513803D01*
X73338043Y-86286697D01*
X73438398Y-86044419D01*
X73506270Y-85791116D01*
X73540500Y-85531120D01*
X73540500Y-85268880D01*
X73506270Y-85008884D01*
X73438398Y-84755581D01*
X73352780Y-84548880D01*
X73338046Y-84513309D01*
X73338041Y-84513299D01*
X73206924Y-84286196D01*
X73064049Y-84100000D01*
X73047282Y-84078149D01*
X73047281Y-84078148D01*
X73047274Y-84078140D01*
X72861860Y-83892726D01*
X72861851Y-83892718D01*
X72653803Y-83733075D01*
X72426700Y-83601958D01*
X72426690Y-83601953D01*
X72184428Y-83501605D01*
X72184421Y-83501603D01*
X72184419Y-83501602D01*
X71931116Y-83433730D01*
X71873339Y-83426123D01*
X71671127Y-83399500D01*
X71671120Y-83399500D01*
X71408880Y-83399500D01*
X71408872Y-83399500D01*
X71177772Y-83429926D01*
X71148884Y-83433730D01*
X70929076Y-83492627D01*
X70895581Y-83501602D01*
X70895571Y-83501605D01*
X70653309Y-83601953D01*
X70653299Y-83601958D01*
X70426196Y-83733075D01*
X70218148Y-83892718D01*
X70032726Y-84078140D01*
X70032716Y-84078151D01*
X69998819Y-84122325D01*
X69942391Y-84163527D01*
X69872644Y-84167680D01*
X69827560Y-84147155D01*
X69786174Y-84117087D01*
X69575802Y-84009897D01*
X69351247Y-83936934D01*
X69351248Y-83936934D01*
X69118052Y-83900000D01*
X68881948Y-83900000D01*
X68648752Y-83936934D01*
X68424197Y-84009897D01*
X68213830Y-84117084D01*
X68172437Y-84147157D01*
X68106630Y-84170635D01*
X68038577Y-84154808D01*
X68001178Y-84122323D01*
X67967283Y-84078150D01*
X67967277Y-84078143D01*
X67781860Y-83892726D01*
X67781851Y-83892718D01*
X67573803Y-83733075D01*
X67346700Y-83601958D01*
X67346690Y-83601953D01*
X67104428Y-83501605D01*
X67104421Y-83501603D01*
X67104419Y-83501602D01*
X66851116Y-83433730D01*
X66793339Y-83426123D01*
X66591127Y-83399500D01*
X66591120Y-83399500D01*
X66328880Y-83399500D01*
X66328872Y-83399500D01*
X66097772Y-83429926D01*
X66068884Y-83433730D01*
X65849076Y-83492627D01*
X65815581Y-83501602D01*
X65815571Y-83501605D01*
X65573309Y-83601953D01*
X65573299Y-83601958D01*
X65346197Y-83733075D01*
X65265486Y-83795007D01*
X65200317Y-83820201D01*
X65131872Y-83806162D01*
X65114514Y-83795007D01*
X65033802Y-83733075D01*
X64806700Y-83601958D01*
X64806690Y-83601953D01*
X64564428Y-83501605D01*
X64564421Y-83501603D01*
X64564419Y-83501602D01*
X64311116Y-83433730D01*
X64253339Y-83426123D01*
X64051127Y-83399500D01*
X64051120Y-83399500D01*
X63788880Y-83399500D01*
X63788872Y-83399500D01*
X63557772Y-83429926D01*
X63528884Y-83433730D01*
X63309076Y-83492627D01*
X63275581Y-83501602D01*
X63275565Y-83501607D01*
X63069353Y-83587023D01*
X63056409Y-83588414D01*
X63044809Y-83594328D01*
X63022336Y-83592077D01*
X62999884Y-83594492D01*
X62986644Y-83588504D01*
X62975287Y-83587367D01*
X62946711Y-83570443D01*
X62944803Y-83569580D01*
X62944142Y-83569055D01*
X62933407Y-83560302D01*
X62932555Y-83559857D01*
X62927402Y-83555766D01*
X62910294Y-83531507D01*
X62891117Y-83508850D01*
X62889746Y-83502369D01*
X62887135Y-83498666D01*
X62886667Y-83487812D01*
X62880500Y-83458648D01*
X62880500Y-79292889D01*
X62900185Y-79225850D01*
X62916819Y-79205208D01*
X71145209Y-70976819D01*
X71206532Y-70943334D01*
X71232890Y-70940500D01*
X75673648Y-70940500D01*
X75681641Y-70942847D01*
G37*
%TD.AperFunction*%
%TD*%
M02*
